<?xml version="1.0" encoding="UTF-8"?>
<!-- Generator: visioncortex VTracer 0.6.5 -->
<svg version="1.1" xmlns="http://www.w3.org/2000/svg" width="1024" height="1024">
<path d="M0 0 C4.91 0.32 8.62 2.15 12.71 4.7 C13.2 5 13.68 5.3 14.17 5.6 C20.35 9.38 25.94 13.65 31.37 18.44 C32 19 32.64 19.55 33.28 20.09 C38.23 24.32 42.88 28.78 47.29 33.57 C47.62 33.93 47.96 34.3 48.3 34.66 C48.93 35.34 49.55 36.03 50.16 36.71 C50.35 36.92 50.54 37.12 50.73 37.33 C52.11 38.89 52.11 38.89 52.11 40.14 C52.08 40.43 52.04 40.71 52 41 C53.19 41.03 54.38 41.04 55.57 41.05 C55.97 41.06 56.38 41.07 56.78 41.08 C58.78 41.12 60.7 41.11 62.66 40.64 C65.97 39.85 69.24 39.84 72.63 39.83 C73.27 39.83 73.9 39.83 74.54 39.82 C75.87 39.82 77.2 39.81 78.54 39.81 C79.87 39.82 81.21 39.81 82.55 39.79 C84.52 39.77 86.48 39.77 88.44 39.77 C88.76 39.77 89.08 39.77 89.41 39.77 C93.72 39.78 97.68 40.24 101.88 41.16 C107.73 42.42 107.73 42.42 109.63 41.27 C110.78 40.27 111.61 39.09 112.43 37.82 C113.37 36.46 114.5 35.29 115.62 34.09 C116.17 33.5 116.7 32.9 117.24 32.3 C126.82 21.61 137.32 12.6 149.58 5.11 C150.05 4.82 150.52 4.53 151 4.23 C154.86 1.85 158.41 0.33 163 0 C163.56 1.6 164.11 3.2 164.65 4.8 C164.84 5.34 165.03 5.88 165.22 6.42 C167.83 13.91 168.24 20.95 168.25 28.81 C168.25 28.94 168.25 28.94 168.25 29.58 C168.27 45.72 165.76 61.58 157.95 75.95 C155.96 79.61 155.09 82.82 156 87 C156.2 87.66 156.44 88.31 156.68 88.96 C163.48 107.2 157.38 125.68 151 143 C151.2 143.01 151.4 143.03 151.6 143.04 C156.45 143.4 161.3 143.76 166.15 144.12 C168.5 144.3 170.84 144.47 173.19 144.64 C175.23 144.79 177.28 144.94 179.32 145.1 C180.4 145.18 181.48 145.26 182.57 145.34 C183.59 145.41 184.6 145.49 185.62 145.57 C186 145.6 186.37 145.62 186.74 145.65 C188.69 145.78 190.31 145.95 192 147 C192 148.32 192 149.64 192 151 C182.92 151.21 173.87 150.63 164.8 150.11 C162.64 149.99 160.47 149.87 158.31 149.75 C153.87 149.5 149.44 149.25 145 149 C144.67 150.32 144.34 151.64 144 153 C144.41 153.08 144.83 153.17 145.26 153.26 C155.02 155.27 164.65 157.64 174.25 160.33 C175.05 160.56 175.86 160.78 176.66 161.01 C183.17 162.83 189.61 164.79 196 167 C196 168.32 196 169.64 196 171 C190.05 170.5 184.48 169.52 178.74 167.91 C177.74 167.63 176.73 167.36 175.71 167.09 C172.73 166.28 169.75 165.47 166.78 164.65 C163.84 163.84 160.91 163.04 157.97 162.25 C157.77 162.2 157.57 162.14 157.36 162.09 C151.27 160.45 145.33 159.18 139 159 C138.67 159.99 138.34 160.98 138 162 C138.23 162.07 138.46 162.14 138.69 162.21 C144.29 163.95 149.54 166.04 154.78 168.64 C155.72 169.1 156.66 169.56 157.6 170.02 C159.37 170.88 161.13 171.75 162.9 172.62 C164.89 173.6 166.88 174.58 168.88 175.55 C175.27 178.67 181.65 181.81 188 185 C188 186.32 188 187.64 188 189 C182.95 188.55 179.05 187.39 174.54 185.09 C173.94 184.79 173.34 184.5 172.74 184.2 C171.49 183.59 170.24 182.97 168.99 182.34 C167.05 181.36 165.1 180.41 163.14 179.45 C162.82 179.29 162.49 179.13 162.16 178.97 C161.68 178.74 161.19 178.5 160.7 178.26 C159.58 177.71 158.45 177.16 157.33 176.61 C147.98 172.02 147.98 172.02 143.53 170 C142.89 169.72 142.26 169.42 141.63 169.12 C137.93 167.34 134.74 166.29 130.71 167.69 C128.67 168.58 127.01 170.04 125.33 171.47 C124.08 172.52 122.79 173.52 121.48 174.51 C121.34 174.62 121.21 174.72 121.07 174.83 C115.29 179.15 108.6 182.17 102 185 C101.87 185.05 101.87 185.05 101.23 185.33 C89.37 190.38 72.51 189.73 60.63 185.13 C52.94 181.98 45.36 177.69 38.79 172.6 C38.54 172.41 38.29 172.22 38.04 172.03 C36.72 171.01 35.44 169.96 34.2 168.83 C32.34 167.46 30.99 166.79 28.63 167.09 C28.35 167.14 28.06 167.19 27.76 167.23 C27.46 167.28 27.15 167.33 26.84 167.38 C23.39 168 20.38 169.4 17.25 170.91 C16.62 171.21 15.99 171.51 15.36 171.8 C14.04 172.42 12.73 173.04 11.42 173.67 C9.63 174.53 7.83 175.38 6.04 176.23 C4.75 176.84 3.46 177.45 2.17 178.06 C1.84 178.21 1.52 178.37 1.2 178.52 C-2.38 180.21 -5.93 181.94 -9.43 183.8 C-9.91 184.06 -10.39 184.31 -10.87 184.56 C-11.03 184.64 -11.18 184.73 -11.35 184.81 C-11.66 184.97 -11.97 185.14 -12.28 185.3 C-13.32 185.84 -14.34 186.41 -15.37 186.97 C-18.25 188.52 -20.3 189.4 -23.55 188.51 C-24.04 188.35 -24.52 188.18 -25 188 C-24.93 186.88 -24.68 185.9 -24 185 C-22.47 183.71 -20.55 182.89 -18.77 182 C-18.22 181.71 -17.68 181.43 -17.14 181.15 C-15.82 180.47 -14.5 179.8 -13.18 179.13 C-12.12 178.59 -11.05 178.05 -9.99 177.5 C1.49 171.61 13.17 166.17 25 161 C24.67 160.34 24.34 159.68 24 159 C17.32 159.45 11.11 160.55 4.67 162.36 C3.54 162.67 2.4 162.98 1.27 163.28 C-2.08 164.18 -5.43 165.1 -8.77 166.03 C-11.39 166.75 -14.01 167.47 -16.64 168.18 C-17.76 168.48 -18.88 168.78 -20 169.1 C-28.88 171.61 -28.88 171.61 -33 170 C-32.48 167.37 -32.48 167.37 -31.45 166.57 C-30.72 166.25 -30 166 -29.23 165.78 C-28.95 165.68 -28.66 165.59 -28.37 165.49 C-27.59 165.24 -26.8 164.99 -26.02 164.76 C-25.35 164.55 -24.68 164.34 -24.01 164.13 C-15.62 161.45 -7.08 159.24 1.44 157.02 C3.48 156.49 5.51 155.95 7.54 155.41 C8.57 155.13 9.6 154.86 10.64 154.6 C11.42 154.4 12.2 154.18 12.98 153.97 C13.26 153.9 13.54 153.84 13.82 153.76 C15.69 153.25 16.77 152.49 18 151 C17.09 150.02 17.09 150.02 16.29 149.87 C16.15 149.87 16.15 149.87 15.45 149.87 C15.13 149.87 14.81 149.86 14.48 149.86 C14.12 149.86 13.76 149.86 13.41 149.87 C13.03 149.87 12.65 149.86 12.27 149.86 C11.23 149.86 10.19 149.87 9.15 149.87 C8.5 149.87 7.85 149.88 7.19 149.88 C-4.55 149.9 -16.27 150.46 -28 151 C-28.33 149.68 -28.66 148.36 -29 147 C-20.06 145.45 -11.18 144.51 -2.13 143.94 C-0.52 143.83 1.08 143.72 2.68 143.61 C5.79 143.4 8.89 143.2 12 143 C10.01 137.01 10.01 137.01 9.04 134.16 C8.67 133.07 8.3 131.99 7.93 130.9 C7.66 130.08 7.38 129.27 7.1 128.46 C4.78 121.68 3.77 115.71 3.75 108.57 C3.75 107.93 3.75 107.3 3.74 106.66 C3.72 100.83 4.08 95.48 6.02 89.92 C8.18 83.53 5.7 77.72 3.1 71.89 C2.28 70.04 1.5 68.18 0.72 66.31 C0.64 66.12 0.56 65.94 0.49 65.75 C-0.92 62.36 -2.02 58.94 -2.88 55.38 C-2.9 55.26 -2.9 55.26 -3.04 54.69 C-3.36 53.36 -3.63 52.03 -3.87 50.69 C-3.96 50.23 -4.05 49.76 -4.14 49.3 C-5.28 43.46 -5.22 37.52 -5.24 31.6 C-5.24 30.42 -5.26 29.24 -5.28 28.06 C-5.4 21.66 -5.2 15.61 -3.61 9.39 C-3.55 9.14 -3.48 8.89 -3.42 8.64 C-2.62 5.56 -1.54 2.78 0 0 Z M4 15 C2.91 17.56 2.81 19.96 2.76 22.69 C2.76 22.92 2.75 23.14 2.75 23.38 C2.71 25.1 2.69 26.83 2.69 28.56 C2.69 28.82 2.69 29.07 2.68 29.34 C2.65 45.46 5.88 59.06 14 73 C17.35 71.67 19.31 69.83 21.56 67.06 C22.14 66.36 22.73 65.67 23.32 64.97 C23.46 64.8 23.6 64.64 23.74 64.46 C25.07 62.88 26.51 61.43 28 60 C27.67 59.01 27.34 58.02 27 57 C22.39 55.7 17.74 55.9 13 56 C13.36 54.92 13.6 54.23 14.6 53.65 C16.63 52.91 18.61 52.85 20.75 52.88 C20.92 52.88 21.09 52.88 21.27 52.88 C24.9 52.9 28.43 53.36 32 54 C31.56 52.16 30.87 50.62 29.3 49.49 C27.31 48.33 25.2 47.4 23.08 46.48 C22.39 46.17 21.7 45.85 21.01 45.53 C20.34 45.22 19.66 44.91 18.99 44.61 C18.67 44.47 18.35 44.32 18.03 44.17 C15.92 43.21 14.32 42.84 12 43 C12 42.01 12 41.02 12 40 C13.84 40.4 15.67 40.82 17.5 41.25 C17.64 41.28 17.64 41.28 18.32 41.44 C22.38 42.42 25.99 43.69 29.59 45.82 C29.74 45.9 29.89 45.99 30.05 46.08 C30.44 46.31 30.84 46.55 31.23 46.79 C32.26 47.07 32.72 46.76 33.62 46.24 C33.68 46.2 33.68 46.2 34 46 C32.42 44.29 30.81 42.61 29.19 40.94 C29.07 40.81 28.94 40.69 28.82 40.56 C24.73 36.37 20.54 33.05 15.44 30.11 C15.22 29.98 14.99 29.85 14.76 29.71 C14.35 29.47 13.93 29.24 13.51 29.01 C12.11 28.22 11.6 27.49 11 26 C22.95 28.72 34.32 37.75 41 48 C41.99 47.67 42.98 47.34 44 47 C36.31 34.12 24.98 24.37 12 16.94 C11.82 16.83 11.64 16.73 11.46 16.62 C8.93 15.15 6.92 14.73 4 15 Z M154.95 14.96 C154.75 15.07 154.54 15.17 154.32 15.28 C143.92 20.67 133.66 28.06 126 37 C125.86 37.17 125.72 37.33 125.57 37.5 C124.66 38.56 123.78 39.63 122.92 40.72 C122.64 41.07 122.37 41.41 122.09 41.76 C119.95 44.39 119.95 44.39 120.07 45.9 C120.32 46.66 120.6 47.31 121 48 C121.11 47.89 121.22 47.78 121.33 47.67 C121.49 47.51 121.65 47.35 121.81 47.19 C122 47 122.18 46.82 122.37 46.63 C122.8 46.2 123.24 45.77 123.67 45.34 C124.9 44.12 126.11 42.89 127.28 41.62 C131.04 37.53 134.94 34.12 139.62 31.12 C139.85 30.98 140.07 30.83 140.3 30.69 C143.7 28.51 147.13 27.11 151 26 C148.23 28.96 145.4 31.54 142.12 33.94 C139.56 35.83 136.99 37.72 134.52 39.75 C134.22 40 133.92 40.24 133.61 40.48 C131.22 42.34 130.43 44.01 130 47 C130.07 46.97 130.07 46.97 130.44 46.82 C144.07 41.16 144.07 41.16 151 41 C151 41.66 151 42.32 151 43 C150.74 43.06 150.49 43.13 150.22 43.2 C143.55 44.91 137.86 47.39 132 51 C132 51.99 132 52.98 132 54 C132.15 53.98 132.15 53.98 132.9 53.89 C138.76 53.21 144.19 52.66 150 54 C150 54.66 150 55.32 150 56 C149.91 56 149.91 56 149.48 56.02 C147.7 56.11 145.91 56.21 144.13 56.32 C143.46 56.36 142.8 56.39 142.13 56.42 C141.17 56.47 140.22 56.53 139.26 56.59 C138.96 56.6 138.67 56.61 138.36 56.62 C136.81 56.73 135.92 56.91 134.8 58.03 C134.52 58.34 134.25 58.67 134 59 C134.1 59.1 134.21 59.2 134.31 59.31 C135.63 60.6 136.94 61.89 138.25 63.19 C138.46 63.39 138.66 63.6 138.88 63.81 C141.39 66.3 143.86 68.75 145.86 71.68 C145.99 71.86 146.11 72.04 146.25 72.22 C146.35 72.37 146.45 72.53 146.55 72.68 C147.31 73.22 148.09 73.05 149 73 C152.63 66.56 155.48 60.27 157.31 53.12 C157.39 52.81 157.47 52.5 157.56 52.18 C158.01 50.4 158.44 48.61 158.83 46.81 C158.93 46.3 159.05 45.79 159.16 45.29 C160.29 40.38 160.19 35.37 160.19 30.37 C160.19 29.12 160.2 27.87 160.22 26.62 C160.23 25.65 160.23 24.67 160.23 23.69 C160.23 23.23 160.23 22.77 160.24 22.31 C160.29 19.05 159.71 16.79 158 14 C156.79 14 156 14.42 154.95 14.96 Z M76.43 49.01 C75.6 50.53 76.05 52.22 76.48 53.82 C76.83 54.79 77.22 55.22 78.02 55.86 C78.93 56.74 79.15 57.34 79.23 58.6 C79.23 59.23 79.22 59.85 79.2 60.48 C79.19 60.81 79.19 61.14 79.19 61.48 C79.18 62.35 79.16 63.22 79.14 64.09 C79.12 64.98 79.11 65.87 79.1 66.77 C79.08 68.51 79.04 70.26 79 72 C76.12 70.89 73.83 69.52 72.33 66.74 C71.09 63.94 70.57 60.82 69.94 57.84 C69.73 56.84 69.5 55.85 69.28 54.85 C68.84 52.9 68.42 50.95 68 49 C67.01 49 66.02 49 65 49 C64.43 56.19 65.09 66.23 69.88 72 C70.54 72.72 71.25 73.36 72 74 C72.21 74.19 72.42 74.38 72.63 74.58 C73.68 75.52 74.74 76.44 75.85 77.3 C76.03 77.44 76.2 77.57 76.38 77.71 C77 78 77 78 79 78 C79 80.31 79 82.62 79 85 C76.75 85 76.75 85 75.83 84.41 C75.62 84.28 75.41 84.15 75.2 84.01 C74.98 83.86 74.76 83.72 74.54 83.57 C74.31 83.41 74.08 83.26 73.84 83.1 C67.54 78.85 63.96 75.34 62 68 C61.87 67.52 61.74 67.04 61.61 66.56 C60.3 61.73 59.12 56.88 58 52 C57.01 52.33 56.02 52.66 55 53 C55.54 63.47 56.77 74.43 64.95 81.86 C68.23 84.79 71.78 87.41 75.33 90 C75.5 90.11 75.66 90.23 75.82 90.35 C76.14 90.58 76.45 90.81 76.77 91.04 C77.66 91.69 78.3 92.35 78.98 93.23 C79.61 93.88 79.89 93.99 80.8 94.05 C84.39 93.46 87.16 90.86 89.94 88.69 C90.45 88.29 90.97 87.9 91.49 87.5 C92.76 86.53 94.02 85.55 95.27 84.57 C95.98 84.01 96.7 83.46 97.42 82.92 C101.74 79.6 101.74 79.6 103.12 77.06 C103.28 76.78 103.44 76.5 103.6 76.2 C107.32 69.08 108.65 59.95 108 52 C107.01 52 106.02 52 105 52 C104.9 52.47 104.8 52.95 104.7 53.43 C101.75 67.19 99.66 76.25 87.54 84.65 C86.72 85.18 85.88 85.59 85 86 C84.49 83.78 83.99 81.14 85 79 C86.23 77.43 88.1 76.37 89.8 75.39 C93.44 73.24 95.95 69.54 97.15 65.49 C97.77 63.07 97.99 60.58 98.2 58.1 C98.28 57.18 98.39 56.26 98.48 55.35 C98.67 53.57 98.84 51.78 99 50 C98.19 49.44 97.45 48.97 96.45 49.04 C95.8 49.27 95.46 49.48 95 50 C94.64 50.95 94.51 51.91 94.39 52.92 C94.32 53.43 94.25 53.94 94.17 54.46 C93.94 55.92 93.73 57.38 93.55 58.84 C92.91 63.86 91.88 67.23 87.69 70.5 C86.49 71.37 85.25 72.2 84 73 C84.08 70.97 84.18 68.93 84.29 66.9 C84.34 65.95 84.38 65.01 84.42 64.06 C84.46 63.15 84.51 62.23 84.56 61.32 C84.58 60.97 84.59 60.63 84.6 60.28 C84.69 57.95 85.11 56.49 86.57 54.65 C87.17 53.74 87.13 53.1 86.92 52.06 C86.87 51.85 86.81 51.65 86.75 51.44 C86.7 51.22 86.64 51.01 86.58 50.78 C86.21 49.45 85.85 48.16 84.73 47.28 C81.86 46.18 78.37 46.41 76.43 49.01 Z M47 57 C46.09 58.31 45.92 59.11 46.16 60.7 C46.29 61.36 46.42 62.03 46.56 62.7 C46.63 63.05 46.7 63.41 46.76 63.76 C46.94 64.69 47.13 65.62 47.32 66.55 C47.51 67.51 47.7 68.46 47.88 69.41 C48.25 71.27 48.62 73.14 49 75 C48.34 75 47.68 75 47 75 C46.91 74.7 46.83 74.39 46.74 74.08 C45.85 71.31 44.6 69.28 42.56 67.19 C42.36 66.97 42.15 66.75 41.94 66.52 C40.77 65.39 40 64.87 38.34 64.86 C37.89 64.9 37.44 64.94 37 65 C37.43 68.81 39.51 71.2 42 74 C41.7 74.01 41.4 74.03 41.09 74.04 C29.89 74.63 29.89 74.63 25 78 C25 78.66 25 79.32 25 80 C25.22 80 25.44 80 25.66 79.99 C27.76 79.97 29.86 79.96 31.97 79.95 C33.04 79.94 34.12 79.94 35.2 79.92 C41.21 79.86 47.05 80.19 53 81 C53.12 78.69 53.2 76.38 53.25 74.06 C53.25 73.89 53.26 73.72 53.26 73.55 C53.37 67.31 52.34 62.35 49 57 C48.34 57 47.68 57 47 57 Z M114 57 C110.5 64.81 109.42 71.46 110 80 C112.87 80.79 115.15 81.14 118.06 80.42 C120.44 79.85 122.79 79.85 125.23 79.87 C126 79.87 126.77 79.87 127.54 79.86 C130.8 79.86 133.83 80.23 137 81 C137 79.68 137 78.36 137 77 C133.31 75.2 130.27 74.73 126.19 74.88 C125.68 74.89 125.17 74.89 124.67 74.9 C123.44 74.92 122.22 74.96 121 75 C121.15 74.8 121.3 74.61 121.46 74.41 C122.03 73.67 122.58 72.92 123.14 72.17 C123.38 71.85 123.62 71.53 123.86 71.22 C125.31 69.35 126.32 68 126.09 65.53 C126.06 65.35 126.03 65.18 126 65 C122.81 65.41 121.13 66.45 119.13 68.96 C118.75 69.44 118.34 69.91 117.94 70.38 C117.68 70.69 117.43 71 117.17 71.31 C117.05 71.45 116.93 71.59 116.81 71.73 C115.92 72.87 115.89 73.62 116 75 C115.34 75 114.68 75 114 75 C114.02 74.92 114.02 74.92 114.11 74.5 C114.47 72.91 114.82 71.32 115.17 69.73 C115.35 68.91 115.53 68.1 115.72 67.28 C117.28 60.34 117.28 60.34 117 57 C116.01 57 115.02 57 114 57 Z M34.5 86.62 C34.29 86.66 34.08 86.7 33.87 86.74 C28.64 87.75 24.04 90.18 19.37 92.66 C19.15 92.78 18.92 92.9 18.69 93.02 C16.59 94.17 16.59 94.17 16 95 C14.86 101.43 19.15 109.2 22.51 114.31 C26.14 119.44 32.37 124.67 38.71 125.83 C42.75 126.43 46.95 126.3 51.02 126.2 C51.29 126.2 51.56 126.19 51.84 126.19 C53.49 126.13 54.58 125.85 56 125 C56 124.34 56 123.68 56 123 C55.83 122.99 55.67 122.97 55.5 122.96 C35.2 121.2 35.2 121.2 28.74 113.65 C24.6 108.55 21.95 102.48 21 96 C22.21 95.59 23.42 95.18 24.63 94.77 C25.03 94.64 25.44 94.5 25.85 94.36 C27.23 93.89 28.61 93.44 30 93 C30.08 92.97 30.08 92.97 30.49 92.84 C37.52 90.6 46.97 90.67 53.56 94.06 C57.95 96.41 60.88 99.53 63 104 C63.04 104.08 63.04 104.08 63.23 104.48 C66.67 111.72 67.14 120.13 68 128 C69.55 126.89 70.95 125.75 71.3 123.79 C71.45 122.34 71.42 120.89 71.38 119.44 C71.37 119.31 71.37 119.31 71.36 118.64 C71.16 108.88 67.83 99.8 60.86 92.8 C55.91 88.1 47.59 86.02 40.92 85.89 C38.75 85.97 36.63 86.23 34.5 86.62 Z M98.47 97.78 C93.58 104.71 91 114.09 92.07 122.58 C92.41 124.5 93.08 126.28 94 128 C95.27 127.01 96.09 126.17 96.35 124.54 C96.4 123.97 96.45 123.41 96.49 122.84 C96.55 122.21 96.62 121.58 96.68 120.95 C96.7 120.78 96.7 120.78 96.78 119.95 C97.7 110.3 100.33 101.49 108 95 C113.37 90.68 121.64 91.19 128.12 91.88 C130.6 92.22 132.95 92.88 135.31 93.69 C135.55 93.76 135.78 93.84 136.02 93.91 C139.4 95.02 139.4 95.02 140.32 96.52 C141.24 98.71 141.23 100.99 140.43 103.21 C140.13 103.95 139.79 104.66 139.44 105.38 C139.35 105.57 139.26 105.76 139.16 105.95 C136.24 112.1 131.75 118.06 125.12 120.43 C119.09 122.32 112.27 122.48 106 123 C106.94 124.41 107.98 125.71 109.67 126.19 C111.62 126.51 113.59 126.48 115.56 126.44 C115.87 126.43 116.18 126.43 116.5 126.43 C124.98 126.28 131.82 124 137.81 117.86 C142.92 112.4 147.28 104.58 147.24 96.9 C147.17 95.43 146.88 94.28 145.88 93.16 C144.86 92.31 143.74 91.76 142.52 91.23 C141.95 90.98 141.4 90.72 140.84 90.46 C126.56 83.92 108.44 84.28 98.47 97.78 Z M124 95 C123.22 97.65 122.92 99.91 123.06 102.69 C123.22 107.29 122.16 111.58 121 116 C124.71 115.68 127.77 114.63 130.35 111.85 C132.87 108.74 134.39 104.63 136 101 C132.68 96.75 129.11 95.92 124 95 Z M28 99 C27.69 103.42 28.89 106.35 31.69 109.66 C32.04 110.07 32.4 110.47 32.75 110.88 C32.92 111.07 33.09 111.27 33.26 111.48 C35.85 114.49 38.03 115.69 42 116 C41.97 115.81 41.95 115.62 41.92 115.42 C41.69 113.6 41.45 111.77 41.22 109.95 C41.1 109.01 40.98 108.07 40.85 107.14 C40.74 106.23 40.62 105.32 40.5 104.41 C40.46 104.07 40.42 103.73 40.37 103.39 C40.04 100.91 39.95 98.49 40 96 C35.24 95.53 32.07 96.54 28 99 Z M52 100 C51.92 100.3 51.84 100.6 51.76 100.91 C48.81 111.96 48.81 111.96 47 117 C47.36 117.5 47.36 117.5 48 118 C48.77 118.04 49.42 118.03 50.18 117.95 C50.29 117.94 50.29 117.94 50.83 117.89 C51.28 117.85 51.73 117.81 52.18 117.76 C52.87 117.69 53.55 117.63 54.23 117.58 C56.99 117.33 58.86 116.86 61 115 C61.03 110.14 60.33 106.69 57.06 103 C56.93 102.85 56.8 102.69 56.66 102.54 C56.27 102.1 55.88 101.67 55.47 101.25 C55.41 101.19 55.41 101.19 55.12 100.86 C54.4 100.16 53.89 99.93 52.91 99.92 C52.76 99.93 52.76 99.93 52 100 Z M107.78 101.17 C107.57 101.42 107.36 101.67 107.15 101.93 C106.93 102.2 106.72 102.48 106.5 102.75 C106.44 102.82 106.44 102.82 106.17 103.17 C102.99 107.13 101.62 109.84 102 115 C110.52 118.58 110.52 118.58 115 118 C115.72 117.01 116.06 116.43 115.9 115.2 C115.63 114.22 115.33 113.26 115 112.3 C114.89 111.95 114.78 111.59 114.66 111.24 C114.37 110.3 114.06 109.37 113.75 108.45 C113.44 107.5 113.13 106.54 112.83 105.59 C112.23 103.72 111.62 101.86 111 100 C109.44 99.88 108.83 99.91 107.78 101.17 Z M10 111 C9.95 117.22 13.71 121.61 17.84 125.88 C22.16 130.22 28.32 135.07 34.69 135.27 C35.81 135.24 36.9 135.16 38 135 C37.27 132.89 36.53 131.1 34.48 130.03 C33.67 129.66 32.86 129.3 32.03 128.96 C24.27 125.71 18.55 120.44 13.9 113.49 C13.79 113.32 13.67 113.16 13.55 112.98 C13.34 112.67 13.14 112.36 12.94 112.04 C12.65 111.62 12.65 111.62 12 111 C11.29 110.87 10.73 110.93 10 111 Z M147.24 115.45 C141.65 123.49 135.18 128.64 126 132 C126 132.99 126 133.98 126 135 C133.42 134.96 138.9 132.1 144.14 126.89 C146.58 124.39 148.87 121.75 151 119 C151.11 118.85 151.23 118.71 151.34 118.56 C152.52 117.01 153.33 115.79 153.12 113.81 C153.12 113.64 153.11 113.46 153.1 113.28 C153.07 112.85 153.04 112.42 153 112 C149.86 111.18 148.83 113.14 147.24 115.45 Z M69 136 C70.48 139.59 70.48 139.59 71.66 140.52 C73.84 141.4 75.87 140.7 78 140 C77.95 140.16 77.91 140.31 77.86 140.47 C76.59 145.05 76.59 145.05 77.3 146.68 C77.71 147.31 78.16 147.9 78.62 148.5 C80.04 150.41 80.04 150.41 79.95 151.72 C78.81 155.94 75.11 159.49 71.47 161.73 C67.71 163.88 63.95 164.38 59.69 164.62 C59.13 164.66 58.58 164.7 58.02 164.74 C56.68 164.84 55.34 164.92 54 165 C57.63 169.31 57.63 169.31 60.01 169.57 C60.72 169.61 61.41 169.6 62.12 169.56 C62.22 169.56 62.22 169.56 62.7 169.55 C69.52 169.4 75.82 165.1 81 161 C83.2 162.03 85.29 163.15 87.33 164.47 C97.11 170.8 97.11 170.8 102 170 C104.47 169.36 106.77 168.22 109 167 C109 166.34 109 165.68 109 165 C108.68 164.99 108.36 164.98 108.03 164.97 C100.9 164.73 94.96 164.1 89 160 C88.77 159.85 88.54 159.69 88.3 159.54 C85.98 157.93 84.88 156.24 84.28 153.48 C83.8 150.59 83.92 148.4 85.23 145.78 C86.32 143.56 86.19 141.42 86 139 C86.17 139.16 86.34 139.31 86.52 139.47 C88.42 141 88.42 141 89.53 141 C90.76 140.81 91.81 140.41 93 140 C93.33 138.68 93.66 137.36 94 136 C90.32 134.14 87.08 133.68 82.97 133.74 C82.07 133.75 81.16 133.74 80.26 133.73 C76.19 133.72 72.77 134.46 69 136 Z M41 143 C41.33 143.99 41.66 144.98 42 146 C49.92 146 57.84 146 66 146 C65.67 145.01 65.34 144.02 65 143 C60.6 142.08 56.3 141.84 51.82 141.87 C50.92 141.88 50.02 141.87 49.11 141.87 C48.4 141.86 47.7 141.86 46.99 141.87 C46.5 141.87 46.01 141.86 45.51 141.86 C43.72 141.88 42.52 142.04 41 143 Z M98 143 C98 143.99 98 144.98 98 146 C100.83 146.02 103.67 146.04 106.5 146.05 C107.82 146.06 109.13 146.06 110.45 146.08 C111.72 146.09 112.99 146.09 114.26 146.09 C114.75 146.1 115.23 146.1 115.71 146.11 C116.39 146.11 117.07 146.11 117.75 146.11 C117.95 146.12 118.15 146.12 118.36 146.12 C119.81 146.11 120.74 145.72 122 145 C121.67 144.01 121.34 143.02 121 142 C118.59 141.98 116.18 141.96 113.78 141.95 C112.66 141.94 111.54 141.94 110.42 141.92 C109.34 141.91 108.25 141.91 107.17 141.91 C106.76 141.9 106.35 141.9 105.94 141.89 C103.14 141.86 100.68 142.19 98 143 Z M41 150 C41 150.66 41 151.32 41 152 C48.59 152 56.18 152 64 152 C64 151.34 64 150.68 64 150 C56.41 150 48.82 150 41 150 Z M99 150 C99 150.66 99 151.32 99 152 C100.82 153.15 102.41 153.15 104.52 153.13 C104.86 153.13 105.21 153.13 105.55 153.14 C106.27 153.14 106.99 153.14 107.71 153.13 C108.62 153.12 109.53 153.13 110.44 153.13 C114.38 153.16 118.16 153.02 122 152 C122 151.34 122 150.68 122 150 C114.41 150 106.82 150 99 150 Z M43 158 C43.55 158.68 43.85 158.97 44.73 159.12 C45.01 159.12 45.29 159.12 45.58 159.11 C45.74 159.11 45.74 159.11 46.55 159.11 C46.9 159.11 47.25 159.1 47.6 159.1 C47.95 159.1 48.31 159.09 48.67 159.09 C49.61 159.09 50.55 159.08 51.49 159.07 C52.44 159.06 53.4 159.05 54.36 159.05 C56.24 159.04 58.12 159.02 60 159 C59.67 158.01 59.34 157.02 59 156 C57.36 155.95 55.73 155.91 54.09 155.89 C53.54 155.88 52.98 155.87 52.43 155.85 C48.78 155.74 46.09 155.96 43 158 Z M103 157 C103 157.66 103 158.32 103 159 C104.78 159.17 106.56 159.33 108.33 159.48 C108.94 159.54 109.54 159.59 110.14 159.65 C113.62 159.98 116.67 160.22 120 159 C120 158.34 120 157.68 120 157 C117.33 156.2 114.86 155.84 112.07 155.87 C111.5 155.87 110.93 155.87 110.36 155.86 C107.77 155.86 105.47 156.26 103 157 Z M68 172 C67.78 174.55 67.78 174.55 68.25 175.5 C68.63 175.92 69.02 176.24 69.5 176.56 C69.59 176.62 69.59 176.62 70.03 176.93 C75.11 180.13 81.6 180.6 87.37 179.45 C90.56 178.7 93.33 176.84 96 175 C96 174.01 96 173.02 96 172 C95.31 172.12 94.62 172.25 93.94 172.38 C93.71 172.42 93.49 172.46 93.26 172.5 C91.94 172.76 90.69 173.09 89.43 173.55 C82.18 176.1 75.1 174.38 68 172 Z " fill="#000000" transform="translate(476,164)"/>
<path d="M0 0 C0.03 0.23 0.07 0.47 0.1 0.7 C1.8 12.01 3.77 23.23 6.88 34.25 C6.94 34.49 7.01 34.73 7.08 34.98 C9.25 42.66 11.71 50.25 14.19 57.84 C14.43 58.55 14.66 59.26 14.89 59.96 C16.36 64.46 17.84 68.96 19.34 73.45 C26.34 94.31 31.45 114.57 31.38 136.75 C31.37 137.25 31.37 137.75 31.37 138.26 C31.36 152.08 29.84 165.46 27 179 C26.9 179.48 26.8 179.97 26.7 180.45 C22.66 199.82 15.26 218.09 7.83 236.35 C-1.04 258.18 -6.89 280.7 -22.88 396.24 C-22.9 396.47 -22.91 396.7 -22.93 396.94 C-23.29 401.58 -23.64 406.23 -23.96 410.88 C-24.06 412.29 -24.16 413.7 -24.26 415.11 C-24.35 416.23 -24.42 417.34 -24.5 418.46 C-24.53 418.97 -24.57 419.49 -24.6 420 C-24.65 420.62 -24.69 421.24 -24.73 421.86 C-24.74 421.99 -24.74 421.99 -24.79 422.68 C-24.81 422.91 -24.82 423.14 -24.84 423.38 C-25.04 424.17 -25.37 424.49 -26 425 C-26.64 425.13 -26.64 425.13 -27.38 425.13 C-27.65 425.13 -27.93 425.14 -28.22 425.14 C-28.37 425.14 -28.37 425.14 -29.14 425.13 C-29.46 425.13 -29.78 425.14 -30.11 425.14 C-30.97 425.14 -31.84 425.14 -32.71 425.13 C-33.25 425.13 -33.79 425.12 -34.33 425.12 C-41.25 425.11 -48.1 424.64 -55 424 C-56.19 407.95 -56.16 391.88 -56.13 375.8 C-56.12 373.02 -56.13 370.25 -56.13 367.48 C-56.14 364.21 -56.14 360.93 -56.13 357.66 C-56.13 357.3 -56.13 356.95 -56.13 356.6 C-56.13 356.51 -56.13 356.51 -56.13 356.08 C-56.13 354.89 -56.13 353.7 -56.14 352.51 C-56.16 340.43 -56.16 340.43 -55.73 334.98 C-55.7 334.56 -55.67 334.15 -55.65 333.74 C-55.45 330.43 -54.16 328.47 -52 326 C-51.72 326.13 -51.43 326.25 -51.14 326.38 C-50.98 326.46 -50.82 326.53 -50.66 326.6 C-48.22 327.7 -46.51 329.21 -44.69 331.12 C-44.39 331.43 -44.09 331.74 -43.79 332.05 C-39.92 336.03 -36.26 340.23 -32.74 344.53 C-32.21 345.18 -31.67 345.83 -31.13 346.47 C-30.76 346.92 -30.4 347.38 -30.04 347.83 C-29.81 348.1 -29.59 348.38 -29.36 348.65 C-29.17 348.89 -28.98 349.13 -28.78 349.37 C-27.78 350.36 -26.31 350.63 -25 351 C-26.83 345.6 -29.44 341.94 -33.41 337.91 C-34.09 337.21 -34.76 336.51 -35.43 335.8 C-35.7 335.52 -35.97 335.23 -36.24 334.95 C-36.3 334.88 -36.3 334.88 -36.64 334.53 C-37.03 334.12 -37.43 333.7 -37.82 333.29 C-39.87 331.15 -41.84 328.96 -43.75 326.69 C-43.87 326.54 -44 326.4 -44.12 326.25 C-44.75 325.5 -45.38 324.75 -46 324 C-44.78 321.27 -43.36 318.97 -41.4 316.71 C-40.99 316.24 -40.6 315.77 -40.21 315.29 C-39.95 314.99 -39.7 314.69 -39.44 314.39 C-39.32 314.25 -39.21 314.11 -39.09 313.96 C-38.6 313.42 -38.2 313.03 -37.47 312.91 C-36.91 312.91 -36.91 312.91 -36 313 C-35.91 312.77 -35.81 312.53 -35.72 312.29 C-34.42 309.29 -32.46 307.19 -30.2 304.85 C-25.95 300.42 -22.09 295.72 -18.42 290.79 C-18.07 290.32 -17.71 289.85 -17.36 289.39 C-13.04 283.72 -10.64 277.93 -9 271 C-9.66 271 -10.32 271 -11 271 C-11.09 271.21 -11.18 271.43 -11.28 271.64 C-12.83 275.07 -15.04 278.07 -17.23 281.11 C-17.57 281.57 -17.9 282.03 -18.23 282.5 C-25.76 292.97 -34.13 302.65 -43 312 C-43.22 312.23 -43.44 312.47 -43.67 312.71 C-44.93 314.03 -46.2 315.35 -47.48 316.65 C-47.86 317.05 -48.25 317.44 -48.63 317.84 C-49.16 318.38 -49.69 318.92 -50.22 319.45 C-50.37 319.61 -50.53 319.77 -50.68 319.93 C-51.48 320.71 -51.97 321.09 -53.11 321.1 C-53.4 321.06 -53.7 321.03 -54 321 C-53.49 304.29 -49.5 289.94 -41.25 275.45 C-40.85 274.73 -40.45 274.02 -40.05 273.3 C-30.2 255.84 -16.89 239.21 -2.4 225.38 C-0.56 223.63 1.24 221.84 3 220 C3.22 219.77 3.45 219.54 3.68 219.31 C7.06 215.8 8.7 212.93 9 208 C3.98 212.17 -0.77 216.56 -5.38 221.19 C-5.54 221.35 -5.7 221.51 -5.87 221.68 C-11.45 227.27 -16.63 233.01 -21.45 239.28 C-22.04 240.05 -22.63 240.81 -23.23 241.57 C-28.71 248.56 -34 255.65 -39 263 C-40.24 259.61 -39.86 256.82 -39.21 253.33 C-39.12 252.77 -39.02 252.22 -38.92 251.66 C-38.66 250.17 -38.39 248.67 -38.11 247.18 C-37.94 246.24 -37.76 245.3 -37.59 244.36 C-32.77 218.04 -25.64 192.39 10.71 118.73 C11.09 118.07 11.46 117.42 11.83 116.77 C12.08 116.35 12.32 115.92 12.56 115.5 C12.62 115.39 12.62 115.39 12.92 114.87 C13.65 113.61 14.38 112.36 15.11 111.11 C15.59 110.3 16.06 109.48 16.53 108.67 C16.74 108.29 16.96 107.92 17.19 107.55 C19.27 104.07 19.64 101.06 19 97 C18.34 96.67 17.68 96.34 17 96 C16.92 96.31 16.85 96.61 16.77 96.93 C15.24 102.41 12.29 107.27 9.55 112.22 C8.82 113.55 8.1 114.88 7.37 116.21 C4.8 120.93 2.2 125.64 -0.41 130.34 C-12.62 152.37 -23.1 174.61 -43.31 253.12 C-43.35 253.37 -43.39 253.62 -43.44 253.87 C-43.71 255.52 -43.98 257.17 -44.24 258.82 C-44.27 259.04 -44.31 259.27 -44.35 259.5 C-44.71 261.77 -45.03 264.02 -45.16 266.32 C-45.51 272.16 -47.36 276.53 -50.06 281.68 C-51.26 283.96 -52.37 286.27 -53.49 288.59 C-53.6 288.82 -53.71 289.05 -53.83 289.29 C-62.79 308 -64.58 329.84 -65.61 360.26 C-65.63 360.88 -65.64 361.5 -65.66 362.12 C-66.03 375.36 -66 388.53 -65.37 401.77 C-65.01 409.54 -65 417.19 -65 425 C-76.88 425 -88.76 425 -101 425 C-102.16 419.77 -103.31 414.58 -104.25 409.32 C-104.36 408.71 -104.47 408.09 -104.58 407.48 C-104.82 406.19 -105.05 404.89 -105.28 403.59 C-105.62 401.69 -105.97 399.78 -106.31 397.88 C-106.88 394.75 -107.44 391.62 -108 388.5 C-108.04 388.31 -108.07 388.12 -108.1 387.93 C-108.47 385.88 -108.84 383.84 -109.21 381.79 C-109.31 381.24 -109.41 380.69 -109.51 380.14 C-109.57 379.77 -109.64 379.41 -109.7 379.04 C-110.06 377.04 -110.42 375.04 -110.79 373.04 C-110.89 372.5 -110.98 371.96 -111.08 371.41 C-111.15 371.05 -111.21 370.69 -111.28 370.33 C-111.67 368.18 -112.05 366.03 -112.43 363.88 C-112.77 361.94 -113.11 360.01 -113.46 358.07 C-113.49 357.9 -113.52 357.73 -113.55 357.55 C-114.4 352.82 -115.4 348.16 -116.59 343.5 C-116.82 342.63 -117.03 341.75 -117.24 340.87 C-117.28 340.73 -117.28 340.73 -117.45 340.02 C-117.58 339.46 -117.72 338.9 -117.85 338.35 C-118.17 337.03 -118.51 335.72 -118.9 334.42 C-121.07 327.14 -121.07 327.14 -119.66 324.33 C-118.6 322.61 -117.28 321.17 -115.85 319.75 C-115.75 319.65 -115.75 319.65 -115.24 319.14 C-112.14 316.13 -112.14 316.13 -110.42 315.93 C-108.28 316.07 -106.29 317.19 -104.69 318.56 C-104.59 318.64 -104.59 318.64 -104.11 319.05 C-102.33 320.62 -100.81 322.32 -99.28 324.12 C-95.64 328.39 -91.77 332.42 -87.8 336.38 C-86.91 337.28 -86.03 338.17 -85.14 339.07 C-84.45 339.78 -83.75 340.48 -83.05 341.18 C-82.72 341.51 -82.39 341.84 -82.07 342.18 C-80.21 344.07 -78.7 345.48 -76 346 C-77.8 341.63 -80.09 338.53 -83.53 335.3 C-84.65 334.25 -85.75 333.18 -86.85 332.1 C-87.1 331.86 -87.34 331.62 -87.59 331.38 C-89.92 329.12 -92.07 326.75 -94.16 324.27 C-95.69 322.46 -97.24 320.73 -98.95 319.09 C-99.11 318.94 -99.27 318.78 -99.44 318.62 C-100.21 317.88 -100.99 317.15 -101.78 316.43 C-103.31 315.02 -104.99 313.31 -105.21 311.14 C-105.04 308.66 -102.26 306.6 -100.58 304.94 C-99.3 303.68 -98.06 302.38 -96.82 301.08 C-96.54 300.78 -96.25 300.48 -95.96 300.18 C-92.9 296.97 -90.14 293.57 -87.44 290.06 C-87.33 289.92 -87.21 289.77 -87.1 289.62 C-86.07 288.29 -85.05 286.96 -84.03 285.63 C-82.59 283.75 -81.12 281.9 -79.63 280.06 C-70.32 268.59 -61.98 256.41 -54.57 243.63 C-54.32 243.2 -54.06 242.76 -53.81 242.33 C-53.34 241.53 -52.88 240.73 -52.43 239.92 C-52.29 239.69 -52.16 239.47 -52.03 239.24 C-49.68 234.96 -49.89 230.08 -50.05 225.35 C-50.07 224.48 -50.09 223.6 -50.11 222.72 C-50.14 221.59 -50.17 220.46 -50.2 219.33 C-50.27 216.53 -50.33 213.72 -50.37 210.92 C-50.38 210.71 -50.38 210.51 -50.38 210.3 C-50.41 208.62 -50.43 206.93 -50.46 205.25 C-50.48 203.74 -50.5 202.23 -50.53 200.72 C-50.53 200.51 -50.54 200.29 -50.54 200.07 C-50.6 196.6 -50.69 193.14 -50.79 189.68 C-50.9 186.1 -50.97 182.51 -50.99 178.93 C-51.01 176.93 -51.05 174.93 -51.13 172.93 C-51.51 163.96 -50.96 157.59 -44.71 150.75 C-43.53 149.49 -42.32 148.26 -41.08 147.06 C-38.88 144.92 -36.94 142.62 -35.04 140.21 C-34.5 139.53 -33.96 138.86 -33.41 138.19 C-33.08 137.79 -32.75 137.39 -32.43 136.98 C-31.02 135.25 -29.6 133.52 -28.18 131.8 C-20.54 122.6 -13.32 113.18 -6.42 103.41 C-4.79 101.11 -3.14 98.81 -1.49 96.52 C-0.53 95.19 0.43 93.85 1.38 92.52 C2.03 91.62 2.67 90.73 3.31 89.84 C5.8 86.42 8.16 82.96 10.13 79.22 C10.31 78.87 10.49 78.53 10.68 78.19 C11.56 76.57 12.23 75.21 11.72 73.33 C11.29 72.33 10.91 71.81 9.94 71.31 C9.63 71.21 9.32 71.11 9 71 C8.9 71.3 8.79 71.6 8.69 71.9 C7.4 75.42 5.61 78.36 3.5 81.44 C3.15 81.96 2.79 82.48 2.44 83 C1.3 84.68 0.15 86.34 -1 88 C-1.1 88.14 -1.19 88.28 -1.29 88.42 C-12.12 103.97 -23.42 119.36 -40.44 139.62 C-40.56 139.77 -40.69 139.92 -40.82 140.07 C-41.55 140.93 -42.29 141.79 -43.03 142.64 C-43.35 143.02 -43.68 143.39 -44 143.77 C-45.9 145.95 -47.94 147.97 -50 150 C-52.55 125.87 -52.55 125.87 -44.81 116.22 C-44.67 116.05 -44.52 115.87 -44.38 115.69 C-44.23 115.51 -44.08 115.33 -43.93 115.14 C-42.58 113.48 -41.19 111.84 -39.78 110.23 C-36.6 106.61 -33.87 102.74 -31.15 98.77 C-30.48 97.79 -29.79 96.81 -29.11 95.82 C-28.2 94.51 -27.28 93.19 -26.37 91.87 C-24.37 88.97 -22.36 86.08 -20.33 83.2 C-17.6 79.3 -14.88 75.4 -12.18 71.48 C-10.73 69.38 -9.28 67.28 -7.81 65.2 C-6.54 63.4 -5.29 61.6 -4.05 59.79 C-3.41 58.84 -2.76 57.91 -2.1 56.98 C2.37 50.76 2.37 50.76 1.97 46.95 C1.74 45.6 1.43 44.3 1 43 C-5.48 46.31 -11.57 49.97 -17.56 54.06 C-23.16 57.89 -28.79 61.23 -35 64 C-33.63 60.66 -31.69 58.44 -29.11 55.95 C-28.73 55.57 -28.34 55.2 -27.96 54.82 C-26.95 53.82 -25.94 52.83 -24.93 51.85 C-23.13 50.1 -21.34 48.34 -19.55 46.58 C-19.45 46.48 -19.45 46.48 -18.96 46 C-15.9 42.98 -13 39.85 -10.22 36.57 C-8.95 35.06 -7.69 33.63 -6.2 32.34 C-6.01 32.17 -5.82 31.99 -5.62 31.81 C-5.56 31.75 -5.56 31.75 -5.22 31.44 C-3.98 30.21 -3.66 29.09 -3.4 27.39 C-3.36 27.16 -3.32 26.93 -3.28 26.69 C-3.18 26.13 -3.09 25.56 -3 25 C-8.08 29.19 -12.81 33.71 -17.47 38.37 C-17.61 38.51 -17.75 38.66 -17.9 38.8 C-19.65 40.56 -21.41 42.32 -23.16 44.08 C-24.67 45.61 -26.18 47.13 -27.7 48.65 C-30.8 51.76 -33.9 54.88 -37 58 C-37.45 57.36 -37.79 56.75 -38 56 C-37.85 55.2 -37.45 54.58 -37.02 53.89 C-36.9 53.68 -36.78 53.48 -36.66 53.27 C-36.27 52.6 -35.86 51.93 -35.46 51.26 C-35.17 50.78 -34.89 50.3 -34.61 49.82 C-33.85 48.52 -33.07 47.22 -32.3 45.93 C-31.49 44.58 -30.69 43.23 -29.88 41.87 C-28.57 39.65 -27.25 37.44 -25.93 35.23 C-24.29 32.49 -22.66 29.74 -21.04 26.99 C-12.3 12.19 -12.3 12.19 -7.94 5.88 C-7.8 5.68 -7.67 5.48 -7.53 5.28 C-5.59 2.45 -3.69 -0.07 0 0 Z M18.12 133.91 C17.96 134.12 17.79 134.33 17.62 134.54 C17.07 135.23 16.54 135.93 16 136.62 C15.62 137.11 15.23 137.6 14.85 138.09 C14.23 138.87 13.62 139.66 13.01 140.44 C11.61 142.25 10.17 144.01 8.71 145.77 C7.8 146.86 6.91 147.95 6.01 149.05 C5.38 149.82 4.75 150.58 4.11 151.34 C-0.16 156.41 -0.16 156.41 -0.08 158.3 C0.11 159.31 0.47 160.13 1 161 C4.79 159.63 6.77 157.19 9.19 154.06 C9.77 153.32 10.35 152.59 10.94 151.85 C11.34 151.34 11.74 150.83 12.14 150.32 C13.58 148.5 15.07 146.75 16.59 145 C17.21 144.28 17.83 143.55 18.46 142.82 C18.86 142.36 19.26 141.91 19.67 141.45 C23.34 137.35 23.34 137.35 23.25 134.18 C23.2 133.44 23.11 132.73 23 132 C20.62 131.73 19.56 131.99 18.12 133.91 Z M15.55 158.38 C15.32 158.63 15.1 158.88 14.88 159.13 C14.4 159.66 13.94 160.19 13.47 160.73 C12.74 161.57 12.01 162.4 11.26 163.23 C11.14 163.37 11.02 163.51 10.89 163.65 C10.64 163.93 10.4 164.2 10.15 164.48 C9.78 164.89 9.41 165.31 9.05 165.72 C7.19 167.81 5.26 169.81 3.25 171.75 C0.08 174.85 -2.84 178.14 -5.71 181.51 C-6.57 182.52 -7.46 183.5 -8.36 184.47 C-8.94 185.1 -9.52 185.73 -10.09 186.36 C-10.36 186.66 -10.63 186.95 -10.91 187.24 C-11.74 188.1 -12.49 188.91 -13 190 C-12.91 191.15 -12.53 191.99 -12 193 C-8.57 191.6 -6.25 189.55 -3.67 186.94 C-3.27 186.54 -2.88 186.15 -2.48 185.75 C-1.65 184.93 -0.83 184.1 -0.01 183.27 C1.04 182.21 2.1 181.15 3.17 180.1 C3.99 179.29 4.8 178.47 5.62 177.65 C6.01 177.26 6.4 176.87 6.79 176.48 C7.33 175.94 7.87 175.4 8.41 174.85 C8.57 174.69 8.74 174.53 8.9 174.37 C9.69 173.56 10.09 173.04 10.1 171.88 C10.07 171.59 10.03 171.3 10 171 C10.3 171.03 10.59 171.07 10.9 171.1 C11.55 171.1 11.9 171.07 12.44 170.7 C12.87 170.26 13.27 169.8 13.66 169.32 C13.8 169.15 13.95 168.97 14.1 168.8 C14.57 168.24 15.04 167.68 15.5 167.12 C15.96 166.58 16.43 166.03 16.89 165.48 C17.19 165.12 17.49 164.77 17.79 164.41 C18.55 163.5 19.32 162.69 20.21 161.91 C20.95 161.2 21.13 160.73 21.2 159.71 C21.18 159.27 21.16 158.82 21.12 158.38 C21.12 158.15 21.11 157.92 21.1 157.68 C21.07 157.12 21.04 156.56 21 156 C18.31 155.6 17.25 156.36 15.55 158.38 Z M11.67 184.19 C11.54 184.32 11.41 184.45 11.28 184.58 C10.84 185.02 10.4 185.45 9.96 185.89 C9.65 186.2 9.34 186.51 9.02 186.82 C8.17 187.67 7.32 188.51 6.47 189.36 C5.94 189.89 5.41 190.42 4.87 190.95 C3.02 192.8 1.16 194.65 -0.69 196.51 C-2.42 198.23 -4.15 199.95 -5.88 201.67 C-7.37 203.15 -8.86 204.63 -10.34 206.11 C-11.22 206.99 -12.11 207.88 -13 208.76 C-13.84 209.59 -14.67 210.42 -15.5 211.26 C-15.8 211.56 -16.11 211.86 -16.42 212.17 C-19.95 215.64 -19.95 215.64 -20 218 C-19.72 218.7 -19.38 219.35 -19 220 C-16.14 218.74 -13.99 217.29 -11.78 215.1 C-11.48 214.81 -11.18 214.52 -10.88 214.24 C-10.08 213.46 -9.29 212.68 -8.5 211.9 C-8.01 211.41 -7.51 210.93 -7.02 210.44 C-5.46 208.91 -3.9 207.37 -2.36 205.83 C-0.58 204.06 1.21 202.31 3.02 200.56 C4.42 199.21 5.81 197.84 7.19 196.46 C8.01 195.64 8.83 194.83 9.67 194.02 C14.76 189.14 14.76 189.14 15.16 187.21 C15.16 185.65 14.72 184.38 14 183 C12.72 183 12.56 183.31 11.67 184.19 Z M-110 330 C-109.94 334.55 -107.49 337.07 -104.42 340.08 C-104.13 340.36 -103.84 340.64 -103.55 340.93 C-102.79 341.66 -102.05 342.4 -101.31 343.15 C-100.07 344.39 -98.81 345.63 -97.55 346.86 C-96.1 348.28 -94.66 349.71 -93.23 351.14 C-91.7 352.68 -90.15 354.21 -88.61 355.73 C-88.17 356.17 -87.73 356.61 -87.29 357.05 C-86.59 357.74 -85.9 358.42 -85.19 359.11 C-84.94 359.35 -84.69 359.61 -84.43 359.86 C-82.77 361.53 -81.31 362.46 -79 363 C-78.48 361.71 -77.98 360.41 -78 359 C-78.59 357.71 -79.54 356.87 -80.57 355.94 C-80.85 355.67 -81.13 355.39 -81.41 355.12 C-82.15 354.4 -82.91 353.69 -83.67 352.99 C-84.42 352.29 -85.15 351.58 -85.89 350.87 C-87.05 349.75 -88.21 348.65 -89.37 347.54 C-92.23 344.84 -95 342.05 -97.72 339.21 C-98.66 338.24 -99.61 337.26 -100.56 336.29 C-101.16 335.67 -101.76 335.05 -102.35 334.43 C-103.05 333.69 -103.76 332.96 -104.48 332.23 C-104.69 332.01 -104.9 331.78 -105.11 331.55 C-106.27 330.39 -106.99 329.87 -108.66 329.86 C-109.11 329.9 -109.55 329.94 -110 330 Z M-48 342 C-48.66 343.28 -49.16 344.53 -49 346 C-48.15 348.01 -46.49 349.64 -45.06 351.25 C-44.65 351.74 -44.23 352.22 -43.82 352.71 C-40.53 356.55 -37.03 360.18 -33.38 363.67 C-31.56 365.42 -29.78 367.21 -28 369 C-27.34 367.68 -26.68 366.36 -26 365 C-26.24 364.74 -26.47 364.48 -26.72 364.21 C-30.77 359.72 -34.82 355.23 -38.81 350.69 C-38.96 350.52 -39.1 350.36 -39.25 350.19 C-40.63 348.63 -41.98 347.05 -43.25 345.39 C-43.43 345.16 -43.62 344.92 -43.81 344.67 C-44.13 344.24 -44.45 343.81 -44.76 343.37 C-44.9 343.19 -45.03 343 -45.18 342.81 C-45.29 342.65 -45.4 342.5 -45.52 342.33 C-46.3 341.79 -47.06 341.95 -48 342 Z M-108 349 C-108.59 349.99 -108.93 350.84 -109 352 C-108.3 353.4 -107.24 354.44 -106.16 355.56 C-105.84 355.9 -105.53 356.25 -105.21 356.6 C-104.34 357.54 -103.45 358.48 -102.56 359.41 C-101.99 360.01 -101.43 360.61 -100.87 361.21 C-98.69 363.55 -96.49 365.86 -94.25 368.14 C-93.2 369.22 -92.15 370.3 -91.11 371.4 C-90.08 372.48 -89.04 373.55 -87.99 374.61 C-87.6 375.02 -87.21 375.42 -86.83 375.83 C-83.96 378.92 -83.96 378.92 -82.32 379.06 C-80.81 378.95 -79.41 378.55 -78 378 C-82.97 371.85 -88.53 366.28 -94.12 360.7 C-95.14 359.68 -96.15 358.65 -97.16 357.63 C-98.15 356.63 -99.14 355.63 -100.14 354.63 C-100.73 354.05 -101.31 353.45 -101.9 352.86 C-102.54 352.2 -103.2 351.56 -103.85 350.91 C-103.94 350.81 -103.94 350.81 -104.42 350.32 C-105.89 348.89 -105.89 348.89 -107.13 348.88 C-107.28 348.9 -107.28 348.9 -108 349 Z M-49 360 C-49.66 361.28 -50.15 362.53 -50 364 C-49.18 365.99 -47.53 367.6 -46.12 369.19 C-45.71 369.67 -45.3 370.15 -44.89 370.63 C-43.83 371.86 -42.74 373.07 -41.65 374.28 C-41.01 374.99 -40.38 375.69 -39.75 376.4 C-38.77 377.5 -37.77 378.58 -36.76 379.65 C-36.38 380.05 -36.01 380.45 -35.64 380.86 C-32.83 383.92 -32.83 383.92 -31.43 384.06 C-30.18 383.95 -29.14 383.5 -28 383 C-29.3 380.04 -30.86 377.8 -33.08 375.47 C-33.38 375.15 -33.68 374.83 -33.98 374.51 C-34.6 373.84 -35.23 373.17 -35.86 372.51 C-36.65 371.67 -37.43 370.83 -38.22 369.99 C-41.59 366.35 -44.96 362.91 -49 360 Z " fill="#000000" transform="translate(611,336)"/>
<path d="M0 0 C1.82 -0.13 3.39 0.08 5 1 C6.04 1.96 6.85 3.05 7.66 4.19 C7.79 4.36 7.91 4.53 8.04 4.7 C11.93 10.02 15.14 15.81 18.42 21.5 C19.45 23.28 20.48 25.05 21.51 26.83 C21.88 27.48 22.26 28.12 22.64 28.77 C22.68 28.85 22.68 28.85 22.92 29.26 C23.48 30.22 24.03 31.18 24.59 32.14 C26.69 35.77 28.81 39.39 30.98 42.98 C31.36 43.6 31.73 44.22 32.1 44.83 C32.34 45.22 32.57 45.61 32.81 46 C32.86 46.1 32.86 46.1 33.15 46.57 C33.79 47.63 34.44 48.69 35.09 49.75 C35.48 50.39 35.86 51.03 36.24 51.67 C36.5 52.09 36.76 52.51 37.02 52.92 C38.07 54.69 38.07 54.69 37.87 55.62 C37.62 56.13 37.36 56.56 37 57 C34.81 54.84 32.62 52.67 30.44 50.5 C30.28 50.34 30.11 50.18 29.95 50.01 C22.46 42.56 22.46 42.56 19.31 38.81 C16.54 35.51 13.55 32.43 10.5 29.38 C10.13 29 9.75 28.62 9.37 28.24 C8.67 27.53 7.97 26.83 7.26 26.12 C7.04 25.91 6.83 25.69 6.61 25.47 C6.41 25.28 6.22 25.08 6.01 24.88 C5.93 24.8 5.93 24.8 5.49 24.36 C5 24 5 24 4 24 C3.51 28.43 3.51 28.43 4.53 29.97 C5.28 30.9 6.15 31.69 7.04 32.49 C7.35 32.79 7.67 33.1 7.99 33.41 C8.65 34.06 9.33 34.7 10.01 35.33 C11.07 36.32 12.12 37.33 13.16 38.34 C13.25 38.42 13.25 38.42 13.69 38.84 C14.03 39.18 14.38 39.51 14.72 39.85 C15.23 40.34 15.74 40.83 16.26 41.33 C18.57 43.55 20.76 45.84 22.81 48.31 C26.88 53.18 31.47 57.56 36 62 C35.25 62.63 34.95 62.87 34 63 C32.62 62.47 31.44 61.64 30.21 60.82 C29.83 60.58 29.45 60.34 29.07 60.09 C28.26 59.57 27.45 59.05 26.64 58.52 C25.37 57.68 24.09 56.86 22.82 56.04 C21.07 54.92 19.32 53.8 17.58 52.67 C14.25 50.51 10.91 48.36 7.56 46.24 C6.53 45.59 5.5 44.93 4.48 44.27 C3.85 43.86 3.21 43.45 2.57 43.05 C2.14 42.78 1.72 42.5 1.29 42.22 C-0.54 41.07 -1.86 40.8 -4 41 C-4.64 42.24 -5.19 43.38 -4.77 44.76 C-4.31 45.6 -3.8 46.37 -3.25 47.15 C-3.05 47.45 -2.85 47.75 -2.65 48.06 C-2.11 48.88 -1.55 49.69 -0.99 50.51 C-0.39 51.37 0.19 52.25 0.78 53.13 C1.77 54.61 2.77 56.08 3.77 57.56 C5.16 59.58 6.52 61.61 7.89 63.64 C13.58 72.12 19.43 80.49 25.4 88.77 C26.88 90.84 28.36 92.91 29.83 94.99 C30.17 95.48 30.52 95.97 30.87 96.46 C31.91 97.94 32.95 99.42 33.97 100.91 C34.61 101.83 35.24 102.75 35.88 103.67 C36.01 103.85 36.13 104.03 36.26 104.22 C38.05 106.78 39.95 109.17 42 111.52 C43.28 113 44.53 114.52 45.75 116.06 C45.82 116.15 45.82 116.15 46.15 116.57 C53.55 126.02 52.15 137.66 51 149 C47.49 146.41 44.68 143.67 42 140.25 C41.62 139.78 41.24 139.3 40.86 138.83 C40.25 138.06 39.63 137.29 39.01 136.52 C37.48 134.58 35.92 132.67 34.35 130.77 C27.45 122.4 20.78 113.89 14.34 105.17 C12.86 103.16 11.37 101.16 9.87 99.16 C8.25 96.98 6.62 94.81 5 92.62 C4.85 92.43 4.71 92.23 4.56 92.03 C1.09 87.36 -2.28 82.65 -5.48 77.79 C-5.62 77.58 -5.76 77.37 -5.91 77.15 C-7.25 75.11 -8.59 73.07 -9.9 71.01 C-10.37 70.27 -10.85 69.53 -11.34 68.79 C-11.56 68.45 -11.78 68.1 -11.99 67.76 C-12.29 67.28 -12.59 66.82 -12.89 66.35 C-13.06 66.09 -13.23 65.83 -13.4 65.56 C-14.07 64.94 -14.2 64.92 -15.07 64.92 C-15.38 64.94 -15.68 64.97 -16 65 C-15.91 71.07 -13.64 74.69 -10.09 79.4 C-9.4 80.32 -8.73 81.25 -8.06 82.17 C-6.66 84.09 -5.25 85.99 -3.83 87.89 C-3.03 88.95 -2.24 90.02 -1.45 91.09 C1.14 94.58 3.75 98.07 6.38 101.53 C8.13 103.83 9.85 106.14 11.56 108.47 C21.5 121.94 32.14 134.8 43.09 147.45 C43.44 147.85 43.8 148.26 44.15 148.67 C44.46 149.02 44.76 149.38 45.07 149.73 C45.47 150.19 45.86 150.65 46.24 151.12 C46.79 151.78 47.38 152.38 47.99 152.98 C51.29 156.41 51.6 159.6 51.57 164.18 C51.56 165.14 51.58 166.09 51.6 167.05 C51.63 168.92 51.64 170.78 51.64 172.65 C51.64 174.17 51.64 175.7 51.65 177.22 C51.68 182.03 51.69 186.85 51.68 191.66 C51.68 195.43 51.71 199.2 51.76 202.97 C51.81 206.86 51.83 210.75 51.82 214.65 C51.82 216.82 51.83 219 51.86 221.17 C52.03 231.87 51.41 239.55 44 248 C42.68 246.21 41.72 244.7 41.44 242.46 C41.4 242.22 41.37 241.98 41.33 241.74 C41.25 241.22 41.18 240.71 41.11 240.19 C40.99 239.36 40.86 238.52 40.73 237.68 C40.54 236.47 40.36 235.25 40.17 234.04 C36.54 210.34 30.03 187.21 21 165 C20.96 164.89 20.96 164.89 20.74 164.36 C12.37 143.81 1.39 124.27 -22 96 C-22.69 97.62 -23.23 99.22 -23 101 C-22.14 102.87 -20.53 104.33 -19.12 105.79 C-17.79 107.16 -16.55 108.6 -15.3 110.04 C-15.17 110.2 -15.03 110.35 -14.9 110.51 C0.36 128.19 11.84 151.48 33 219 C27.38 218.73 23.06 216.2 18.27 213.49 C17.62 213.12 16.96 212.75 16.3 212.39 C7.64 207.56 -0.56 202.19 -8.55 196.33 C-8.99 196 -9.43 195.68 -9.88 195.36 C-16.5 190.56 -22.81 185.45 -28.87 179.96 C-29.31 179.57 -29.75 179.17 -30.19 178.78 C-30.88 178.17 -31.56 177.55 -32.23 176.92 C-32.6 176.58 -32.98 176.25 -33.35 175.91 C-34.93 174.41 -34.93 174.41 -35.15 173.17 C-35.15 172.43 -35.11 171.73 -35 171 C-25.38 176.79 -15.84 182.68 -6.44 188.81 C-6.23 188.95 -6.03 189.08 -5.81 189.22 C-4.61 190 -3.41 190.79 -2.21 191.57 C-1.63 191.95 -1.04 192.33 -0.46 192.71 C1.31 193.87 3.07 195.04 4.81 196.26 C5.6 196.82 6.4 197.37 7.2 197.92 C7.58 198.18 7.95 198.45 8.32 198.71 C11.1 200.73 13.59 201.55 17 202 C13.74 198.5 10.38 195.68 6.38 193.07 C5.84 192.71 5.3 192.35 4.76 191.99 C3.48 191.14 2.19 190.29 0.9 189.44 C-0.15 188.75 -1.2 188.06 -2.24 187.37 C-11.91 180.97 -21.64 174.68 -31.45 168.5 C-32.06 168.12 -32.66 167.73 -33.27 167.35 C-35.24 166.11 -37.22 164.86 -39.2 163.63 C-40.2 163 -41.2 162.38 -42.19 161.75 C-42.67 161.45 -43.15 161.15 -43.63 160.86 C-50.87 156.37 -54.25 150.94 -57.81 143.38 C-57.85 143.29 -57.85 143.29 -58.05 142.88 C-59.86 139.02 -61.45 135.27 -62 131 C-56.97 132.34 -53.24 135.72 -49.27 138.91 C-47.67 140.19 -46.05 141.46 -44.44 142.73 C-43.82 143.21 -43.21 143.7 -42.59 144.19 C-38.93 147.07 -35.22 149.87 -31.48 152.64 C-27.12 155.88 -22.78 159.15 -18.49 162.51 C-18.4 162.58 -18.4 162.58 -17.92 162.96 C-16.95 163.71 -15.99 164.47 -15.03 165.22 C-14.64 165.52 -14.26 165.82 -13.88 166.12 C-13.78 166.2 -13.78 166.2 -13.3 166.57 C-6.03 172.27 1.41 177.72 9 183 C9.33 182.34 9.66 181.68 10 181 C6.67 177.55 3.2 174.36 -0.5 171.31 C-0.76 171.1 -1.02 170.88 -1.28 170.67 C-6.94 165.97 -12.77 161.49 -18.63 157.04 C-21.64 154.75 -24.65 152.45 -27.65 150.16 C-28.19 149.75 -28.72 149.34 -29.25 148.94 C-34.91 144.62 -40.54 140.27 -46.16 135.9 C-46.74 135.44 -47.32 134.99 -47.9 134.54 C-48.64 133.97 -49.38 133.39 -50.11 132.82 C-50.81 132.28 -51.5 131.74 -52.2 131.2 C-53.66 130.06 -55.11 128.92 -56.51 127.7 C-59.92 124.74 -59.92 124.74 -61.8 124.83 C-62.57 125 -62.57 125 -63.31 125.25 C-63.58 125.32 -63.84 125.38 -64.11 125.45 C-64.75 125.61 -65.37 125.79 -66 126 C-67.58 130.35 -66.45 133.79 -64.83 137.92 C-64.62 138.44 -64.42 138.97 -64.22 139.49 C-59.82 150.94 -51.89 164.37 -42.48 172.44 C-41.89 173.13 -41.87 173.45 -41.87 174.35 C-41.87 174.62 -41.87 174.89 -41.87 175.18 C-41.87 175.48 -41.87 175.78 -41.87 176.09 C-41.87 176.25 -41.87 176.25 -41.87 177.06 C-41.87 177.94 -41.87 178.83 -41.88 179.71 C-41.89 180.27 -41.89 180.84 -41.89 181.41 C-41.93 190.47 -42.32 199.52 -42.74 208.57 C-42.85 210.97 -42.96 213.36 -43.07 215.75 C-43.26 220.03 -43.46 224.31 -43.65 228.59 C-43.84 232.7 -44.03 236.82 -44.22 240.93 C-44.23 241.18 -44.24 241.44 -44.25 241.7 C-44.26 241.82 -44.26 241.82 -44.28 242.47 C-44.5 247.21 -44.71 251.96 -44.93 256.71 C-44.99 258.13 -45.06 259.55 -45.12 260.97 C-45.59 271.33 -46.1 281.67 -47 292 C-47.85 291.74 -48.33 291.56 -49 291 C-49.53 289.93 -49.77 288.78 -50.03 287.62 C-50.11 287.26 -50.2 286.9 -50.29 286.55 C-50.53 285.57 -50.76 284.58 -50.99 283.59 C-51.24 282.53 -51.5 281.46 -51.76 280.4 C-52.21 278.53 -52.66 276.67 -53.1 274.8 C-53.75 272.04 -54.41 269.29 -55.08 266.53 C-55.91 263.06 -56.75 259.58 -57.58 256.1 C-57.65 255.83 -57.71 255.56 -57.78 255.27 C-57.84 255 -57.91 254.72 -57.98 254.44 C-59.72 247.17 -61.48 239.9 -63.24 232.63 C-63.38 232.07 -63.52 231.51 -63.65 230.95 C-64.2 228.69 -64.75 226.43 -65.3 224.17 C-66.75 218.21 -68.2 212.25 -69.65 206.29 C-69.99 204.86 -70.34 203.44 -70.68 202.02 C-71.1 200.31 -71.51 198.6 -71.93 196.88 C-72.93 192.77 -73.92 188.65 -74.92 184.53 C-74.99 184.24 -75.07 183.94 -75.14 183.64 C-75.5 182.15 -75.86 180.67 -76.22 179.18 C-79.15 167.12 -82.07 155.06 -85 143 C-85.99 143 -86.98 143 -88 143 C-87.52 149.25 -86.67 155.23 -85.16 161.31 C-84.9 162.35 -84.65 163.38 -84.4 164.42 C-83.97 166.2 -83.53 167.99 -83.1 169.78 C-82.45 172.4 -81.81 175.03 -81.17 177.65 C-80.13 181.97 -79.08 186.29 -78.02 190.6 C-76.71 195.95 -75.41 201.29 -74.11 206.64 C-72.01 215.29 -69.9 223.94 -67.79 232.6 C-67.73 232.84 -67.67 233.07 -67.61 233.32 C-66.01 239.89 -64.4 246.45 -62.77 253.01 C-62.39 254.56 -62.01 256.1 -61.63 257.65 C-61.57 257.86 -61.52 258.08 -61.47 258.3 C-61.21 259.35 -60.95 260.41 -60.69 261.47 C-60.14 263.68 -59.59 265.89 -59.04 268.09 C-58.67 269.57 -58.31 271.05 -57.94 272.53 C-57.74 273.37 -57.53 274.22 -57.32 275.05 C-56.38 278.77 -55.75 282.16 -56 286 C-58.13 283.27 -59.96 280.49 -61.64 277.46 C-61.89 277.02 -62.14 276.57 -62.39 276.13 C-63.06 274.94 -63.73 273.75 -64.39 272.56 C-65.11 271.29 -65.82 270.01 -66.54 268.74 C-68.36 265.5 -70.18 262.25 -72 259 C-72.3 258.47 -72.6 257.93 -72.9 257.4 C-73.78 255.82 -74.66 254.24 -75.55 252.66 C-75.84 252.14 -76.13 251.61 -76.43 251.09 C-76.72 250.56 -77.01 250.04 -77.3 249.52 C-77.45 249.26 -77.59 249 -77.74 248.73 C-78.48 247.42 -79.22 246.1 -79.95 244.78 C-82.94 239.43 -85.94 234.09 -88.99 228.77 C-89.05 228.67 -89.05 228.67 -89.35 228.14 C-89.95 227.09 -90.55 226.05 -91.16 225 C-96.32 216.01 -101.37 206.96 -106.38 197.88 C-106.55 197.56 -106.72 197.25 -106.89 196.94 C-107.31 196.18 -107.73 195.42 -108.15 194.66 C-108.31 194.36 -108.48 194.06 -108.64 193.76 C-109.52 192.16 -110.4 190.56 -111.27 188.96 C-112.62 186.49 -113.97 184.03 -115.39 181.61 C-115.98 180.6 -116.55 179.6 -117.13 178.59 C-117.4 178.13 -117.67 177.67 -117.95 177.21 C-120.25 173.41 -120.25 173.41 -119.89 171.37 C-119.41 169.53 -118.5 167.94 -117.36 166.44 C-117.27 166.33 -117.27 166.33 -116.85 165.76 C-116.31 165.02 -115.75 164.29 -115.19 163.56 C-114.99 163.31 -114.8 163.05 -114.6 162.79 C-109.82 156.5 -104.46 150.74 -99 145.04 C-98.13 144.14 -97.27 143.22 -96.42 142.3 C-90.33 135.72 -83.15 130.36 -76 125 C-75.85 124.89 -75.71 124.78 -75.56 124.67 C-65.78 117.34 -55.55 110.84 -45.14 104.47 C-43.59 103.53 -42.04 102.57 -40.5 101.61 C-39.85 101.21 -39.19 100.81 -38.54 100.42 C-37.52 99.8 -36.55 99.14 -35.6 98.44 C-35.19 98.14 -34.77 97.85 -34.35 97.57 C-30.26 94.76 -29.32 91.45 -28.45 86.8 C-28.21 85.47 -27.99 84.13 -27.77 82.8 C-27.36 80.24 -26.88 77.71 -26.39 75.17 C-26.29 74.61 -26.18 74.04 -26.08 73.48 C-23.46 59.56 -17.63 48.25 -10.52 36.19 C-3.97 25.01 -1.64 12.72 0 0 Z M-46 113 C-46.35 114.58 -46.53 116.14 -45.65 117.58 C-44.42 119.13 -42.95 120.46 -41.5 121.81 C-41.04 122.25 -40.58 122.7 -40.12 123.14 C-37.11 126.04 -34.01 128.82 -30.83 131.53 C-28.46 133.56 -26.25 135.71 -24.07 137.94 C-21.7 140.36 -19.21 142.6 -16.63 144.8 C-14.53 146.58 -12.55 148.43 -10.63 150.41 C-10.43 150.61 -10.23 150.82 -10.03 151.03 C-9.06 152.03 -8.09 153.04 -7.15 154.07 C-4.95 156.39 -3.23 157.67 0 158 C0.35 156.61 0.46 155.37 0 154 C-0.64 153.11 -1.42 152.4 -2.22 151.66 C-2.68 151.22 -3.14 150.77 -3.6 150.33 C-3.83 150.11 -4.07 149.89 -4.31 149.66 C-5.35 148.66 -6.36 147.64 -7.37 146.62 C-7.77 146.21 -8.16 145.81 -8.56 145.41 C-8.66 145.31 -8.66 145.31 -9.17 144.8 C-10.52 143.44 -11.86 142.09 -13.21 140.74 C-14.37 139.57 -15.54 138.4 -16.7 137.23 C-21.47 132.41 -26.24 127.67 -31.39 123.27 C-33.14 121.77 -34.81 120.25 -36.39 118.57 C-36.47 118.48 -36.47 118.48 -36.88 118.04 C-37.5 117.38 -38.12 116.71 -38.72 116.03 C-41.45 112.99 -41.45 112.99 -43.12 112.78 C-44.1 112.74 -45.03 112.84 -46 113 Z " fill="#000000" transform="translate(504,337)"/>
<path d="M0 0 C1.71 0.48 3.38 1.05 5.05 1.66 C5.7 1.89 6.35 2.11 7 2.33 C9.72 3.22 13.12 4.35 14.63 6.96 C15.18 8.08 15.59 9.26 16 10.45 C16.17 10.89 16.33 11.33 16.5 11.77 C16.93 12.94 17.34 14.11 17.75 15.28 C18 15.99 18.25 16.7 18.5 17.41 C19.49 20.24 20.43 23.08 21.35 25.93 C21.74 27.15 22.14 28.37 22.55 29.58 C22.87 30.54 23.18 31.5 23.49 32.46 C23.63 32.91 23.78 33.36 23.93 33.81 C24.96 36.85 25.14 38.96 24 42 C18.96 33.86 13.98 25.7 9.09 17.48 C8.1 15.82 7.11 14.16 6.12 12.51 C5.4 11.32 4.69 10.12 3.98 8.92 C3.56 8.22 3.14 7.52 2.72 6.81 C2.26 6.05 1.8 5.27 1.34 4.5 C1.27 4.39 1.27 4.39 0.93 3.82 C0.14 2.46 -0.16 1.57 0 0 Z " fill="#000000" transform="translate(522,348)"/>
<path d="M0 0 C-1.31 5.48 -4.19 9.99 -7.1 14.73 C-7.64 15.6 -8.17 16.47 -8.7 17.35 C-13.71 25.62 -18.83 33.82 -24 42 C-25.05 39.67 -25.03 38.14 -24.29 35.73 C-24.21 35.41 -24.12 35.1 -24.03 34.78 C-23.74 33.75 -23.43 32.72 -23.11 31.7 C-23 31.34 -22.9 30.98 -22.79 30.63 C-22.33 29.13 -21.87 27.64 -21.4 26.16 C-20.79 24.24 -20.2 22.32 -19.66 20.39 C-15.73 6.38 -15.73 6.38 -10.19 3.15 C-7.1 1.51 -3.57 -0.19 0 0 Z " fill="#000000" transform="translate(593,348)"/>
<path d="M0 0 C1.55 0.26 3.1 0.53 4.64 0.8 C5.17 0.89 5.7 0.98 6.22 1.07 C6.98 1.2 7.74 1.33 8.5 1.46 C8.73 1.5 8.97 1.54 9.21 1.58 C9.32 1.6 9.32 1.6 9.88 1.7 C10.07 1.74 10.26 1.77 10.46 1.8 C11.18 2.07 11.51 2.41 12 3 C12.12 3.62 12.12 3.62 12.12 4.34 C12.12 4.61 12.12 4.88 12.12 5.16 C12.12 5.45 12.12 5.75 12.11 6.05 C12.11 6.36 12.11 6.68 12.11 7 C12.11 7.85 12.11 8.71 12.1 9.56 C12.1 10.46 12.09 11.35 12.09 12.25 C12.09 13.94 12.08 15.63 12.07 17.32 C12.06 19.25 12.06 21.18 12.05 23.11 C12.04 27.07 12.02 31.04 12 35 C11.34 35 10.68 35 10 35 C8.83 31.62 7.68 28.24 6.53 24.85 C6 23.28 5.46 21.71 4.92 20.14 C0.25 6.61 0.25 6.61 0 0 Z " fill="#000000" transform="translate(543,356)"/>
<path d="M0 0 C-1.87 7.08 -3.89 14.09 -6.11 21.06 C-6.49 22.28 -6.87 23.5 -7.25 24.72 C-7.55 25.68 -7.86 26.64 -8.16 27.6 C-8.3 28.04 -8.44 28.49 -8.58 28.94 C-9.4 31.59 -10.29 33.8 -12 36 C-12.68 29.01 -13.11 22.04 -13.12 15.02 C-13.12 14.51 -13.13 13.99 -13.13 13.47 C-13.16 9.53 -12.99 5.83 -12 2 C-10.61 1.71 -9.23 1.43 -7.84 1.15 C-7.37 1.05 -6.89 0.95 -6.42 0.85 C-5.74 0.71 -5.06 0.58 -4.38 0.44 C-4.17 0.39 -3.97 0.35 -3.75 0.3 C-3.65 0.28 -3.65 0.28 -3.15 0.18 C-2.97 0.15 -2.8 0.11 -2.62 0.08 C-1.74 -0.03 -0.88 -0.01 0 0 Z " fill="#000000" transform="translate(573,356)"/>
<path d="M0 0 C-0.51 5.69 -2.07 10.88 -3.85 16.29 C-4.21 17.39 -4.56 18.49 -4.92 19.59 C-5.6 21.73 -6.3 23.86 -7 26 C-7.19 25.99 -7.39 25.99 -7.58 25.98 C-9.45 25.92 -11.32 25.87 -13.18 25.84 C-14.14 25.83 -15.1 25.81 -16.06 25.77 C-22.23 25.55 -27.27 26.71 -33 29 C-34.82 26.73 -36.62 24.45 -38.42 22.17 C-39.26 21.11 -40.1 20.05 -40.94 18.99 C-41.76 17.97 -42.57 16.95 -43.37 15.92 C-43.68 15.53 -43.99 15.14 -44.3 14.76 C-46.3 12.27 -47.53 10.18 -48 7 C-33.51 -0.06 -33.51 -0.06 -27.56 -0.92 C-26.95 -1.01 -26.35 -1.1 -25.74 -1.2 C-16.95 -2.54 -8.69 -1.47 0 0 Z " fill="#000000" transform="translate(328,371)"/>
<path d="M0 0 C3.92 0.39 7.03 1.17 10.3 3.42 C10.89 3.82 11.49 4.19 12.09 4.56 C12.48 4.82 12.86 5.07 13.24 5.33 C13.42 5.44 13.6 5.55 13.78 5.66 C14.67 6.3 14.95 6.8 15.2 7.88 C15.39 9.74 15.12 11.19 13.93 12.69 C13.45 13.26 12.95 13.8 12.45 14.35 C12.18 14.65 11.92 14.95 11.65 15.25 C10.96 16.04 10.26 16.81 9.55 17.59 C8.7 18.53 7.87 19.48 7.03 20.42 C6.37 21.16 5.72 21.9 5.06 22.63 C3.53 24.32 2.21 26.06 1 28 C-2.15 27.53 -4.47 27.02 -7 25 C-6.51 19.42 -4.98 14.43 -3.15 9.18 C-2.79 8.14 -2.44 7.1 -2.08 6.06 C-1.4 4.04 -0.7 2.02 0 0 Z " fill="#000000" transform="translate(333,374)"/>
<path d="M0 0 C0.89 0.67 1.46 1.5 2.09 2.41 C2.27 2.66 2.45 2.91 2.64 3.17 C3.13 3.85 3.61 4.52 4.08 5.2 C4.87 6.32 5.67 7.43 6.47 8.54 C6.76 8.95 7.06 9.36 7.35 9.77 C8.63 11.53 9.98 13.15 11.47 14.74 C14.07 17.52 14.07 17.52 14.21 19.25 C14.05 22.03 12.23 24.32 10.65 26.48 C9.18 28.56 8.21 30.68 7.25 33.03 C4.14 40.55 4.14 40.55 0.35 42.3 C-3.26 43.65 -8.18 43.94 -11.75 42.32 C-14.8 40.63 -17.38 38.11 -18.58 34.8 C-20.77 26.77 -16.68 18.76 -12.79 11.93 C-11.06 8.93 -9.04 6.22 -6.75 3.62 C-6.58 3.43 -6.42 3.24 -6.25 3.05 C-5.77 2.51 -5.29 1.99 -4.8 1.48 C-4.66 1.32 -4.52 1.17 -4.38 1.01 C-3.13 -0.22 -1.69 -0.46 0 0 Z " fill="#000000" transform="translate(277,383)"/>
<path d="M0 0 C3.48 1.35 5.53 3.34 7.81 6.25 C7.9 6.36 7.9 6.36 8.33 6.89 C14.67 14.95 22.79 28.38 22 39 C13.04 41.25 4.16 42.85 -5 44 C-5.06 43.82 -5.12 43.64 -5.18 43.46 C-6.8 38.67 -8.82 34.14 -11.06 29.62 C-11.19 29.36 -11.32 29.1 -11.46 28.82 C-11.83 28.06 -12.21 27.3 -12.6 26.54 C-12.71 26.31 -12.82 26.09 -12.94 25.85 C-13.53 24.69 -14.11 23.86 -15.09 22.98 C-15.95 22.16 -15.95 22.16 -16.15 21.47 C-16.16 20.86 -16.09 20.35 -15.96 19.75 C-15.93 19.64 -15.93 19.64 -15.82 19.1 C-14.92 15.95 -12.3 13.66 -10.07 11.39 C-9.07 10.37 -8.1 9.34 -7.12 8.32 C-6.76 7.94 -6.41 7.57 -6.05 7.19 C-3.87 4.92 -1.9 2.5 0 0 Z " fill="#000000" transform="translate(353,386)"/>
<path d="M0 0 C7.59 3.98 14.87 8.32 22.07 12.96 C23.15 13.66 24.23 14.35 25.32 15.04 C25.59 15.21 25.86 15.38 26.13 15.56 C26.67 15.9 27.21 16.25 27.75 16.59 C29.07 17.43 30.38 18.29 31.68 19.16 C32.18 19.5 32.68 19.83 33.18 20.17 C33.42 20.33 33.66 20.5 33.9 20.66 C35.21 21.53 36.51 22.28 37.93 22.93 C40.43 24.08 42.87 25.34 44 28 C45.35 33.11 44.81 38.8 44.58 44.02 C44.49 46.09 44.44 48.16 44.4 50.24 C44.32 54.49 44.18 58.75 44 63 C43.21 62.22 42.42 61.44 41.63 60.66 C41.52 60.55 41.52 60.55 40.96 60 C39.11 58.16 37.47 56.21 35.92 54.11 C35.75 53.88 35.58 53.65 35.41 53.41 C35.23 53.17 35.06 52.93 34.88 52.69 C34.69 52.43 34.5 52.18 34.31 51.92 C29.43 45.35 24.84 38.58 20.24 31.82 C18.7 29.56 17.16 27.3 15.61 25.04 C8.29 14.32 8.29 14.32 5.15 9.69 C4.43 8.63 3.71 7.58 2.98 6.54 C2.68 6.11 2.39 5.68 2.09 5.25 C1.75 4.76 1.41 4.27 1.06 3.78 C0.99 3.68 0.99 3.68 0.63 3.14 C0.5 2.97 0.38 2.79 0.26 2.61 C-0.12 1.72 -0.04 0.96 0 0 Z " fill="#000000" transform="translate(511,389)"/>
<path d="M0 0 C-30.3 44.99 -30.3 44.99 -39.12 56.5 C-39.26 56.68 -39.4 56.87 -39.55 57.06 C-39.93 57.55 -40.31 58.04 -40.7 58.53 C-40.8 58.67 -40.9 58.81 -41.01 58.95 C-41.61 59.69 -42.19 60.13 -43.04 60.54 C-43.22 60.63 -43.4 60.72 -43.59 60.8 C-43.65 60.84 -43.65 60.84 -44 61 C-44.21 56.69 -44.37 52.38 -44.47 48.06 C-44.51 46.06 -44.58 44.06 -44.68 42.05 C-45.37 28.33 -45.37 28.33 -42.78 25.08 C-40.93 23.13 -38.64 21.85 -36.27 20.66 C-35.02 20.03 -33.86 19.29 -32.7 18.51 C-31.21 17.5 -29.7 16.52 -28.16 15.57 C-27.97 15.45 -27.78 15.34 -27.58 15.22 C-27.19 14.97 -26.8 14.73 -26.41 14.49 C-24.76 13.47 -23.11 12.44 -21.46 11.42 C-20.84 11.03 -20.22 10.64 -19.6 10.26 C-17.12 8.72 -14.67 7.14 -12.23 5.53 C-11.73 5.2 -11.24 4.87 -10.74 4.54 C-10.42 4.33 -10.09 4.12 -9.77 3.9 C-9.62 3.8 -9.46 3.7 -9.31 3.59 C-8.4 3 -7.51 2.4 -6.61 1.79 C-5.94 1.34 -5.27 0.89 -4.59 0.45 C-4.47 0.37 -4.47 0.37 -3.88 -0.05 C-3.66 -0.19 -3.44 -0.33 -3.21 -0.48 C-3.02 -0.6 -2.84 -0.73 -2.64 -0.86 C-1.61 -1.09 -0.88 -0.53 0 0 Z " fill="#000000" transform="translate(605,390)"/>
<path d="M0 0 C0.32 0 0.63 0.01 0.96 0.01 C1.72 0.03 2.49 0.04 3.25 0.06 C4.03 2.75 4.41 5.24 4.42 8.05 C4.42 8.42 4.43 8.8 4.43 9.18 C4.44 10.18 4.44 11.19 4.44 12.19 C4.44 12.82 4.44 13.44 4.44 14.07 C4.44 20.12 4.1 26.07 3.31 32.06 C3.29 32.23 3.27 32.4 3.25 32.58 C3.1 33.7 2.95 34.82 2.79 35.94 C2.77 36.07 2.77 36.07 2.67 36.77 C2.38 38.67 1.87 40.19 1.25 42.06 C-2.38 41.4 -6.01 40.74 -9.75 40.06 C-9.09 27.19 -8.43 14.32 -7.75 1.06 C-4.9 0.35 -2.82 -0.08 0 0 Z " fill="#000000" transform="translate(372.75,430.9375)"/>
<path d="M0 0 C0.06 3.21 0.1 6.42 0.12 9.62 C0.13 9.86 0.13 10.1 0.13 10.34 C0.18 18.75 -0.41 26.74 -2 35 C-3.41 34.88 -4.81 34.76 -6.22 34.63 C-6.7 34.58 -7.17 34.54 -7.65 34.5 C-8.34 34.44 -9.03 34.38 -9.71 34.32 C-9.82 34.31 -9.82 34.31 -10.36 34.27 C-10.56 34.25 -10.76 34.23 -10.97 34.21 C-11.06 34.2 -11.06 34.2 -11.5 34.16 C-12.23 33.93 -12.54 33.61 -13 33 C-13.08 32.28 -13.08 32.28 -13.02 31.44 C-13 31.12 -12.98 30.8 -12.96 30.47 C-12.93 30.12 -12.91 29.77 -12.88 29.42 C-12.85 29.05 -12.83 28.69 -12.81 28.32 C-12.76 27.54 -12.7 26.76 -12.65 25.97 C-12.5 23.93 -12.37 21.88 -12.25 19.83 C-12.24 19.73 -12.24 19.73 -12.21 19.21 C-12.05 16.46 -11.96 13.73 -12 10.98 C-12 10.68 -12.01 10.38 -12.01 10.07 C-12.03 8.67 -12.07 7.28 -12.13 5.89 C-12.25 1.92 -12.25 1.92 -11.25 0.7 C-9.88 -0.3 -8.19 -0.47 -6.54 -0.63 C-6 -0.69 -5.46 -0.76 -4.92 -0.83 C-2.95 -1.06 -1.72 -1.02 0 0 Z " fill="#000000" transform="translate(360,434)"/>
<path d="M0 0 C7.02 1.04 13.88 2.37 20.75 4.12 C20.93 4.17 21.11 4.22 21.3 4.26 C23.53 4.84 25.77 5.41 28 6 C26.87 14.12 24.65 21.56 21.81 29.23 C21.39 30.36 20.99 31.49 20.58 32.63 C20.19 33.73 19.78 34.83 19.38 35.93 C19.19 36.45 19 36.97 18.82 37.49 C18.56 38.22 18.29 38.93 18.02 39.65 C17.95 39.86 17.87 40.07 17.8 40.29 C17.19 41.87 16.27 42.88 15 44 C12.04 42.58 9.07 41.17 6.11 39.75 C4.73 39.09 3.35 38.43 1.98 37.78 C0.65 37.14 -0.68 36.5 -2.01 35.87 C-2.52 35.63 -3.02 35.38 -3.53 35.14 C-4.24 34.8 -4.95 34.46 -5.66 34.12 C-5.77 34.07 -5.77 34.07 -6.29 33.82 C-7.53 33.23 -8.77 32.62 -10 32 C-7.93 25.01 -5.77 18.06 -3.55 11.11 C-3.15 9.85 -2.74 8.59 -2.34 7.33 C-1.56 4.89 -0.78 2.44 0 0 Z " fill="#000000" transform="translate(345,472)"/>
<path d="M0 0 C0.8 0.15 1.59 0.3 2.39 0.45 C2.5 0.47 2.5 0.47 3.06 0.58 C5 0.95 6.58 1.61 8.31 2.56 C8.58 2.7 8.84 2.84 9.11 2.98 C9.74 3.32 10.37 3.66 11 4 C10.42 7.86 9.21 11.14 7.57 14.67 C7.33 15.19 7.09 15.72 6.85 16.25 C6.35 17.34 5.84 18.43 5.33 19.52 C4.69 20.91 4.05 22.31 3.42 23.71 C2.92 24.79 2.42 25.87 1.92 26.95 C1.69 27.47 1.45 27.98 1.22 28.5 C0.89 29.22 0.56 29.93 0.22 30.65 C0.13 30.86 0.03 31.07 -0.06 31.28 C-0.76 32.76 -1.66 34.04 -3 35 C-3.84 35.15 -4.49 35.03 -5.31 34.81 C-5.53 34.76 -5.74 34.72 -5.96 34.67 C-8.57 33.98 -10.79 32.5 -13 31 C-12.43 26.93 -11.03 23.52 -9.28 19.82 C-9.01 19.25 -8.74 18.67 -8.47 18.1 C-7.85 16.75 -7.22 15.4 -6.58 14.06 C-5.86 12.53 -5.14 10.99 -4.43 9.45 C-2.96 6.3 -1.48 3.15 0 0 Z " fill="#000000" transform="translate(332,509)"/>
<path d="M0 0 C0.32 0.01 0.63 0.02 0.96 0.04 C1.03 0.18 1.03 0.18 1.41 0.88 C7.8 12.86 14.18 24.84 20.96 36.6 C21.02 36.7 21.02 36.7 21.32 37.23 C21.69 37.86 22.05 38.49 22.42 39.13 C22.91 39.98 23.4 40.84 23.9 41.7 C24.02 41.91 24.14 42.12 24.27 42.34 C27.4 47.78 30.46 53.26 33.51 58.74 C38.06 66.88 42.63 75.01 47.26 83.11 C47.64 83.78 48.02 84.45 48.41 85.11 C49 86.16 49.6 87.2 50.2 88.24 C50.53 88.82 50.86 89.4 51.19 89.98 C52.09 91.56 53 93.12 53.99 94.65 C54.14 94.88 54.29 95.11 54.44 95.35 C54.7 95.76 54.97 96.16 55.25 96.55 C55.58 97.06 55.82 97.45 55.96 98.04 C55.75 98.79 55.41 99.4 54.96 100.04 C49.61 95.87 44.4 91.61 39.4 87.03 C36.24 84.14 32.99 81.4 29.65 78.72 C25.36 75.28 21.29 71.66 17.27 67.91 C17.13 67.78 16.99 67.65 16.85 67.52 C16.15 66.87 15.45 66.22 14.76 65.57 C14.62 65.44 14.49 65.32 14.35 65.19 C14.08 64.94 13.81 64.69 13.54 64.43 C11.4 62.43 9.24 60.46 7.02 58.54 C6.88 58.41 6.73 58.28 6.58 58.15 C5.38 57.11 4.17 56.07 2.96 55.04 C2.84 54.93 2.84 54.93 2.22 54.4 C1.37 53.68 0.53 52.95 -0.32 52.23 C-0.62 51.97 -0.92 51.72 -1.22 51.46 C-1.37 51.33 -1.52 51.2 -1.67 51.07 C-1.98 50.81 -2.28 50.55 -2.59 50.29 C-3.36 49.63 -4.13 48.97 -4.89 48.31 C-10 43.95 -15.05 39.53 -20.04 35.04 C-16.26 23.84 -10.02 13.42 -3.6 3.54 C-3.48 3.35 -3.36 3.16 -3.24 2.97 C-2.91 2.45 -2.57 1.95 -2.23 1.44 C-2.14 1.3 -2.05 1.15 -1.95 1 C-1.36 0.17 -0.98 -0.04 0 0 Z " fill="#000000" transform="translate(380.03968811035156,513.9642333984375)"/>
<path d="M0 0 C0.9 0.26 1.79 0.53 2.69 0.81 C2.93 0.88 3.18 0.95 3.43 1.03 C6.19 1.9 8.56 3.46 11 5 C9.98 7.36 8.96 9.71 7.94 12.06 C7.9 12.15 7.9 12.15 7.7 12.6 C5.23 18.27 2.69 23.9 0.06 29.5 C-0.02 29.67 -0.09 29.83 -0.17 30 C-1.11 32 -2.05 34 -3 36 C-6.23 35.52 -8.66 34.92 -11.31 32.94 C-11.79 32.59 -12.27 32.25 -12.75 31.9 C-13.17 31.6 -13.58 31.3 -14 31 C-11.99 24.27 -9.29 18.02 -6.22 11.71 C-5.75 10.75 -5.3 9.79 -4.84 8.83 C-4.39 7.9 -3.95 6.97 -3.5 6.04 C-3.29 5.6 -3.08 5.16 -2.87 4.72 C-2.57 4.11 -2.28 3.5 -1.98 2.9 C-1.9 2.72 -1.81 2.54 -1.73 2.36 C-1.26 1.41 -0.8 0.69 0 0 Z " fill="#000000" transform="translate(348,516)"/>
<path d="M0 0 C0.64 0.31 1.28 0.62 1.92 0.94 C2.01 0.98 2.01 0.98 2.46 1.2 C4 1.96 5.19 2.9 6.41 4.1 C6.84 4.51 7.27 4.92 7.71 5.33 C7.93 5.54 8.15 5.75 8.38 5.97 C13.87 11.22 19.75 15.68 26 20 C25.54 28.17 23.49 36.04 21.61 43.97 C21.13 45.98 20.66 47.99 20.19 50.01 C19.35 53.6 18.51 57.2 17.66 60.8 C17.61 61.01 17.56 61.23 17.51 61.45 C16.95 63.83 16.39 66.22 15.82 68.6 C15.77 68.82 15.72 69.03 15.67 69.25 C15.57 69.69 15.46 70.12 15.36 70.55 C15.31 70.77 15.26 70.98 15.21 71.2 C15.16 71.41 15.11 71.63 15.06 71.85 C14.21 75.43 13.37 79.02 12.53 82.61 C12.07 84.61 11.6 86.62 11.12 88.62 C6.31 108.71 6.31 108.71 9.57 117.59 C9.73 118.06 9.89 118.53 10.04 119.01 C10.45 120.22 10.88 121.43 11.3 122.64 C11.99 124.6 12.67 126.55 13.33 128.52 C13.56 129.19 13.8 129.87 14.05 130.54 C14.82 132.75 15.28 134.26 14.27 136.51 C14.18 136.67 14.09 136.83 14 137 C11.41 135.13 8.93 133.17 6.52 131.07 C5.39 130.1 4.26 129.17 3.04 128.31 C-0.76 125.58 -4.26 122.13 -5.12 117.36 C-6.08 110.14 -5.07 102.57 -4.48 95.36 C-4.07 90.26 -3.8 85.17 -3.62 80.07 C-3.6 79.68 -3.59 79.3 -3.57 78.92 C-3.52 77.37 -3.46 75.83 -3.41 74.28 C-3.27 70.35 -3.11 66.41 -2.94 62.48 C-2.87 60.68 -2.8 58.89 -2.72 57.1 C-2.7 56.5 -2.67 55.9 -2.65 55.3 C-2.52 52.27 -2.4 49.23 -2.28 46.19 C-2.14 42.78 -2 39.37 -1.86 35.97 C-1.78 34.09 -1.71 32.2 -1.63 30.32 C-1.22 20.21 -0.67 10.1 0 0 Z " fill="#000000" transform="translate(467,517)"/>
<path d="M0 0 C4.48 1.52 8.51 3.84 12.59 6.2 C13.56 6.77 14.54 7.32 15.53 7.86 C16.29 8.29 17.05 8.73 17.81 9.18 C18.17 9.38 18.53 9.59 18.9 9.79 C20.67 10.76 22.24 11.73 22.89 13.77 C23.54 16.74 21.69 19.65 20.45 22.24 C20.16 22.86 19.87 23.49 19.58 24.12 C18.96 25.48 18.33 26.83 17.69 28.18 C16.76 30.15 15.84 32.13 14.93 34.11 C13.5 37.21 12.06 40.31 10.61 43.4 C8.09 48.8 5.59 54.2 3.1 59.61 C3 59.83 2.89 60.05 2.79 60.28 C2.48 60.95 2.18 61.61 1.87 62.28 C1.57 62.94 1.26 63.6 0.96 64.26 C0.75 64.7 0.55 65.14 0.35 65.58 C-1.03 68.57 -2.42 71.57 -3.81 74.57 C-4.37 75.78 -4.93 77 -5.5 78.21 C-5.93 79.16 -6.37 80.1 -6.81 81.04 C-8.95 85.66 -11.02 90.3 -13 95 C-13.66 95 -14.32 95 -15 95 C-18.02 89.61 -19.49 85.11 -18.3 78.96 C-18.2 78.4 -18.1 77.83 -18.01 77.26 C-16.96 71.35 -15.64 65.48 -14.27 59.63 C-13.92 58.11 -13.57 56.6 -13.22 55.08 C-12.56 52.21 -11.9 49.34 -11.24 46.47 C-10.27 42.3 -9.31 38.12 -8.35 33.95 C-8.28 33.64 -8.2 33.32 -8.13 33 C-7.99 32.38 -7.84 31.75 -7.7 31.12 C-7.29 29.34 -6.88 27.57 -6.47 25.79 C-6.21 24.67 -5.95 23.55 -5.69 22.44 C-5.57 21.89 -5.44 21.35 -5.31 20.8 C-4.61 17.74 -3.92 14.67 -3.28 11.59 C-3.18 11.09 -3.07 10.6 -2.97 10.11 C-2.64 8.53 -2.32 6.96 -2 5.38 C-1.88 4.82 -1.76 4.25 -1.65 3.69 C-1.6 3.43 -1.54 3.17 -1.49 2.91 C-1.04 0.75 -1.04 0.75 0 0 Z " fill="#000000" transform="translate(498,542)"/>
<path d="M0 0 C3.3 1.65 6.6 3.3 10 5 C8.85 10.75 8.85 10.75 7.74 12.94 C7.62 13.19 7.5 13.44 7.37 13.7 C6.97 14.52 6.57 15.33 6.16 16.14 C5.88 16.71 5.6 17.29 5.32 17.86 C4.73 19.05 4.13 20.24 3.54 21.43 C2.85 22.8 2.17 24.17 1.5 25.55 C0.85 26.89 0.19 28.22 -0.48 29.54 C-0.76 30.1 -1.03 30.67 -1.31 31.23 C-1.69 32.02 -2.08 32.8 -2.48 33.58 C-2.59 33.81 -2.7 34.04 -2.81 34.28 C-3.51 35.6 -4.1 36.16 -5.53 36.67 C-6.71 37.01 -7.46 37.06 -8.56 36.5 C-8.72 36.41 -8.88 36.32 -9.04 36.22 C-9.13 36.18 -9.13 36.18 -9.57 35.95 C-10.11 35.66 -10.65 35.36 -11.19 35.06 C-11.56 34.86 -11.93 34.67 -12.3 34.47 C-13.21 33.99 -14.1 33.5 -15 33 C-14.44 28.83 -12.94 25.39 -11.09 21.64 C-10.81 21.05 -10.52 20.45 -10.23 19.85 C-9.63 18.61 -9.03 17.38 -8.43 16.14 C-7.73 14.72 -7.03 13.29 -6.34 11.86 C-5.68 10.47 -5.01 9.09 -4.33 7.71 C-4.05 7.12 -3.77 6.54 -3.48 5.95 C-3.09 5.14 -2.69 4.33 -2.29 3.51 C-2.17 3.27 -2.06 3.03 -1.94 2.78 C-1.83 2.56 -1.72 2.34 -1.61 2.11 C-1.51 1.92 -1.42 1.73 -1.32 1.53 C-1 1 -1 1 0 0 Z " fill="#000000" transform="translate(316,544)"/>
<path d="M0 0 C1.41 0.52 2.81 1.06 4.22 1.6 C4.69 1.78 5.17 1.96 5.65 2.14 C6.34 2.4 7.03 2.66 7.71 2.93 C7.93 3.01 8.14 3.08 8.36 3.16 C8.56 3.24 8.76 3.32 8.97 3.41 C9.14 3.47 9.32 3.54 9.5 3.61 C10.31 4.25 10.75 5 11 6 C10.88 6.79 10.54 7.42 10.17 8.12 C10.07 8.32 9.97 8.52 9.86 8.73 C9.53 9.4 9.18 10.06 8.83 10.73 C8.59 11.2 8.35 11.67 8.12 12.14 C7.49 13.39 6.85 14.63 6.2 15.87 C5.57 17.1 4.94 18.34 4.31 19.57 C3.58 21.02 2.84 22.47 2.09 23.91 C0.97 26.08 -0.13 28.25 -1.19 30.46 C-1.37 30.84 -1.55 31.21 -1.73 31.59 C-2.06 32.27 -2.38 32.96 -2.7 33.65 C-4.01 36.42 -4.01 36.42 -5.48 36.96 C-6.53 37.05 -7.29 36.54 -8.16 36 C-8.36 35.89 -8.56 35.78 -8.76 35.66 C-9.39 35.3 -10.01 34.93 -10.62 34.56 C-11.05 34.32 -11.47 34.07 -11.9 33.83 C-12.94 33.23 -13.97 32.61 -15 32 C-13.72 27.82 -12.12 23.91 -10.21 19.98 C-9.95 19.43 -9.69 18.88 -9.42 18.33 C-8.88 17.19 -8.33 16.06 -7.78 14.92 C-7.07 13.47 -6.37 12.01 -5.67 10.55 C-5.13 9.42 -4.59 8.29 -4.04 7.17 C-3.78 6.63 -3.53 6.09 -3.27 5.55 C-2.91 4.8 -2.55 4.06 -2.18 3.31 C-2.08 3.09 -1.97 2.87 -1.86 2.64 C-1.35 1.6 -0.91 0.76 0 0 Z " fill="#000000" transform="translate(331,552)"/>
<path d="M0 0 C3.1 0.75 5.33 3.44 7.54 5.6 C8.83 6.84 10.13 8.07 11.43 9.3 C11.73 9.57 12.02 9.85 12.32 10.13 C15.08 12.74 17.97 15.16 20.94 17.53 C24.94 20.73 28.75 24.07 32.51 27.54 C35.81 30.59 39.19 33.48 42.69 36.28 C47.55 40.18 52.12 44.34 56.67 48.59 C57.21 49.09 57.75 49.6 58.29 50.1 C58.42 50.22 58.55 50.35 58.69 50.47 C60.37 52.04 62.07 53.59 63.81 55.09 C64 55.25 64.19 55.41 64.38 55.57 C65.2 56.28 66.03 56.98 66.87 57.68 C69.05 59.51 70.69 61.58 72.32 63.91 C72.01 63.85 71.71 63.8 71.4 63.74 C70.25 63.53 69.1 63.32 67.95 63.11 C67.45 63.02 66.96 62.93 66.47 62.84 C65.25 62.61 64.03 62.39 62.81 62.18 C61.84 62 60.87 61.81 59.9 61.61 C57.04 61.02 54.37 60.87 51.46 61.02 C42.98 61.45 35.81 60.9 27.75 58.09 C27.35 57.95 26.95 57.82 26.55 57.68 C26.36 57.61 26.16 57.54 25.95 57.47 C24.96 57.12 23.96 56.78 22.96 56.43 C22.77 56.37 22.57 56.3 22.37 56.23 C18.27 54.82 14.15 53.87 9.88 53.16 C9.79 53.14 9.79 53.14 9.37 53.07 C0.09 51.51 -9.32 50.72 -18.68 49.91 C-18.34 42.81 -16.08 36.35 -13.8 29.67 C-13.49 28.77 -13.19 27.87 -12.89 26.97 C-10.16 18.89 -7.32 10.89 -3.78 3.12 C-3.68 2.9 -3.58 2.69 -3.48 2.46 C-2.66 0.71 -2.13 -0.38 0 0 Z " fill="#000000" transform="translate(358.68359375,555.09375)"/>
<path d="M0 0 C1.07 0.34 2.14 0.69 3.2 1.06 C3.56 1.18 3.92 1.3 4.28 1.42 C5.59 1.83 6.8 2.34 8 3 C8.18 3.1 8.36 3.19 8.54 3.29 C10.91 4.72 12.02 6.67 12.69 9.29 C13.3 11.88 13.72 14.5 14.13 17.12 C14.29 18.12 14.47 19.12 14.64 20.11 C15.13 22.88 15.56 25.65 15.93 28.43 C15.99 28.95 16.07 29.46 16.14 29.97 C16.69 33.99 15.52 36.48 13.11 39.69 C12.79 40.11 12.47 40.53 12.14 40.94 C11.69 41.53 11.25 42.13 10.81 42.73 C9.24 44.85 7.63 46.93 6 49 C5.87 49.16 5.74 49.33 5.61 49.49 C1.5 54.74 -2.72 59.89 -7 65 C-7.07 65.08 -7.07 65.08 -7.4 65.48 C-14.52 73.98 -21.84 82.31 -29.43 90.4 C-29.8 90.79 -30.16 91.17 -30.53 91.56 C-31.41 92.5 -32.29 93.44 -33.19 94.36 C-33.43 94.62 -33.68 94.87 -33.92 95.12 C-34.23 95.46 -34.56 95.78 -34.88 96.11 C-35.05 96.28 -35.22 96.46 -35.4 96.64 C-36.05 97.03 -36.3 97.04 -37.04 97.02 C-37.2 97.02 -37.2 97.02 -38 97 C-39.92 93.77 -41.54 89.94 -40.84 86.12 C-40.2 83.75 -39.23 81.52 -38.21 79.3 C-38.17 79.21 -38.17 79.21 -37.96 78.77 C-36.92 76.52 -35.81 74.3 -34.7 72.08 C-33.7 70.09 -32.73 68.09 -31.78 66.08 C-31.28 65.04 -30.78 64.01 -30.29 62.97 C-30.19 62.76 -30.09 62.56 -29.98 62.34 C-29.27 60.85 -28.54 59.36 -27.82 57.87 C-24.8 51.7 -21.89 45.49 -19.03 39.25 C-18.82 38.81 -18.62 38.36 -18.42 37.92 C-17.51 35.95 -16.61 33.98 -15.71 32.01 C-6.65 12.18 -6.65 12.18 -3.05 4.95 C-2.95 4.74 -2.84 4.54 -2.74 4.33 C-2.46 3.77 -2.18 3.21 -1.9 2.66 C-1.82 2.5 -1.75 2.35 -1.67 2.18 C-1.22 1.31 -0.73 0.65 0 0 Z " fill="#000000" transform="translate(527,558)"/>
<path d="M0 0 C5.19 1.37 9.8 3.81 14.52 6.31 C15.61 6.89 16.7 7.46 17.8 8.03 C18.65 8.47 19.5 8.92 20.35 9.37 C20.75 9.58 21.15 9.79 21.56 10 C22.12 10.29 22.68 10.59 23.24 10.89 C23.4 10.97 23.57 11.05 23.74 11.14 C24.78 11.71 25.41 12.35 25.89 13.45 C26.11 14.52 25.63 15.34 25.17 16.29 C25.07 16.51 24.97 16.73 24.86 16.95 C24.53 17.68 24.18 18.41 23.83 19.13 C23.59 19.64 23.35 20.16 23.12 20.67 C22.49 22.03 21.85 23.38 21.2 24.74 C20.57 26.08 19.94 27.43 19.31 28.78 C18.57 30.35 17.84 31.93 17.1 33.5 C15 37.97 12.98 42.48 11 47 C7.51 46.43 4.41 45.5 1.17 44.07 C0.73 43.88 0.29 43.69 -0.14 43.5 C-1.05 43.1 -1.96 42.7 -2.87 42.3 C-4.02 41.78 -5.19 41.29 -6.35 40.8 C-7.26 40.41 -8.16 40.01 -9.06 39.61 C-9.48 39.42 -9.91 39.24 -10.34 39.06 C-13.98 37.54 -13.98 37.54 -14.76 35.7 C-15.63 32.75 -14.05 30.03 -12.83 27.42 C-12.59 26.89 -12.35 26.35 -12.12 25.82 C-11.49 24.41 -10.85 23 -10.2 21.6 C-9.56 20.2 -8.94 18.8 -8.31 17.39 C-5.68 11.53 -2.95 5.71 0 0 Z " fill="#000000" transform="translate(298,581)"/>
<path d="M0 0 C0.17 -0 0.34 -0.01 0.51 -0.01 C1.07 -0.03 1.63 -0.04 2.2 -0.04 C2.6 -0.05 3 -0.06 3.4 -0.06 C4.7 -0.08 6.01 -0.09 7.32 -0.09 C7.54 -0.09 7.77 -0.09 8 -0.09 C27.37 -0.09 46.19 4.89 85.32 29.16 C85.45 29.27 85.58 29.38 85.72 29.49 C89.06 32.23 92.25 35.11 95.32 38.16 C95.42 38.26 95.42 38.26 95.93 38.76 C111.77 54.48 122.44 74.34 128.22 101.62 C128.29 102.01 128.37 102.41 128.44 102.8 C130.54 114.35 133.38 131.85 126.37 142.03 C124.45 144.69 122.18 147.12 119.89 149.46 C117.8 151.59 115.96 153.82 114.2 156.22 C114.14 156.31 114.14 156.31 113.82 156.74 C113.32 157.43 112.82 158.12 112.32 158.81 C111.09 160.5 109.84 162.16 108.58 163.83 C107.97 164.63 107.36 165.44 106.76 166.25 C106.64 166.41 106.52 166.57 106.4 166.73 C105.44 167.99 104.5 169.26 103.55 170.53 C102.65 171.74 101.75 172.94 100.84 174.14 C100.32 174.83 99.8 175.52 99.28 176.22 C96.66 179.77 93.92 182.59 90.32 185.16 C91.46 181.36 92.86 177.92 94.75 174.44 C104.58 156.05 108.65 133.92 102.16 94.62 C100.61 89.63 98.57 84.87 96.32 80.16 C96.18 79.87 96.05 79.59 95.91 79.29 C92.15 71.39 87.76 64.29 81.89 57.79 C81.3 57.14 80.72 56.48 80.13 55.83 C72.86 47.71 64.65 41.71 55.32 36.16 C55.06 36 54.79 35.84 54.52 35.68 C35.86 24.6 14.5 22.93 -6.68 22.16 C-6.18 19.44 -5.68 16.72 -5.17 14 C-4.93 12.74 -4.7 11.47 -4.46 10.21 C-4.24 8.99 -4.01 7.77 -3.78 6.55 C-3.7 6.09 -3.61 5.62 -3.53 5.16 C-3.41 4.5 -3.28 3.85 -3.16 3.2 C-3.13 3.01 -3.09 2.82 -3.06 2.62 C-2.9 1.82 -2.72 1.22 -2.25 0.54 C-1.48 0.03 -0.93 0.02 0 0 Z " fill="#000000" transform="translate(339.6796875,610.8388671875)"/>
<path d="M0 0 C21.2 0.22 40.3 8.65 57 23 C57.22 23.19 57.44 23.38 57.66 23.57 C74.84 38.47 81.4 58.36 85.71 80.05 C85.81 80.55 85.92 81.06 86.02 81.57 C87.19 87.2 87.65 91.67 84.41 96.63 C83.08 98.62 81.64 100.55 80.2 102.46 C79.6 103.26 79.02 104.06 78.44 104.86 C75.26 109.24 72.03 113.36 68 117 C67.97 116.73 67.95 116.46 67.92 116.19 C65.82 95.04 62.73 75.08 53 56 C52.92 55.85 52.84 55.69 52.76 55.53 C48.43 46.99 43.33 39.37 37 32.15 C36.1 31.13 35.24 30.08 34.38 29.01 C28.82 22.14 22 16.9 14.93 11.68 C14.45 11.32 13.96 10.96 13.48 10.6 C9.16 7.39 4.74 4.56 0 2 C0 1.34 0 0.68 0 0 Z " fill="#000000" transform="translate(407,620)"/>
<path d="M0 0 C1.25 0.41 2.49 0.82 3.74 1.23 C4.16 1.37 4.58 1.5 5 1.64 C5.62 1.84 6.23 2.04 6.84 2.25 C7.02 2.31 7.21 2.37 7.4 2.43 C8.67 2.85 9.82 3.38 11 4 C9.44 9.22 7.87 14.44 6.28 19.66 C6.24 19.78 6.24 19.78 6.06 20.38 C5.47 22.33 4.87 24.28 4.28 26.23 C3.76 27.94 3.24 29.64 2.72 31.34 C2.65 31.58 2.58 31.82 2.5 32.06 C0.99 37.03 -0.51 42.02 -2 47 C-2.29 46.97 -2.57 46.94 -2.87 46.91 C-3.06 46.89 -3.24 46.88 -3.43 46.86 C-3.83 46.82 -4.24 46.78 -4.64 46.74 C-5.47 46.65 -6.31 46.57 -7.14 46.49 C-7.7 46.44 -8.27 46.38 -8.84 46.32 C-9.02 46.3 -9.2 46.28 -9.39 46.27 C-10.78 46.11 -11.78 45.68 -13 45 C-12.55 38.76 -11.38 33.03 -9.51 27.07 C-9.31 26.43 -9.11 25.79 -8.92 25.15 C-6.32 16.62 -3.28 8.28 0 0 Z " fill="#000000" transform="translate(280,622)"/>
<path d="M0 0 C3.01 0.5 5.62 1.08 8.31 2.56 C8.58 2.7 8.84 2.84 9.11 2.98 C9.74 3.32 10.37 3.66 11 4 C10.45 8.77 9.08 13.18 7.59 17.72 C6.9 19.8 6.23 21.89 5.57 23.98 C5.5 24.19 5.43 24.4 5.36 24.62 C3.99 28.94 2.77 33.3 1.62 37.69 C1.58 37.85 1.54 38.01 1.5 38.18 C0.99 40.12 0.49 42.06 0 44 C-3.63 43.34 -7.26 42.68 -11 42 C-12.15 38.55 -12.15 38.55 -11.66 36.91 C-11.61 36.72 -11.56 36.53 -11.51 36.34 C-11.35 35.72 -11.17 35.11 -11 34.49 C-10.88 34.05 -10.76 33.61 -10.64 33.16 C-10.32 31.98 -9.98 30.79 -9.65 29.61 C-9.44 28.87 -9.23 28.14 -9.03 27.4 C-6.45 18.11 -3.4 9.02 0 0 Z " fill="#000000" transform="translate(295,629)"/>
<path d="M0 0 C0.09 -0 0.09 -0 0.52 -0 C23.56 -0.06 45.75 8.14 72.81 31.25 C72.98 31.41 73.14 31.57 73.31 31.73 C86.55 44.54 94.46 63.8 97.69 81.6 C97.8 82.18 97.91 82.75 98.03 83.33 C98.48 85.63 98.7 87.91 98.81 90.25 C98.82 90.38 98.82 90.38 98.85 91.02 C99.81 110.02 96.43 129.04 73.93 165.01 C73.74 165.22 73.55 165.43 73.36 165.64 C72.83 166.23 72.3 166.83 71.78 167.43 C60.01 180.87 42.61 190.36 25.38 194.62 C25.29 194.65 25.29 194.65 24.88 194.75 C17.43 196.58 9.99 197.45 2.33 197.49 C1.61 197.49 0.89 197.51 0.16 197.53 C-7.99 197.78 -13.8 194.87 -20.44 190.19 C-20.71 190 -20.99 189.8 -21.26 189.61 C-27.38 185.35 -32.83 180.43 -38.19 175.25 C-37.68 172.53 -37.01 170.62 -35.12 168.5 C-34.94 168.28 -34.75 168.06 -34.56 167.83 C-34.11 167.3 -33.65 166.77 -33.19 166.25 C-30.54 167.24 -27.98 168.31 -25.5 169.65 C-9.51 178.27 7.31 179.69 24.84 174.55 C44.39 168.58 60.69 155.08 70.43 137.06 C75.67 127.05 78.85 115.14 79.76 103.93 C79.81 103.29 79.87 102.65 79.93 102.01 C81.06 89.16 77.33 74.72 71.81 63.25 C71.69 63 71.57 62.75 71.45 62.49 C62.53 44.03 46.32 30.72 27.05 23.98 C23.69 22.86 20.28 21.93 16.81 21.25 C16.58 21.2 16.35 21.15 16.11 21.1 C10.2 19.92 4.21 20.13 -1.79 20.18 C-3.2 20.19 -4.6 20.2 -6 20.2 C-8.73 20.21 -11.46 20.23 -14.19 20.25 C-13.95 18.07 -13.71 15.89 -13.46 13.7 C-13.34 12.69 -13.23 11.68 -13.12 10.66 C-13.01 9.68 -12.9 8.71 -12.79 7.73 C-12.74 7.35 -12.7 6.98 -12.66 6.61 C-12.25 2.73 -12.25 2.73 -11.19 1.25 C-8.1 -0.49 -3.41 0.01 0 0 Z " fill="#000000" transform="translate(343.1875,637.75)"/>
<path d="M0 0 C3.5 0.63 7.01 1.26 10.51 1.9 C12.14 2.2 13.76 2.5 15.39 2.79 C16.96 3.07 18.53 3.36 20.1 3.64 C20.7 3.75 21.29 3.86 21.89 3.97 C22.73 4.12 23.57 4.27 24.41 4.43 C24.66 4.47 24.91 4.51 25.16 4.56 C26.12 4.74 26.84 4.89 27.66 5.44 C28.11 6.19 28.09 6.63 28.02 7.5 C28.01 7.65 28.01 7.65 27.96 8.42 C27.95 8.51 27.95 8.51 27.92 8.92 C27.88 9.45 27.84 9.98 27.81 10.51 C27.76 11.27 27.7 12.03 27.65 12.8 C27.5 14.83 27.37 16.87 27.25 18.9 C27.25 19.01 27.25 19.01 27.22 19.54 C27.03 22.67 26.95 25.8 26.96 28.94 C26.97 29.14 26.97 29.34 26.97 29.54 C26.97 31.44 26.99 33.34 27.03 35.24 C27.04 35.77 27.04 36.3 27.05 36.82 C27.06 37.47 27.07 38.11 27.09 38.75 C27.09 39.04 27.09 39.32 27.1 39.61 C27.1 39.73 27.1 39.73 27.11 40.36 C27 41 27 41 26.66 41.57 C25.61 42.25 24.54 42.23 23.32 42.3 C23.04 42.32 22.77 42.34 22.49 42.36 C21.58 42.42 20.68 42.48 19.78 42.54 C19.15 42.58 18.52 42.62 17.9 42.67 C16.42 42.77 14.94 42.87 13.46 42.96 C11.61 43.08 9.76 43.21 7.9 43.34 C4.6 43.56 1.3 43.78 -2 44 C-2.68 40.97 -3.16 38.1 -3.17 34.99 C-3.17 34.62 -3.18 34.25 -3.18 33.88 C-3.19 32.89 -3.19 31.91 -3.19 30.92 C-3.19 30.31 -3.19 29.69 -3.19 29.07 C-3.19 22.65 -2.79 16.32 -2.06 9.94 C-2.04 9.74 -2.02 9.55 -2 9.35 C-1.87 8.22 -1.74 7.1 -1.6 5.98 C-1.54 5.48 -1.48 4.98 -1.42 4.49 C-1.38 4.19 -1.34 3.89 -1.3 3.58 C-1.26 3.32 -1.23 3.06 -1.2 2.8 C-0.95 1.78 -0.5 0.92 0 0 Z " fill="#000000" transform="translate(266,672)"/>
<path d="M0 0 C0.18 -0 0.37 -0 0.55 -0 C20.99 0.01 39.81 8.01 54.27 22.43 C63.77 32.14 69.93 44.05 72.94 57.25 C73 57.51 73.06 57.77 73.12 58.03 C77.97 78.62 72.9 99.48 61.94 117.25 C59.36 121.29 56.31 124.86 52.94 128.25 C52.73 128.46 52.51 128.68 52.3 128.9 C38.99 142.23 20.67 149.64 1.89 149.69 C-9.75 149.65 -19.53 145.78 -29.06 139.25 C-28.52 135.78 -26.99 133.34 -25 130.5 C-24.71 130.09 -24.43 129.67 -24.15 129.25 C-23.46 128.25 -22.76 127.25 -22.06 126.25 C-23.38 125.59 -24.7 124.93 -26.06 124.25 C-26.34 124.84 -26.61 125.43 -26.89 126.04 C-27.92 128.16 -29.25 129.84 -30.81 131.6 C-31.07 131.9 -31.34 132.2 -31.6 132.5 C-32.28 133.28 -32.96 134.06 -33.65 134.84 C-34.74 136.09 -35.83 137.34 -36.92 138.59 C-37.3 139.02 -37.68 139.45 -38.06 139.88 C-39.55 141.58 -40.86 143.33 -42.06 145.25 C-45.65 143.88 -47.8 141.71 -50.19 138.75 C-50.38 138.52 -50.56 138.29 -50.76 138.06 C-54.41 133.55 -57.35 128.65 -60.17 123.59 C-60.5 123.01 -60.82 122.43 -61.15 121.84 C-61.68 120.91 -62.2 119.97 -62.71 119.02 C-62.89 118.68 -63.08 118.33 -63.27 117.99 C-65.21 114.51 -65.93 111.22 -67.06 107.25 C-58.48 102.96 -49.9 98.67 -41.06 94.25 C-38.66 97.26 -36.54 99.93 -34.63 103.2 C-32.13 107.4 -29.48 111.23 -26 114.69 C-25.85 114.84 -25.69 115 -25.53 115.16 C-22.7 117.99 -19.43 120.11 -16.06 122.25 C-16.1 122.04 -16.13 121.82 -16.17 121.61 C-16.52 119.51 -16.85 117.41 -17.18 115.31 C-17.35 114.23 -17.53 113.15 -17.71 112.08 C-20.31 96.46 -20.23 80.62 -20.19 64.83 C-20.19 63.11 -20.19 61.39 -20.19 59.67 C-20.22 50.31 -20.24 40.95 -19.62 31.6 C-19.6 31.3 -19.58 30.99 -19.56 30.68 C-19.34 27.44 -19.01 24.37 -18.06 21.25 C-2.56 17.26 13.05 16.72 27.42 25.09 C30.06 26.7 32.52 28.52 34.93 30.45 C35.81 31.16 36.71 31.81 37.64 32.46 C44.14 37.16 48.45 44.71 51.75 51.88 C51.8 51.98 51.8 51.98 52.05 52.52 C55.26 59.47 56.33 66.42 56.25 74 C56.25 74.4 56.24 74.79 56.24 75.19 C56.13 88.97 51.82 103.55 41.77 113.57 C41.17 114.14 40.56 114.7 39.94 115.25 C39.84 115.34 39.84 115.34 39.35 115.77 C32.01 122.21 24.32 126.52 14.94 129.25 C14.65 129.34 14.36 129.43 14.06 129.52 C11.28 130.34 8.61 130.38 5.73 130.35 C5.25 130.35 4.76 130.34 4.27 130.34 C3 130.34 1.73 130.33 0.46 130.32 C-0.84 130.31 -2.14 130.3 -3.44 130.3 C-5.98 130.29 -8.52 130.27 -11.06 130.25 C-10.58 132.89 -10.58 132.89 -9.46 133.66 C-7.45 134.39 -5.34 134.43 -3.22 134.45 C-2.85 134.46 -2.48 134.47 -2.11 134.47 C-0.93 134.49 0.25 134.5 1.44 134.5 C1.64 134.5 1.84 134.5 2.05 134.5 C9.06 134.5 15.39 133.97 21.94 131.25 C22.17 131.15 22.41 131.06 22.65 130.96 C38.04 124.58 49.66 113.65 56.17 98.17 C56.43 97.53 56.69 96.89 56.94 96.25 C57.02 96.04 57.1 95.83 57.19 95.61 C62.79 81 61.45 63.26 55.3 49.07 C53.67 45.4 51.75 42.03 49.35 38.81 C48.93 38.24 48.52 37.68 48.12 37.11 C40.53 26.71 28.22 19.59 15.94 16.25 C15.65 16.17 15.36 16.08 15.06 15.99 C12.52 15.27 10.12 15.09 7.49 15.08 C7.07 15.08 6.65 15.08 6.22 15.07 C5.34 15.07 4.47 15.06 3.59 15.06 C2.7 15.06 1.82 15.06 0.94 15.04 C-5.33 14.95 -11.01 15.6 -17.06 17.25 C-18.2 15.48 -18.1 14.28 -17.76 12.25 C-17.74 12.1 -17.74 12.1 -17.63 11.39 C-17.53 10.79 -17.44 10.2 -17.34 9.6 C-17.19 8.69 -17.05 7.78 -16.91 6.86 C-16.82 6.28 -16.73 5.7 -16.63 5.12 C-16.59 4.85 -16.55 4.58 -16.51 4.29 C-16.46 4.04 -16.42 3.79 -16.38 3.53 C-16.36 3.41 -16.36 3.41 -16.27 2.85 C-16.01 2.08 -15.7 1.75 -15.06 1.25 C-14.43 1.05 -14.43 1.05 -13.72 0.94 C-13.45 0.9 -13.18 0.86 -12.9 0.82 C-12.6 0.78 -12.31 0.74 -12 0.7 C-11.69 0.66 -11.38 0.62 -11.06 0.58 C-7.39 0.12 -3.7 0 0 0 Z M-11.06 34.25 C-11.06 35.57 -11.06 36.89 -11.06 38.25 C-10.85 38.24 -10.85 38.24 -9.8 38.19 C2.27 37.64 14.71 38.13 24.23 46.63 C24.81 47.16 25.37 47.71 25.94 48.25 C26.22 48.51 26.5 48.78 26.78 49.04 C33.34 55.27 37.01 64.71 37.24 73.73 C37.36 83.24 33.93 92.9 27.37 99.82 C20.41 106.94 11.93 111.36 1.86 111.51 C-1.45 111.54 -4.76 111.42 -8.06 111.25 C-8.39 112.57 -8.72 113.89 -9.06 115.25 C0.91 118.74 10.38 117.45 19.89 112.99 C30.66 107.68 37.52 98.08 41.39 86.97 C44.64 77.12 43.36 65.05 38.94 55.79 C34.1 46.18 24.82 37.97 14.62 34.44 C6.14 31.68 -2.59 31.66 -11.06 34.25 Z M-9.06 53.25 C-9.06 54.24 -9.06 55.23 -9.06 56.25 C-8.61 56.26 -8.16 56.27 -7.69 56.28 C-6.16 56.31 -4.64 56.37 -3.11 56.43 C-2.19 56.47 -1.27 56.51 -0.35 56.52 C5.68 56.63 9.82 57.99 14.17 62.49 C17.29 65.83 19.06 69.83 18.97 74.42 C18.76 79.81 17.26 84.05 13.29 87.87 C11.93 89.11 10.5 90.28 8.94 91.25 C8.8 91.34 8.67 91.43 8.54 91.52 C6.97 92.44 5.46 92.38 3.68 92.35 C3.37 92.35 3.06 92.34 2.75 92.34 C1.77 92.34 0.79 92.33 -0.19 92.31 C-0.85 92.31 -1.52 92.3 -2.18 92.3 C-3.81 92.29 -5.44 92.27 -7.06 92.25 C-7.39 93.57 -7.72 94.89 -8.06 96.25 C-4.9 98.1 -2.46 98.66 1.19 98.62 C1.43 98.62 1.67 98.62 1.91 98.62 C8.48 98.53 13.23 96.26 17.83 91.62 C22.56 86.63 25.09 80.3 25.1 73.41 C24.93 67.51 21.89 61.54 17.94 57.25 C15.63 55.08 12.82 53.53 9.94 52.25 C9.71 52.14 9.48 52.03 9.24 51.92 C6.89 50.95 4.31 51.06 1.8 51.06 C1 51.06 0.21 51.04 -0.59 51.03 C-3.9 50.99 -6.27 51.43 -9.06 53.25 Z " fill="#000000" transform="translate(344.0625,661.75)"/>
<path d="M0 0 C0.02 0.11 0.02 0.11 0.14 0.66 C1.11 5.15 2.13 9.62 3.25 14.08 C3.31 14.29 3.36 14.5 3.42 14.72 C3.8 16.23 4.18 17.74 4.56 19.25 C5 20.98 5.44 22.72 5.88 24.45 C5.93 24.66 5.98 24.86 6.04 25.07 C6.78 28.03 7.47 30.99 8 34 C6.76 34.72 5.51 35.43 4.26 36.14 C3.84 36.38 3.42 36.62 3 36.86 C2.39 37.22 1.78 37.56 1.16 37.91 C1.07 37.96 1.07 37.96 0.6 38.24 C-0.67 38.94 -1.55 39.11 -3 39 C-6.08 30.35 -9.1 21.7 -10.94 12.69 C-10.97 12.53 -10.97 12.53 -11.14 11.76 C-11.95 7.91 -12.13 4.79 -11 1 C-9.76 0.86 -8.51 0.71 -7.26 0.57 C-6.84 0.52 -6.42 0.48 -6 0.43 C-5.39 0.36 -4.77 0.29 -4.16 0.22 C-4.07 0.21 -4.07 0.21 -3.6 0.15 C-2.39 0.02 -1.21 -0.02 0 0 Z " fill="#000000" transform="translate(293,718)"/>
<path d="M0 0 C0.16 0 0.16 0 0.98 0 C1.77 0.01 2.56 0.01 3.35 0.02 C3.42 0.34 3.49 0.66 3.56 0.98 C4.22 4.03 4.88 7.07 5.54 10.11 C5.89 11.68 6.23 13.24 6.56 14.8 C6.95 16.62 7.35 18.43 7.75 20.23 C7.81 20.53 7.88 20.83 7.94 21.13 C8.86 25.24 9.93 29.25 11.45 33.18 C12.33 35.53 12.5 37.54 12.35 40.02 C11.27 40.62 10.19 41.21 9.1 41.78 C8.73 41.98 8.36 42.18 8 42.39 C7.47 42.68 6.93 42.96 6.39 43.24 C6.31 43.29 6.31 43.29 5.91 43.52 C4.8 44.08 4.01 44.04 2.8 43.73 C1.72 43.3 1.16 42.96 0.63 41.91 C0.45 41.44 0.29 40.96 0.14 40.48 C0.05 40.22 -0.05 39.95 -0.14 39.68 C-0.45 38.77 -0.74 37.87 -1.02 36.96 C-1.13 36.64 -1.23 36.32 -1.33 36 C-3.45 29.48 -4.93 22.79 -6.35 16.08 C-6.52 15.27 -6.7 14.46 -6.87 13.65 C-7.15 12.36 -7.42 11.06 -7.68 9.77 C-7.78 9.29 -7.88 8.8 -7.98 8.32 C-9.04 3.34 -9.04 3.34 -7.65 1.02 C-5.63 -0.4 -2.35 -0.02 0 0 Z " fill="#000000" transform="translate(272.6484375,719.98046875)"/>
<path d="M0 0 C1.48 2.66 2.38 5.07 2.85 8.08 C2.92 8.46 2.98 8.84 3.04 9.23 C3.18 10.02 3.31 10.81 3.43 11.61 C3.59 12.6 3.76 13.6 3.93 14.59 C4.32 16.88 4.66 19.17 4.94 21.47 C4.98 21.82 5.02 22.17 5.07 22.51 C5.77 28.11 5.77 28.11 4.22 30.26 C3.15 31.48 1.9 32.45 0.62 33.44 C0.16 33.82 -0.3 34.2 -0.76 34.59 C-1.93 35.57 -3.12 36.52 -4.32 37.46 C-5.33 38.26 -6.33 39.08 -7.33 39.89 C-8.92 41.18 -10.52 42.46 -12.12 43.72 C-15.48 46.37 -18.8 49.07 -22.11 51.77 C-22.97 52.47 -23.82 53.16 -24.68 53.86 C-27.68 56.3 -30.68 58.74 -33.67 61.18 C-35.59 62.75 -37.52 64.31 -39.44 65.88 C-39.61 66.01 -39.77 66.15 -39.95 66.29 C-45.24 70.6 -50.57 74.86 -56 79 C-56.66 78.67 -57.32 78.34 -58 78 C-48.38 64.94 -38.75 51.88 -29.12 38.81 C-28.98 38.62 -28.84 38.42 -28.69 38.22 C-28.4 37.82 -28.1 37.43 -27.81 37.03 C-27.08 36.04 -26.35 35.05 -25.62 34.06 C-24.32 32.29 -23.01 30.52 -21.71 28.75 C-20.99 27.77 -20.27 26.79 -19.55 25.82 C-19.4 25.62 -19.26 25.43 -19.11 25.23 C-17.09 22.49 -15.08 19.75 -13.07 17 C-11.93 15.45 -10.8 13.91 -9.66 12.36 C-8.73 11.1 -7.81 9.83 -6.88 8.57 C-6.31 7.79 -5.74 7.01 -5.17 6.23 C-4.9 5.87 -4.64 5.51 -4.38 5.15 C-3.03 3.3 -1.7 1.54 0 0 Z " fill="#000000" transform="translate(495,720)"/>
<path d="M0 0 C2.32 1.51 2.86 4.05 3.41 6.59 C3.46 6.85 3.51 7.11 3.56 7.38 C3.61 7.64 3.67 7.9 3.72 8.17 C4.6 13.03 3.44 16.36 0.88 20.5 C0.8 20.62 0.8 20.62 0.41 21.25 C-0.64 22.91 -1.74 24.5 -3 26 C-3.11 26.14 -3.22 26.29 -3.33 26.44 C-6.42 30.43 -10.91 31.98 -15.43 33.84 C-16.55 34.31 -17.67 34.79 -18.79 35.27 C-20.93 36.17 -23.06 37.07 -25.2 37.97 C-27.82 39.06 -30.43 40.16 -33.04 41.27 C-35.79 42.44 -38.55 43.6 -41.32 44.76 C-45.19 46.38 -49.05 48.01 -52.89 49.71 C-53.39 49.94 -53.9 50.16 -54.41 50.39 C-54.57 50.46 -54.74 50.53 -54.9 50.6 C-55.22 50.74 -55.54 50.89 -55.86 51.03 C-56.89 51.48 -57.92 51.95 -58.95 52.42 C-59.47 52.65 -59.98 52.88 -60.5 53.11 C-60.73 53.21 -60.96 53.32 -61.19 53.43 C-62.7 54.08 -62.7 54.08 -63.6 53.83 C-64.1 53.58 -64.55 53.32 -65 53 C-58.91 47.33 -52.74 41.87 -46.19 36.73 C-44.21 35.18 -42.26 33.59 -40.31 32 C-40.15 31.87 -39.98 31.73 -39.81 31.6 C-39.14 31.05 -38.47 30.5 -37.8 29.95 C-32.02 25.23 -26.2 20.56 -20.32 15.98 C-17.02 13.4 -13.74 10.81 -10.53 8.13 C-10.39 8.01 -10.25 7.89 -10.11 7.77 C-8.64 6.55 -7.18 5.32 -5.73 4.08 C-5.49 3.88 -5.25 3.68 -5.01 3.48 C-4.57 3.1 -4.13 2.73 -3.7 2.36 C-2.52 1.36 -1.41 0.63 0 0 Z " fill="#000000" transform="translate(501,755)"/>
<path d="M0 0 C11.88 0 23.76 0 36 0 C36.16 1.98 36.16 1.98 37 12 C25.12 12 13.24 12 1 12 C0 8 0 8 0 0 Z " fill="#000000" transform="translate(511,766)"/>
<path d="M0 0 C9.24 0 18.48 0 28 0 C29.16 6.96 29.16 6.96 28 11 C24.5 11.02 20.99 11.04 17.49 11.05 C15.86 11.06 14.24 11.06 12.61 11.08 C11.04 11.09 9.47 11.09 7.9 11.09 C7.3 11.1 6.71 11.1 6.11 11.11 C5.27 11.11 4.43 11.11 3.59 11.11 C3.34 11.12 3.09 11.12 2.84 11.12 C2.72 11.12 2.72 11.12 2.15 11.12 C1.95 11.12 1.75 11.12 1.54 11.12 C1 11 1 11 0 10 C0 6.7 0 3.4 0 0 Z " fill="#000000" transform="translate(557,766)"/>
<path d="M0 0 C3.5 -0.02 7.01 -0.04 10.51 -0.05 C12.14 -0.06 13.76 -0.06 15.39 -0.08 C16.96 -0.09 18.53 -0.09 20.1 -0.09 C20.7 -0.1 21.29 -0.1 21.89 -0.11 C22.73 -0.11 23.57 -0.11 24.41 -0.11 C24.66 -0.12 24.91 -0.12 25.16 -0.12 C26.81 -0.11 26.81 -0.11 27.64 0.39 C28.12 1.21 28.23 1.99 28.33 2.91 C28.35 3.11 28.37 3.3 28.4 3.5 C28.44 3.91 28.49 4.33 28.54 4.75 C28.61 5.42 28.7 6.09 28.78 6.76 C29.02 8.67 29.26 10.57 29.47 12.48 C31.1 26.97 31.1 26.97 36.13 31.02 C37.08 31.65 38.06 32.11 39.12 32.51 C39.78 32.76 40.42 33.05 41.07 33.34 C42.37 33.92 43.68 34.47 45 35 C51.56 37.66 55.42 40.77 59 47 C59.15 47.26 59.29 47.51 59.45 47.77 C61.26 51.19 61.17 54.97 61.19 58.75 C61.19 58.99 61.19 59.24 61.19 59.49 C61.19 60.2 61.18 60.9 61.17 61.61 C61.17 61.82 61.17 62.03 61.16 62.25 C61.16 62.35 61.16 62.35 61.15 62.86 C61.14 62.94 61.14 62.94 61.13 63.38 C61 64 61 64 60 66 C57.36 66 54.72 66 52 66 C51.94 65.55 51.94 65.55 51.63 63.26 C51.51 62.38 51.38 61.49 51.26 60.61 C51.17 60 51.09 59.39 51.01 58.78 C50.18 52.53 50.18 52.53 48 50 C47.01 50.33 46.02 50.66 45 51 C45.14 51.24 45.29 51.49 45.44 51.74 C47.05 54.85 47.2 57.82 47.19 61.25 C47.19 61.48 47.19 61.7 47.19 61.93 C47.19 62.59 47.18 63.24 47.17 63.89 C47.17 64.09 47.17 64.29 47.16 64.49 C47.14 65.32 47.09 65.88 46.6 66.55 C45.8 67.15 45.31 67.12 44.33 67.11 C44.16 67.11 43.99 67.11 43.82 67.11 C43.28 67.11 42.73 67.11 42.18 67.1 C41.8 67.1 41.42 67.09 41.04 67.09 C40.05 67.09 39.05 67.08 38.05 67.07 C37.03 67.06 36.01 67.05 34.99 67.05 C33 67.04 31 67.02 29 67 C28.05 65.4 27.89 64.36 28.04 62.53 C28.07 62.04 28.09 61.55 28.12 61.07 C28.12 60.94 28.12 60.94 28.15 60.29 C28.52 51.47 25.88 44.24 19.92 37.69 C17.45 35.09 14.57 33.32 11.28 31.9 C7.52 30.2 4.21 26.94 2.62 23.08 C1.95 20.97 1.59 18.83 1.27 16.64 C1.16 15.96 1.04 15.28 0.91 14.6 C0.03 9.72 -0.15 4.96 0 0 Z " fill="#000000" transform="translate(558,782)"/>
<path d="M0 0 C11.55 0 23.1 0 35 0 C37.35 8.21 37.35 8.21 37 13 C32.45 13.02 27.91 13.04 23.36 13.05 C21.25 13.06 19.14 13.06 17.03 13.08 C15.19 13.09 13.35 13.09 11.51 13.09 C10.54 13.1 9.56 13.1 8.59 13.11 C7.67 13.11 6.75 13.11 5.84 13.11 C5.34 13.11 4.84 13.12 4.35 13.12 C4.05 13.12 3.75 13.12 3.45 13.12 C3.19 13.12 2.93 13.12 2.67 13.12 C2 13 2 13 1 12 C0.67 8.04 0.34 4.08 0 0 Z " fill="#000000" transform="translate(513,783)"/>
<path d="M0 0 C-9.82 10.42 -16.98 16.53 -31.71 17.07 C-35.14 17.17 -38.57 17.12 -42 17 C-40.05 14.83 -38.23 13.42 -35.51 12.27 C-35.17 12.12 -34.83 11.97 -34.49 11.82 C-33.59 11.42 -32.67 11.02 -31.76 10.63 C-30.99 10.31 -30.23 9.97 -29.46 9.64 C-27.66 8.86 -25.85 8.08 -24.04 7.31 C-22.18 6.52 -20.33 5.71 -18.48 4.9 C-16.88 4.2 -15.28 3.5 -13.67 2.82 C-12.72 2.41 -11.76 2 -10.81 1.58 C-9.92 1.19 -9.02 0.8 -8.12 0.43 C-7.79 0.29 -7.47 0.15 -7.14 0 C-4.46 -1.21 -2.67 -0.93 0 0 Z " fill="#000000" transform="translate(485,796)"/>
<path d="M0 0 C11.55 0 23.1 0 35 0 C40 10 40 10 40 12 C40.15 12.06 40.15 12.06 40.88 12.34 C57.81 18.95 57.81 18.95 62 26 C62.31 26.45 62.61 26.91 62.92 27.36 C65.59 31.63 66.65 37.92 65.85 42.92 C65.36 44.82 64.57 46.75 63 48 C62.24 48.11 62.24 48.11 61.37 48.1 C61.21 48.1 61.21 48.1 60.42 48.09 C60.26 48.08 60.26 48.08 59.44 48.06 C59.11 48.06 58.78 48.05 58.44 48.05 C57.63 48.04 56.81 48.02 56 48 C55.99 47.93 55.99 47.93 55.95 47.55 C54.54 34.95 54.54 34.95 52.06 30.75 C51.9 30.48 51.75 30.2 51.58 29.92 C50.5 28.26 49.49 27.62 47.58 27.12 C47.39 27.08 47.2 27.04 47 27 C47.12 27.75 47.24 28.5 47.38 29.25 C47.39 29.35 47.39 29.35 47.47 29.87 C47.7 31.17 48.08 32.16 48.75 33.3 C50.42 36.18 50.23 39.01 50.12 42.25 C50.11 42.81 50.11 43.37 50.1 43.93 C50.08 45.29 50.04 46.64 50 48 C48.59 48.02 47.19 48.04 45.78 48.05 C45.3 48.06 44.83 48.07 44.35 48.08 C43.66 48.09 42.97 48.09 42.29 48.1 C42.07 48.1 41.86 48.11 41.64 48.11 C40.75 48.11 40.17 48.09 39.38 47.65 C38.79 46.64 38.73 45.61 38.61 44.45 C38.54 43.93 38.47 43.42 38.4 42.9 C38.37 42.63 38.33 42.36 38.3 42.08 C37.11 33.21 37.11 33.21 33.59 30.36 C32.48 29.68 31.25 29.33 30 29 C30.12 29.26 30.24 29.51 30.37 29.78 C33.27 36 34.65 41.13 34 48 C19.8 48.69 19.8 48.69 15.33 47.46 C15.25 47.44 15.25 47.44 14.84 47.33 C11.67 46.27 9.56 43.73 8.07 40.88 C7.87 40.47 7.67 40.07 7.47 39.66 C7.42 39.55 7.42 39.55 7.15 39.01 C4.45 33.52 3.38 27.71 2.34 21.73 C2.14 20.59 1.92 19.45 1.7 18.31 C1.48 17.18 1.27 16.05 1.07 14.93 C0.97 14.4 0.87 13.88 0.77 13.36 C-0.08 8.8 0 4.76 0 0 Z " fill="#000000" transform="translate(516,801)"/>
<path d="M0 0 C0.65 -0.01 1.3 -0.02 1.95 -0.04 C9.97 -0.21 18.12 1.56 24.16 7.3 C26.13 9.42 27.69 11.83 29.16 14.3 C29.29 14.52 29.42 14.73 29.55 14.95 C31.21 17.82 31.51 21.13 31.91 24.37 C31.94 24.58 31.97 24.79 32 25.02 C32.44 28.34 31.96 30.47 30.16 33.3 C29.01 33.33 27.87 33.35 26.72 33.37 C26.4 33.38 26.07 33.38 25.74 33.39 C25.42 33.4 25.11 33.4 24.79 33.4 C24.5 33.41 24.21 33.41 23.92 33.42 C23.16 33.3 23.16 33.3 22.58 32.95 C21.94 31.97 21.91 30.98 21.8 29.83 C21.74 29.32 21.68 28.81 21.62 28.3 C21.58 28.04 21.55 27.77 21.52 27.5 C20.98 23.34 20.32 19.58 17.85 16.12 C17.75 15.98 17.66 15.83 17.56 15.69 C16.17 13.66 14.83 13.06 12.49 12.63 C11.72 12.5 10.94 12.39 10.16 12.3 C10.34 12.56 10.51 12.82 10.7 13.08 C11.36 14.05 12.01 15.02 12.67 15.99 C12.95 16.4 13.24 16.82 13.52 17.23 C13.93 17.83 14.34 18.44 14.75 19.04 C14.88 19.22 15 19.41 15.13 19.59 C18.07 23.99 17.16 27.81 17.16 33.3 C-0.33 33.3 -17.82 33.3 -35.84 33.3 C-35.86 28.38 -35.88 23.45 -35.9 18.37 C-35.91 16.81 -35.92 15.25 -35.93 13.65 C-35.93 11.75 -35.93 11.75 -35.94 10.86 C-35.94 10.24 -35.94 9.62 -35.95 8.99 C-35.95 8.05 -35.95 7.11 -35.95 6.17 C-35.96 6.03 -35.96 6.03 -35.96 5.33 C-35.96 5.08 -35.96 4.82 -35.96 4.56 C-35.96 4.34 -35.96 4.12 -35.96 3.9 C-35.8 3.1 -35.47 2.8 -34.84 2.3 C-34.16 2.15 -33.55 2.06 -32.86 2.01 C-32.66 1.99 -32.45 1.97 -32.25 1.95 C-31.58 1.88 -30.9 1.83 -30.23 1.77 C-29.75 1.73 -29.27 1.68 -28.79 1.64 C-27.23 1.5 -25.66 1.37 -24.09 1.24 C-23.82 1.22 -23.56 1.2 -23.28 1.18 C-15.53 0.54 -7.78 0.07 0 0 Z " fill="#000000" transform="translate(480.8396759033203,815.6953926086426)"/>
<path d="M0 0 C0.02 3.76 0.04 7.53 0.05 11.29 C0.06 13.04 0.06 14.79 0.08 16.53 C0.09 18.22 0.09 19.91 0.09 21.59 C0.1 22.24 0.1 22.88 0.11 23.52 C0.11 24.42 0.11 25.32 0.11 26.22 C0.12 26.36 0.12 26.36 0.12 27.04 C0.12 27.28 0.12 27.53 0.12 27.78 C0.12 27.99 0.12 28.2 0.12 28.42 C0 29 0 29 -1 30 C-3.97 30 -6.94 30 -10 30 C-10 20.43 -10 10.86 -10 1 C-3.04 -1.32 -3.04 -1.32 0 0 Z " fill="#000000" transform="translate(440,819)"/>
<path d="M0 0 C0 9.57 0 19.14 0 29 C-8.97 29.12 -8.97 29.12 -12.82 29.15 C-15.45 29.16 -18.08 29.18 -20.71 29.23 C-29.2 29.36 -37.54 29.49 -45.88 27.66 C-46.15 27.6 -46.43 27.54 -46.71 27.47 C-52.22 26.24 -57.17 23.86 -62 21 C-62 20.67 -62 20.34 -62 20 C-61.72 19.96 -61.44 19.92 -61.15 19.88 C-34.08 16.12 -34.08 16.12 -23 11 C-22.7 10.86 -22.41 10.73 -22.1 10.59 C-10.22 5.12 -10.22 5.12 -5.07 1.25 C-4.84 1.08 -4.61 0.92 -4.38 0.75 C-4.18 0.61 -3.99 0.46 -3.79 0.31 C-3 0 -3 0 0 0 Z " fill="#000000" transform="translate(408,820)"/>
<path d="M0 0 C0 9.57 0 19.14 0 29 C-3.63 29 -7.26 29 -11 29 C-12.13 27.87 -12.13 27.87 -12.13 26.91 C-12.13 26.8 -12.13 26.8 -12.14 26.25 C-12.13 26.01 -12.13 25.78 -12.13 25.53 C-12.13 25.28 -12.13 25.03 -12.13 24.77 C-12.14 23.94 -12.14 23.11 -12.13 22.29 C-12.13 21.71 -12.13 21.13 -12.14 20.56 C-12.14 19.35 -12.14 18.14 -12.13 16.93 C-12.12 15.38 -12.13 13.83 -12.13 12.28 C-12.14 11.09 -12.14 9.9 -12.13 8.71 C-12.13 8.14 -12.13 7.57 -12.14 7 C-12.14 6.2 -12.13 5.4 -12.13 4.6 C-12.13 4.36 -12.13 4.13 -12.14 3.89 C-12.12 2.41 -11.88 1.22 -11 0 C-10.15 -0.49 -9.22 -0.55 -8.25 -0.69 C-8.01 -0.73 -7.77 -0.78 -7.52 -0.83 C-4.74 -1.27 -3.03 -0.61 0 0 Z " fill="#000000" transform="translate(425,820)"/>
</svg>
