<?xml version="1.0" encoding="UTF-8"?>
<!-- Generator: visioncortex VTracer 0.6.5 -->
<svg version="1.1" xmlns="http://www.w3.org/2000/svg" width="1024" height="1024">
<path d="M0,0 L58,0 L64,9 L69,0 L76,0 L79,3 L93,4 L100,8 L104,12 L104,20 L101,27 L99,27 L98,30 L90,31 L84,28 L83,26 L78,27 L56,37 L46,34 L41,42 L40,56 L31,68 L29,71 L39,69 L46,69 L54,73 L63,71 L110,53 L156,35 L161,30 L171,14 L180,0 L186,0 L184,5 L172,24 L163,38 L159,41 L117,57 L83,70 L50,81 L37,83 L40,89 L40,91 L3,99 L0,99 L0,15 L8,21 L12,25 L19,49 L18,56 L4,83 L8,81 L22,61 L34,44 L42,31 L32,28 L23,25 L19,28 L15,19 L2,8 L0,7 Z " fill="#000000" transform="translate(0,0)"/>
<path d="M0,0 L9,0 L0,19 L-9,36 L16,28 L84,6 L102,0 L112,0 L109,2 L46,23 L-1,38 L-21,43 L-20,38 L-6,11 Z " fill="#000000" transform="translate(191,0)"/>
<path d="M0,0 L13,0 L10,2 L-35,19 L-51,25 L-53,25 L-53,27 L-48,28 L-18,40 L-16,41 L41,41 L42,46 L26,48 L-5,51 L-17,51 L-72,35 L-79,36 L-138,58 L-178,73 L-229,92 L-275,109 L-310,122 L-312,122 L-312,110 L-300,105 L-244,86 L-196,69 L-141,50 L-93,33 L-47,17 L-11,4 Z M-62,28 L-62,30 L-19,46 L-16,47 L3,47 L32,45 L32,44 L-16,44 L-58,28 Z " fill="#000000" transform="translate(312,0)"/>
<path d="M0,0 L66,0 L62,16 L58,31 L72,3 L73,0 L133,0 L133,6 L124,5 L108,6 L105,7 L128,11 L133,14 L133,99 L127,101 L100,107 L85,110 L42,122 L-16,138 L-89,158 L-100,164 L-119,177 L-121,177 L-121,170 L-99,156 L-89,151 L-2,127 L85,103 L96,100 L96,98 L79,99 L75,96 L36,84 L29,77 L21,67 L9,53 L1,43 Z " fill="#000000" transform="translate(891,0)"/>
<path d="M0,0 L4,0 L5,9 L10,3 L14,4 L12,8 L6,15 L5,18 L4,32 L16,25 L18,25 L21,15 L23,10 L27,11 L26,16 L25,20 L30,17 L34,17 L33,21 L28,25 L36,28 L36,31 L18,30 L8,36 L12,39 L19,43 L28,42 L35,41 L36,45 L28,48 L34,52 L33,56 L29,55 L24,52 L27,61 L23,62 L19,53 L17,48 L7,42 L4,41 L5,56 L12,64 L14,69 L10,70 L5,64 L4,73 L0,73 L-1,64 L-6,70 L-10,69 L-8,64 L-1,56 L-1,41 L-14,49 L-18,61 L-22,62 L-21,53 L-27,56 L-30,55 L-30,52 L-23,48 L-32,45 L-31,41 L-20,43 L-13,42 L-4,37 L-9,33 L-14,30 L-22,30 L-32,31 L-31,27 L-23,26 L-23,24 L-28,22 L-30,21 L-30,17 L-25,18 L-21,19 L-23,11 L-19,10 L-14,24 L0,32 L-1,17 L-10,6 L-9,3 L-5,4 L-1,9 Z " fill="#000000" transform="translate(805,27)"/>
<path d="M0,0 L4,0 L4,9 L6,9 L8,5 L10,3 L14,4 L11,9 L6,15 L4,30 L14,25 L17,23 L21,11 L25,9 L26,12 L24,18 L29,16 L33,17 L32,20 L26,22 L26,24 L33,25 L35,28 L34,29 L19,28 L8,34 L12,37 L19,41 L34,39 L34,43 L27,45 L32,49 L32,53 L26,51 L24,51 L26,58 L22,59 L17,46 L7,40 L4,39 L5,52 L9,58 L14,64 L13,66 L9,65 L6,62 L6,60 L4,60 L4,70 L0,69 L-1,61 L-5,66 L-9,65 L-7,61 L-1,54 L0,39 L-12,46 L-16,58 L-20,59 L-21,56 L-18,49 L-25,53 L-28,52 L-28,49 L-22,46 L-21,44 L-29,43 L-29,39 L-21,40 L-14,41 L-3,35 L-7,32 L-14,28 L-30,29 L-30,26 L-22,23 L-28,19 L-28,16 L-23,17 L-19,18 L-21,13 L-20,9 L-17,10 L-12,23 L-1,30 L-1,15 L-9,6 L-9,3 L-4,4 L0,7 Z " fill="#000000" transform="translate(404,75)"/>
<path d="M0,0 L6,0 L12,5 L13,7 L13,14 L8,20 L1,21 L-4,18 L-7,14 L-7,7 L-4,2 Z " fill="#000000" transform="translate(619,89)"/>
<path d="M0,0 L2,0 L2,12 L-9,17 L-58,35 L-109,54 L-117,57 L-86,70 L-56,83 L-49,86 L-43,85 L-9,73 L1,56 L2,56 L2,61 L-7,76 L-46,90 L-55,87 L-94,71 L-121,60 L-140,52 L-141,50 L-105,37 L-62,22 L-14,5 Z " fill="#000000" transform="translate(1022,110)"/>
<path d="M0,0 L8,0 L13,5 L14,7 L14,13 L11,18 L8,20 L0,20 L-5,16 L-6,14 L-6,6 L-2,1 Z " fill="#000000" transform="translate(98,113)"/>
<path d="M0,0 L3,1 L-1,11 L-10,30 L-11,26 L-10,22 L-11,18 Z M-7,16 Z M-8,17 L-7,19 Z M-9,19 L-8,21 Z " fill="#000000" transform="translate(11,146)"/>
<path d="M0,0 L9,1 L43,13 L91,30 L120,40 L162,55 L164,56 L164,60 L154,58 L110,44 L76,34 L74,34 L93,76 L103,99 L111,104 L139,120 L155,130 L158,132 L157,135 L151,133 L125,120 L110,113 L119,134 L124,146 L124,150 L121,149 L108,126 L93,99 L85,85 L84,84 L72,130 L68,130 L75,84 L77,71 L70,57 L60,39 L54,28 L35,22 L6,14 L-3,17 L-33,29 L-45,35 L-63,49 L-80,62 L-89,69 L-90,69 L-90,44 L-76,34 L-59,23 L-51,18 L-30,11 L-5,2 Z M66,31 L68,37 L84,70 L97,97 L99,98 L96,89 L80,54 L71,33 L69,31 Z M99,98 L100,100 Z M100,100 L102,107 L105,110 L105,108 L128,119 L135,123 L137,122 L122,113 L104,103 L102,103 L101,100 Z M105,110 L106,112 Z M106,112 L107,115 Z M107,115 L108,117 Z M108,117 L109,119 Z M109,119 L110,121 Z M110,122 Z M137,123 Z M111,124 Z M140,124 Z " fill="#000000" transform="translate(860,165)"/>
<path d="M0,0 L2,1 L2,3 L-18,11 L-1,13 L26,16 L26,19 L-35,18 L-47,23 L-49,23 L-49,19 L-44,17 L-49,18 L-48,15 L-4,1 Z M-32,12 Z M-35,13 Z M-38,14 Z " fill="#000000" transform="translate(49,165)"/>
<path d="M0,0 L1,0 L1,5 L-29,18 L-30,19 L1,32 L1,35 L-8,32 L-42,18 L-42,16 Z " fill="#000000" transform="translate(1023,184)"/>
<path d="M0,0 L5,1 L6,11 L12,4 L16,5 L15,9 L8,17 L6,20 L6,38 L20,30 L24,20 L27,13 L31,13 L30,21 L30,24 L37,20 L40,21 L40,25 L32,30 L42,33 L43,35 L42,37 L31,36 L23,35 L9,43 L13,46 L24,52 L41,49 L43,53 L33,57 L41,62 L40,66 L34,65 L29,62 L31,69 L31,74 L27,74 L23,64 L19,56 L6,49 L6,68 L13,75 L16,79 L15,83 L11,82 L6,76 L5,86 L1,87 L0,86 L-1,76 L-8,83 L-11,83 L-12,80 L-3,69 L-1,67 L-1,49 L-15,57 L-19,65 L-23,74 L-26,74 L-27,71 L-24,62 L-31,66 L-36,65 L-35,61 L-27,57 L-37,54 L-38,50 L-35,49 L-19,52 L-5,44 L-4,43 L-18,35 L-27,36 L-38,37 L-38,33 L-32,31 L-27,31 L-27,29 L-32,27 L-36,24 L-35,20 L-31,21 L-24,25 L-27,17 L-27,13 L-23,12 L-19,21 L-16,29 L-1,38 L-1,20 L-11,9 L-12,5 L-8,4 L-1,11 Z " fill="#000000" transform="translate(686,198)"/>
<path d="M0,0 L5,1 L31,12 L32,17 L29,18 L1,9 L0,4 L21,11 L0,3 Z M23,12 Z M26,13 Z " fill="#000000" transform="translate(0,217)"/>
<path d="M0,0 L6,2 L9,5 L10,7 L10,15 L6,20 L4,21 L-3,21 L-7,19 L-10,14 L-10,8 L-6,2 Z " fill="#000000" transform="translate(457,230)"/>
<path d="M0,0 L8,0 L13,5 L14,12 L11,18 L7,20 L0,20 L-5,16 L-6,14 L-6,6 L-2,1 Z " fill="#000000" transform="translate(151,254)"/>
<path d="M0,0 L4,1 L4,15 L0,71 L18,58 L37,44 L53,32 L56,31 L58,34 L53,39 L42,49 L31,58 L21,67 L10,76 L1,84 L-1,84 L1,95 L22,178 L24,176 L37,143 L41,135 L57,123 L75,110 L92,98 L111,84 L115,83 L117,88 L103,100 L88,113 L73,126 L63,135 L52,144 L49,150 L38,184 L25,228 L12,263 L-9,319 L-13,329 L12,316 L28,308 L53,296 L57,297 L58,300 L31,318 L13,329 L-2,339 L-13,346 L-19,350 L-21,350 L-24,360 L-29,381 L-51,492 L-65,562 L-56,557 L-45,549 L-21,533 L-6,523 L30,513 L92,496 L172,474 L204,465 L206,465 L204,462 L186,464 L183,461 L139,448 L132,442 L123,431 L112,418 L112,416 L110,416 L101,405 L98,401 L97,382 L97,334 L107,318 L122,295 L133,278 L127,267 L123,260 L110,263 L98,275 L91,281 L90,283 L88,283 L84,267 L77,235 L77,230 L89,216 L100,202 L110,191 L128,189 L155,187 L167,187 L178,196 L195,210 L209,221 L211,226 L221,275 L220,282 L207,306 L205,309 L215,303 L225,301 L269,296 L270,295 L245,291 L230,285 L227,282 L230,279 L241,283 L241,281 L235,279 L231,277 L232,273 L237,274 L243,277 L238,272 L234,269 L235,266 L240,267 L244,268 L237,262 L239,258 L243,260 L254,267 L273,272 L283,276 L289,281 L297,266 L296,262 L297,245 L301,212 L303,211 L318,235 L319,238 L321,238 L322,229 L326,212 L328,211 L338,229 L348,249 L359,256 L372,264 L380,277 L395,305 L397,308 L396,315 L387,325 L379,331 L358,335 L345,337 L340,337 L338,341 L332,349 L333,353 L335,355 L352,356 L361,362 L364,366 L363,376 L361,381 L358,381 L357,385 L348,386 L343,384 L340,381 L340,379 L314,391 L306,392 L301,390 L298,390 L292,400 L292,413 L288,420 L278,433 L295,429 L305,433 L309,435 L339,424 L375,410 L414,395 L424,391 L439,368 L456,342 L464,330 L472,321 L489,309 L505,297 L523,284 L544,268 L562,255 L571,226 L583,187 L586,180 L588,179 L590,180 L585,205 L577,244 L593,232 L611,219 L619,213 L623,215 L617,222 L606,231 L595,240 L579,253 L562,267 L551,276 L537,288 L532,292 L533,293 L590,299 L594,300 L593,304 L571,304 L539,303 L518,303 L503,316 L489,327 L483,332 L468,360 L453,390 L452,392 L501,377 L559,359 L630,337 L682,321 L687,321 L688,326 L674,332 L625,350 L596,361 L580,367 L579,368 L638,382 L656,381 L711,376 L723,376 L723,381 L722,382 L648,392 L638,393 L574,383 L550,379 L545,380 L501,396 L463,410 L412,429 L366,446 L320,463 L277,479 L234,495 L180,515 L126,535 L120,537 L123,539 L161,552 L197,564 L246,580 L282,592 L291,591 L318,580 L337,573 L350,549 L363,526 L368,518 L371,519 L370,525 L358,552 L352,567 L400,550 L420,543 L423,543 L424,546 L408,554 L396,559 L439,561 L463,562 L463,566 L443,567 L395,568 L373,569 L344,583 L310,600 L320,604 L384,626 L401,632 L402,635 L400,640 L393,639 L307,617 L240,600 L228,597 L236,613 L247,635 L257,654 L272,683 L274,688 L283,691 L306,703 L338,719 L353,727 L352,731 L346,730 L305,713 L284,704 L293,723 L305,746 L308,752 L307,755 L303,754 L294,740 L283,722 L268,699 L257,681 L247,666 L246,666 L233,729 L232,731 L227,731 L228,716 L235,656 L235,647 L220,623 L209,606 L200,592 L200,590 L177,586 L67,565 L56,563 L50,563 L23,573 L11,579 L-4,591 L-18,602 L-34,615 L-51,628 L-67,641 L-77,649 L-91,660 L-105,671 L-121,684 L-135,695 L-151,708 L-164,718 L-179,730 L-193,741 L-208,753 L-218,761 L-213,763 L-158,774 L-152,774 L-119,752 L-111,747 L-94,743 L-50,734 L-39,734 L26,747 L62,771 L79,783 L95,809 L110,833 L113,844 L121,852 L124,857 L125,880 L138,862 L141,856 L130,845 L123,835 L122,832 L122,823 L124,810 L125,808 L129,810 L142,823 L145,830 L145,851 L155,836 L157,833 L156,829 L148,821 L141,810 L139,805 L139,794 L142,782 L146,784 L158,796 L161,802 L162,824 L169,812 L171,800 L174,786 L178,780 L185,774 L197,768 L197,783 L195,794 L190,800 L182,807 L176,812 L168,825 L167,828 L182,820 L185,819 L194,819 L209,824 L213,826 L212,829 L197,838 L192,840 L182,839 L162,834 L160,839 L153,850 L151,854 L169,846 L175,845 L187,848 L198,854 L193,859 L180,866 L169,866 L150,861 L145,862 L134,878 L131,883 L145,878 L154,877 L163,880 L177,888 L178,890 L159,898 L153,899 L140,895 L126,889 L120,898 L117,908 L127,905 L137,905 L147,909 L157,915 L157,917 L149,921 L-15,921 L-12,916 L1,900 L12,886 L23,872 L26,869 L80,858 L84,858 L83,851 L71,854 L38,861 L33,861 L35,857 L48,841 L59,826 L60,824 L56,822 L48,831 L40,841 L38,842 L40,816 L41,807 L35,805 L34,821 L31,852 L20,866 L7,882 L-4,896 L-15,910 L-22,919 L-23,919 L-24,897 L-24,837 L-10,816 L8,789 L9,787 L4,785 L-11,807 L-21,822 L-24,825 L-25,802 L-25,774 L-31,774 L-31,804 L-36,799 L-47,786 L-54,777 L-54,775 L-59,778 L-57,783 L-49,792 L-38,806 L-31,814 L-30,846 L-30,913 L-38,907 L-45,900 L-53,893 L-63,884 L-77,872 L-88,862 L-90,853 L-99,800 L-99,797 L-105,798 L-96,851 L-97,854 L-112,841 L-124,830 L-128,827 L-132,829 L-130,833 L-118,844 L-110,851 L-103,857 L-103,858 L-117,857 L-169,851 L-168,857 L-98,865 L-92,867 L-78,879 L-63,893 L-55,900 L-45,909 L-37,916 L-32,921 L-198,921 L-201,913 L-206,895 L-200,855 L-197,836 L-185,816 L-171,794 L-164,783 L-161,782 L-161,780 L-171,779 L-221,769 L-228,769 L-237,776 L-241,779 L-241,722 L-198,693 L-182,683 L-170,675 L-137,653 L-121,643 L-105,632 L-63,604 L-37,587 L-5,566 L7,559 L59,541 L66,540 L109,552 L169,569 L225,585 L291,604 L343,619 L381,630 L385,631 L349,619 L302,603 L295,599 L296,597 L337,579 L368,566 L348,573 L346,573 L347,567 L354,551 L341,575 L333,579 L288,597 L279,596 L243,584 L182,564 L116,542 L107,539 L108,537 L92,531 L93,529 L120,520 L168,503 L211,488 L260,471 L294,459 L349,440 L383,428 L443,407 L510,384 L562,366 L581,359 L614,348 L651,335 L653,334 L594,353 L556,365 L508,380 L453,397 L441,400 L437,399 L447,380 L459,357 L469,339 L475,328 L491,315 L504,305 L522,291 L537,279 L538,278 L522,290 L503,304 L490,314 L474,326 L470,331 L456,354 L444,373 L430,395 L426,398 L379,416 L345,429 L309,441 L305,443 L290,446 L290,449 L292,454 L285,456 L206,473 L189,477 L116,497 L54,514 L3,528 L-7,532 L-23,543 L-46,559 L-62,570 L-70,575 L-72,574 L-75,575 L-100,589 L-116,597 L-112,581 L-96,527 L-94,520 L-93,520 L-92,529 L-91,552 L-88,543 L-70,475 L-52,408 L-41,367 L-21,315 L-2,267 L13,227 L20,208 L18,203 L6,148 L-6,92 L-6,79 L-3,45 L-8,82 L-8,92 L1,144 L1,151 L-7,145 L-23,133 L-36,122 L-46,114 L-42,119 L-27,134 L-19,141 L-7,153 L1,160 L4,164 L12,210 L12,221 L-2,255 L-30,325 L-44,360 L-50,377 L-61,411 L-74,453 L-80,470 L-82,471 L-98,431 L-108,404 L-129,346 L-128,337 L-110,251 L-120,287 L-132,329 L-135,326 L-150,284 L-159,260 L-147,304 L-129,368 L-127,375 L-127,379 L-132,377 L-154,363 L-177,348 L-192,338 L-187,343 L-175,352 L-158,366 L-142,378 L-126,391 L-121,396 L-105,453 L-98,477 L-100,486 L-117,534 L-138,594 L-142,604 L-150,610 L-179,627 L-206,643 L-226,655 L-239,663 L-241,663 L-241,655 L-214,639 L-192,626 L-160,607 L-149,600 L-143,585 L-129,545 L-113,500 L-105,478 L-107,467 L-126,399 L-131,393 L-145,382 L-159,371 L-173,360 L-189,347 L-203,336 L-211,330 L-210,325 L-206,324 L-189,335 L-167,349 L-150,360 L-134,370 L-156,289 L-166,253 L-168,245 L-168,240 L-161,239 L-144,287 L-134,315 L-134,317 L-132,317 L-130,306 L-118,262 L-109,230 L-108,228 L-103,228 L-102,233 L-122,333 L-123,337 L-123,347 L-107,391 L-89,440 L-82,457 L-80,454 L-62,396 L-52,364 L-30,310 L-1,238 L7,219 L6,206 L-1,165 L-25,141 L-33,134 L-56,111 L-64,104 L-72,96 L-70,92 L-66,93 L-53,104 L-40,114 L-26,125 L-15,134 L-4,142 L-13,89 L-11,70 L-2,6 Z M-2,30 L-2,37 L-1,37 L-1,30 Z M34,50 Z M32,51 Z M31,52 Z M30,53 Z M29,54 Z M27,55 L26,57 L29,56 Z M25,57 Z M23,58 L6,71 L-1,76 L-1,81 L6,75 L17,66 L25,59 Z M96,99 Z M95,100 Z M93,101 L92,103 L95,102 Z M91,103 Z M89,104 L87,107 L91,105 Z M85,107 L72,117 L58,127 L45,137 L42,141 L24,186 L21,202 L22,205 L34,174 L45,145 L47,141 L58,132 L69,123 L82,112 L87,107 Z M-54,108 Z M-53,109 Z M-51,110 Z M-50,111 Z M-49,112 Z M153,193 L125,195 L125,196 L151,201 L167,206 L184,215 L186,215 L188,221 L203,252 L213,275 L212,281 L211,286 L214,282 L215,280 L214,270 L205,226 L193,215 L180,205 L168,195 L165,193 Z M581,203 L582,206 Z M580,206 L568,248 L565,257 L569,255 L573,251 L574,241 L581,210 Z M306,234 L303,254 L304,261 L311,273 L313,273 L321,260 L313,244 L307,234 Z M587,240 Z M584,242 Z M583,243 Z M-109,244 L-108,246 Z M580,245 Z M579,246 Z M578,247 Z M576,248 Z M575,249 Z M573,250 Z M-161,253 L-160,256 Z M328,253 L331,256 L346,260 L366,271 L372,275 L370,270 L363,264 L343,253 Z M564,257 Z M562,258 L555,264 L558,264 L564,259 Z M554,265 Z M552,266 L551,268 L554,267 Z M550,268 Z M548,269 L546,272 L550,270 Z M544,272 L542,275 L546,273 Z M350,278 L335,280 L339,297 L344,301 L361,300 L364,299 L363,291 L360,283 L356,278 Z M210,286 L211,288 Z M209,288 L210,290 Z M208,291 Z M260,303 L218,308 L210,312 L196,321 L179,333 L175,336 L160,388 L161,391 L178,357 L185,341 L185,339 L190,337 L212,322 L219,319 L257,307 L267,304 L267,303 Z M204,309 Z M374,309 L364,316 L360,321 L352,323 L325,326 L329,330 L334,333 L344,332 L374,327 L384,321 L387,319 L386,314 L384,310 Z M678,325 Z M675,326 Z M672,327 Z M669,328 Z M666,329 Z M663,330 Z M660,331 Z M-198,334 Z M-197,335 Z M-195,336 Z M310,341 L308,347 L318,363 L320,362 L325,348 Z M238,356 L208,358 L212,360 L240,365 L245,368 L256,377 L259,380 L267,409 L266,414 L249,446 L253,447 L260,438 L272,421 L284,404 L291,393 L295,387 L277,380 L272,378 L268,382 L265,373 L250,361 L243,356 Z M-134,370 Z M567,371 L571,373 L638,388 L655,387 L700,382 L708,381 L708,380 L698,380 L648,385 L636,385 L579,372 L574,371 Z M708,379 L708,380 L716,380 L716,379 Z M159,391 Z M358,541 L359,543 Z M357,543 L358,545 Z M356,545 L357,547 Z M355,547 L356,549 Z M378,561 Z M375,562 Z M372,563 Z M370,564 Z M216,594 L218,599 L231,622 L246,649 L258,670 L266,684 L276,701 L281,710 L282,708 L278,699 L283,700 L313,713 L322,717 L325,716 L277,692 L272,689 L260,667 L247,642 L237,623 L225,600 L222,595 Z M282,710 L283,712 Z M283,712 L284,714 Z M284,714 L285,716 Z M285,716 Z M286,717 L287,719 Z M325,717 Z M327,718 Z M287,719 L288,721 Z M330,719 Z M288,721 Z M289,723 Z M290,725 Z M118,883 L118,889 L121,887 L119,883 Z " fill="#000000" transform="translate(241,103)"/>
<path d="M0,0 L7,0 L12,4 L14,9 L13,15 L8,20 L-1,20 L-6,15 L-7,13 L-7,7 L-2,1 Z " fill="#000000" transform="translate(944,351)"/>
<path d="M0,0 L6,1 L9,4 L11,9 L10,14 L-2,14 L-6,9 L-6,2 Z M4,4 L4,8 L7,7 L6,4 Z " fill="#000000" transform="translate(589,385)"/>
<path d="M0,0 L3,1 L4,4 L3,11 L8,6 L10,4 L14,5 L12,9 L5,17 L4,20 L3,34 L17,27 L23,12 L27,12 L26,18 L25,22 L32,18 L36,20 L31,25 L27,26 L27,28 L36,29 L37,33 L30,33 L19,32 L7,39 L19,46 L29,45 L36,44 L37,48 L29,51 L36,56 L35,59 L29,58 L24,55 L27,62 L27,66 L24,67 L20,59 L17,51 L3,43 L4,59 L14,72 L13,74 L9,73 L5,69 L5,67 L3,67 L4,76 L3,78 L-1,77 L-2,68 L-7,74 L-11,74 L-10,70 L-2,60 L-2,44 L-14,51 L-18,60 L-21,66 L-25,65 L-23,56 L-29,59 L-33,58 L-31,54 L-25,52 L-25,50 L-33,49 L-35,45 L-31,44 L-22,46 L-15,45 L-5,39 L-9,36 L-16,32 L-34,33 L-34,29 L-25,27 L-33,22 L-32,18 L-26,20 L-22,22 L-25,15 L-25,12 L-22,11 L-19,15 L-15,26 L-1,34 L-2,18 L-11,8 L-10,4 L-6,6 L-2,10 L-1,1 Z " fill="#000000" transform="translate(48,489)"/>
<path d="M0,0 L7,1 L10,5 L9,11 L6,14 L-1,14 L-5,9 L-4,3 Z " fill="#000000" transform="translate(271,528)"/>
<path d="M0,0 L4,1 L5,10 L11,4 L14,5 L13,9 L5,18 L5,34 L17,27 L19,27 L21,18 L24,12 L28,13 L26,22 L31,19 L36,20 L34,24 L28,27 L37,29 L38,33 L34,34 L24,32 L18,33 L9,38 L7,38 L7,40 L12,42 L19,46 L30,45 L36,44 L38,45 L37,49 L28,51 L36,56 L35,60 L29,58 L26,56 L28,66 L24,66 L20,57 L17,51 L5,44 L5,60 L14,70 L14,74 L10,73 L5,68 L4,77 L0,77 L-1,68 L-7,74 L-10,74 L-9,69 L-2,61 L-1,47 L0,44 L-10,49 L-15,54 L-20,66 L-24,66 L-23,60 L-22,56 L-28,59 L-32,59 L-31,55 L-26,52 L-24,52 L-24,50 L-33,49 L-34,45 L-31,44 L-21,46 L-14,45 L-5,40 L-5,38 L-17,32 L-33,34 L-34,30 L-25,27 L-32,22 L-32,19 L-26,20 L-22,22 L-24,16 L-24,12 L-20,12 L-15,25 L-15,27 L-10,29 L-1,34 L-1,19 L-10,8 L-10,4 L-6,5 L-2,9 L-2,11 L0,11 Z " fill="#000000" transform="translate(782,561)"/>
<path d="M0,0 L19,9 L27,15 L31,20 L37,36 L41,51 L51,63 L56,70 L55,45 L57,35 L63,27 L68,21 L76,14 L79,13 L81,21 L82,28 L82,43 L79,51 L69,65 L60,75 L64,82 L75,97 L78,101 L78,79 L80,69 L86,60 L101,45 L103,45 L105,55 L106,65 L106,74 L102,84 L93,96 L83,108 L85,112 L99,136 L102,142 L104,121 L107,109 L114,100 L117,99 L117,136 L106,145 L107,150 L117,169 L117,182 L114,178 L100,151 L100,149 L81,155 L71,157 L59,157 L43,149 L34,143 L35,140 L59,132 L69,132 L86,139 L96,144 L84,124 L77,113 L77,111 L61,116 L45,119 L37,119 L23,112 L12,104 L11,101 L29,95 L38,93 L47,94 L59,99 L71,106 L73,107 L64,93 L55,80 L37,84 L18,86 L10,84 L-3,77 L-11,70 L-11,68 L11,61 L19,60 L28,62 L44,70 L51,74 L41,61 L37,56 L37,54 L33,52 L17,42 L8,34 L4,26 L1,14 Z M79,103 Z M74,108 Z " fill="#000000" transform="translate(907,583)"/>
<path d="M0,0 L7,1 L11,5 L12,7 L12,14 L7,20 L1,21 L-5,18 L-8,14 L-8,7 L-3,1 Z " fill="#000000" transform="translate(83,602)"/>
<path d="M0,0 L6,1 L11,6 L12,13 L9,18 L4,21 L-3,20 L-8,14 L-8,7 L-3,1 Z " fill="#000000" transform="translate(868,678)"/>
<path d="M0,0 L5,0 L6,5 L-2,13 L-15,23 L-45,37 L-57,41 L-60,40 L-53,33 L-37,21 L-20,10 L-5,2 Z " fill="#000000" transform="translate(179,689)"/>
<path d="M0,0 L8,0 L13,4 L14,6 L14,13 L10,19 L8,20 L0,20 L-5,16 L-6,14 L-6,6 L-2,1 Z " fill="#000000" transform="translate(258,734)"/>
<path d="M0,0 L4,4 L11,15 L20,13 L35,9 L44,9 L57,14 L72,23 L74,25 L74,29 L56,33 L50,34 L36,34 L24,28 L15,21 L22,32 L32,47 L36,53 L43,52 L58,47 L74,43 L74,50 L66,53 L41,61 L30,75 L16,94 L9,104 L7,103 L0,8 Z " fill="#000000" transform="translate(950,742)"/>
<path d="M0,0 L1,0 L5,51 L11,128 L11,141 L6,136 L-3,124 L-5,124 L-4,128 L6,141 L8,144 L10,144 L14,138 L16,138 L14,125 L13,109 L26,92 L41,72 L47,64 L52,69 L65,89 L79,110 L79,123 L61,161 L57,169 L57,181 L55,192 L48,206 L35,221 L30,226 L31,230 L44,250 L45,252 L48,227 L51,215 L56,206 L64,198 L69,193 L76,186 L77,186 L78,191 L78,212 L76,222 L69,234 L57,247 L49,255 L51,261 L63,280 L63,281 L56,281 L46,265 L42,260 L31,268 L14,277 L1,280 L-11,279 L-28,275 L-30,274 L-29,271 L-10,259 L-1,255 L6,254 L20,254 L40,256 L28,238 L25,234 L25,232 L18,236 L3,245 L-7,250 L-15,252 L-28,252 L-45,248 L-49,246 L-44,241 L-27,231 L-18,227 L-2,226 L21,228 L9,211 L1,200 L0,198 L-5,200 L-14,206 L-26,213 L-35,216 L-40,217 L-49,217 L-69,213 L-72,212 L-63,241 L-52,278 L-52,281 L-69,281 L-79,270 L-88,259 L-90,257 L-90,190 L-85,191 L-77,195 L-73,208 L-61,201 L-50,194 L-43,192 L-26,191 L-6,193 L-4,194 L-17,177 L-28,163 L-29,160 L-36,163 L-55,174 L-68,178 L-82,178 L-102,173 L-104,172 L-104,170 L-85,158 L-75,154 L-71,153 L-54,153 L-35,156 L-33,157 L-42,146 L-54,133 L-59,127 L-78,136 L-88,140 L-98,142 L-108,142 L-122,138 L-135,133 L-145,137 L-157,145 L-165,151 L-163,153 L-140,164 L-138,170 L-137,201 L-144,195 L-158,180 L-165,172 L-174,162 L-181,154 L-190,144 L-192,140 L-183,143 L-172,148 L-162,139 L-148,130 L-136,125 L-117,120 L-89,114 L-79,112 L-74,112 L-81,104 L-85,99 L-89,96 L-94,98 L-111,108 L-126,113 L-141,113 L-156,109 L-163,106 L-158,102 L-145,94 L-136,90 L-132,89 L-109,89 L-92,92 L-100,85 L-110,75 L-126,67 L-139,59 L-147,52 L-154,40 L-159,27 L-159,23 L-147,26 L-132,32 L-124,39 L-115,52 L-107,69 L-100,76 L-92,83 L-89,86 L-90,75 L-90,57 L-87,45 L-81,35 L-71,22 L-68,20 L-65,29 L-63,41 L-63,54 L-67,64 L-77,81 L-83,90 L-81,94 L-66,109 L-61,108 L-61,81 L-57,71 L-45,54 L-43,51 L-41,51 L-37,66 L-36,72 L-36,88 L-41,100 L-43,104 L-33,101 L-31,95 L-27,97 L-24,101 L-24,103 L-22,102 L-23,98 L-28,91 L-27,83 L-11,33 L-1,1 Z M-39,110 L-49,113 L-54,121 L-52,125 L-44,134 L-42,132 L-35,110 Z M-60,115 L-59,118 L-59,115 Z M-69,117 L-76,119 L-73,121 L-66,123 L-62,122 L-67,117 Z M19,176 L16,180 L19,205 L21,217 L25,222 L25,212 L21,180 Z " fill="#000000" transform="translate(945,743)"/>
<path d="M0,0 L2,1 L3,8 L7,4 L10,4 L9,8 L4,14 L3,27 L13,21 L18,9 L21,10 L20,17 L24,15 L27,15 L26,19 L22,21 L29,24 L28,26 L14,26 L7,30 L5,30 L5,32 L11,34 L14,36 L28,35 L29,38 L22,40 L27,43 L26,47 L19,44 L21,49 L21,52 L17,51 L13,41 L4,35 L4,48 L10,55 L10,58 L6,56 L2,53 L2,61 L-1,61 L-1,53 L-8,58 L-8,54 L-2,47 L-1,34 L-12,41 L-16,52 L-20,51 L-18,44 L-23,47 L-26,46 L-24,42 L-20,41 L-20,39 L-27,38 L-27,35 L-13,36 L-4,31 L-13,26 L-27,26 L-27,23 L-20,22 L-20,20 L-26,18 L-26,15 L-21,16 L-18,17 L-20,11 L-19,9 L-16,10 L-12,21 L-2,27 L-2,15 L-9,7 L-8,3 L-2,8 L-1,1 Z " fill="#000000" transform="translate(375,785)"/>
<path d="M0,0 L7,0 L11,5 L10,12 L5,15 L0,14 L-3,11 L-4,6 L-1,1 Z " fill="#000000" transform="translate(708,791)"/>
<path d="M0,0 L6,5 L14,15 L19,21 L20,24 L20,54 L22,62 L25,70 L36,67 L39,67 L40,58 L40,49 L36,29 L36,22 L46,6 L51,0 L53,2 L60,26 L58,32 L48,53 L45,64 L61,60 L89,52 L92,52 L81,15 L82,12 L94,26 L106,39 L113,47 L123,58 L130,66 L142,80 L154,93 L156,97 L144,94 L103,81 L100,78 L94,59 L90,60 L88,79 L85,84 L70,98 L65,103 L57,119 L50,134 L51,152 L46,152 L44,142 L43,132 L38,130 L12,113 L3,109 L-10,104 L-15,95 L-15,93 L-21,95 L-17,101 L-7,114 L0,123 L11,133 L25,144 L33,151 L33,152 L26,152 L9,138 L2,133 L-3,135 L-17,147 L-32,146 L-37,145 L-35,141 L-25,130 L-22,129 L-5,128 L-35,115 L-39,113 L-42,107 L-48,109 L-64,120 L-78,131 L-90,142 L-100,152 L-111,152 L-105,145 L-90,130 L-79,121 L-66,111 L-47,99 L-47,96 L-51,87 L-51,84 L-41,87 L-31,90 L-19,85 L-9,81 L0,78 L-5,74 L-15,70 L-38,62 L-46,49 L-52,39 L-51,36 L-27,41 L-21,45 L-8,62 L-1,70 L6,75 L15,73 L19,72 L17,66 L7,48 L-3,33 L-4,31 L-4,22 L-1,3 Z M80,62 Z M76,63 L45,72 L43,73 L40,90 L39,96 L39,105 L46,126 L48,127 L60,102 L64,94 L70,72 L75,67 L80,63 Z M35,75 L28,77 L31,86 L34,94 L36,92 L38,75 Z M21,79 L15,81 L16,84 L28,93 L29,91 L24,79 Z M4,84 L-2,87 L-2,88 L3,89 L12,106 L21,113 L36,123 L41,125 L37,111 L33,102 L20,92 L10,84 Z " fill="#000000" transform="translate(667,872)"/>
<path d="M0,0 L10,4 L40,19 L41,35 L41,83 L37,81 L28,71 L19,60 L9,49 L2,41 L1,40 L0,26 Z " fill="#000000" transform="translate(811,911)"/>
<path d="M0,0 L9,2 L56,17 L64,24 L78,39 L87,50 L97,61 L101,67 L85,67 L39,51 L14,42 L11,40 L0,3 Z " fill="#000000" transform="translate(770,957)"/>
<path d="M0,0 L2,0 L1,9 L-3,20 L-12,26 L-27,34 L-35,43 L-37,46 L-43,46 L-39,39 L-30,27 L-19,7 L-9,3 Z " fill="#000000" transform="translate(770,978)"/>
</svg>
