<?xml version="1.0" encoding="UTF-8"?>
<!-- Generator: visioncortex VTracer 0.6.5 -->
<svg version="1.1" xmlns="http://www.w3.org/2000/svg" width="1024" height="1024">
<path d="M0 0 C0.82 0.33 0.82 0.33 5 2 C5 3.65 5 5.3 5 7 C4.67 7.33 4.34 7.66 4 8 C2.35 8 0.7 8 -1 8 C-1.33 7.67 -1.66 7.34 -2 7 C-2 2 -2 2 0 0 Z " fill="#000000" transform="translate(359,42)"/>
<path d="M0 0 C2 4 2 4 2 6 C2.99 6.17 2.99 6.17 8 7 C5 9 5 9 2 9 C1.67 11.31 1.34 13.62 1 16 C0.34 14.68 -0.32 13.36 -1 12 C-4 9 -4 9 -7 7 C-5.02 6.67 -3.04 6.34 -1 6 C-0.67 4.02 -0.34 2.04 0 0 Z " fill="#000000" transform="translate(634,59)"/>
<path d="M0 0 C0.33 1.65 0.66 3.3 1 5 C0.67 5.5 0.67 5.5 -1 8 C-2.65 8 -4.3 8 -6 8 C-6.66 7.34 -7.32 6.68 -8 6 C-7.67 4.02 -7.34 2.04 -7 0 C-5 -1 -5 -1 0 0 Z " fill="#000000" transform="translate(88,63)"/>
<path d="M0 0 C0.66 0 1.32 0 2 0 C2.66 2.97 3.32 5.94 4 9 C7.3 9.66 10.6 10.32 14 11 C11 13 11 13 4 14 C3.34 16.97 2.68 19.94 2 23 C1.34 23 0.68 23 0 23 C-0.66 20.36 -1.32 17.72 -2 15 C-6.62 13 -6.62 13 -11 12 C-7 10 -7 10 -2 8 C-1.34 5.36 -0.68 2.72 0 0 Z " fill="#000000" transform="translate(936,63)"/>
<path d="M0 0 C0.82 0.33 0.82 0.33 5 2 C5.33 3.98 5.66 5.96 6 8 C4.68 9.32 3.36 10.64 2 12 C0.35 11.67 -1.3 11.34 -3 11 C-5 8 -5 8 -4 2 C-2.68 1.34 -1.36 0.68 0 0 Z " fill="#000000" transform="translate(427,69)"/>
<path d="M0 0 C5 1 5 1 8 5 C6 11 6 11 5 12 C2.69 12 0.38 12 -2 12 C-2.66 11.34 -3.32 10.68 -4 10 C-4 7.69 -4 5.38 -4 3 C-2.68 2.01 -1.36 1.02 0 0 Z " fill="#000000" transform="translate(302,103)"/>
<path d="M0 0 C0.66 0.33 1.32 0.66 2 1 C2 1.66 2 2.32 2 3 C2.66 3 3.32 3 4 3 C4 3.66 4 4.32 4 5 C3.34 5 2.68 5 2 5 C2 5.66 2 6.32 2 7 C1.34 7 0.68 7 0 7 C-0.99 5.68 -1.98 4.36 -3 3 C-2.01 3 -1.02 3 0 3 C0 2.01 0 1.02 0 0 Z " fill="#000000" transform="translate(658,113)"/>
<path d="M0 0 C0.99 0.99 1.98 1.98 3 3 C3 4.98 3 6.96 3 9 C2.01 9.99 1.02 10.98 0 12 C-1.98 12 -3.96 12 -6 12 C-6.99 10.68 -7.98 9.36 -9 8 C-8.67 6.02 -8.34 4.04 -8 2 C-5 0 -5 0 0 0 Z " fill="#000000" transform="translate(177,115)"/>
<path d="M0 0 C2 1 2 1 2 1 Z " fill="#000000" transform="translate(787,116)"/>
<path d="M0 0 C-4 4 -4 4 -7.75 6.62 C-21.3 17.38 -29.57 34.04 -32 51 C-33.51 71.68 -29.51 89.39 -17.06 106.38 C-2.66 122.78 13.5 132.01 35.31 134.81 C58.15 135.45 74.94 127.43 92 113 C93 116 93 116 90.69 120.88 C77.42 142.92 59.88 157.31 35.19 164.75 C13.08 170.08 -8.03 166.2 -28.06 155.88 C-49.23 142.06 -62.4 123.16 -69 99 C-72.42 75.04 -68.37 51.94 -54 32 C-41.11 16.19 -21.42 0 0 0 Z M-19 9 C-39.6 19.82 -52.94 34.25 -62 56 C-68.46 78.39 -66.7 98.81 -57 120 C-42.83 142.16 -25.83 155.6 0 162 C22.54 165.22 42.98 160.41 62 148 C68.51 142.38 74.62 136.72 80 130 C79.67 129.34 79.34 128.68 79 128 C77.31 128.91 75.62 129.81 73.88 130.75 C52.81 140.71 32.96 140.84 11.25 133.31 C-9.22 123.96 -23.41 109.8 -31.62 88.86 C-38.9 67.78 -37.78 46.67 -28.12 26.56 C-25.2 20.96 -22.06 15.87 -18 11 C-18.16 10.67 -18.16 10.67 -19 9 Z " fill="#000000" transform="translate(787,117)"/>
<path d="M0 0 C5 1 5 1 10 3 C10.5 2.5 10.5 2.5 13 0 C17 2 17 2 20 9 C20.66 10.98 21.32 12.96 22 15 C22.5 14.5 22.5 14.5 25 12 C26.65 12.33 28.3 12.66 30 13 C31.82 18.46 31.05 24.3 31 30 C32.65 30.33 34.3 30.66 36 31 C37 32 37 32 37.19 39.06 C37 47 37 47 35 55 C55.16 45.63 67.6 33.08 79.56 14.62 C79.96 14.02 79.96 14.02 82 11 C82.33 11 82.66 11 83 11 C83 26.67 75.84 42.23 65.12 53.5 C59.08 59.33 52.55 64.06 45.53 68.66 C31.47 77.98 27.69 90.51 23 106 C31.89 106 41.67 100.83 50 98 C51.26 97.58 51.26 97.58 57.65 95.45 C60.18 94.6 62.71 93.75 65.31 92.88 C67.66 92.09 70.01 91.3 72.43 90.49 C100.03 80.03 120.18 57.91 135.34 33.32 C137.49 29.83 139.73 26.41 142 23 C142.33 23 142.66 23 143 23 C144.7 46.38 131.2 67.31 116.62 84.25 C104.09 97.07 90.38 105.8 74 113 C79.96 117.77 83.28 120 91 120 C104.43 118.08 115.41 112.41 127.14 105.91 C128.41 105.28 129.69 104.65 131 104 C131.66 104.33 132.32 104.66 133 105 C124.38 114.62 124.38 114.62 121 118 C122.57 117.67 124.13 117.34 125.75 117 C131 116 131 116 135 116 C135.33 117.98 135.66 119.96 136 122 C138.64 121.34 141.28 120.68 144 120 C146.64 120 149.28 120 152 120 C153 124 153 124 152 128 C154.64 128 157.28 128 160 128 C161.65 128.99 163.3 129.98 165 131 C165 133.64 165 136.28 165 139 C166.32 140.32 167.64 141.64 169 143 C169 144.65 169 146.3 169 148 C168.67 148.33 168.34 148.66 168 149 C164.33 148.71 160.66 148.38 157 148 C156.67 149.98 156.34 151.96 156 154 C151 153 151 153 145 148 C144.34 147.67 143.68 147.34 143 147 C142.34 148.98 141.68 150.96 141 153 C134.28 151.66 132.99 148.35 129 143 C128.34 143 127.68 143 127 143 C126.67 143.66 126.34 144.32 126 145 C122 144 122 144 118 139 C115.63 135.02 113.3 131.02 111 127 C108.61 128.13 106.21 129.27 103.75 130.44 C92.41 135.81 81.98 135.16 69.75 133.56 C50.46 131.27 36.07 131.71 18 139.5 C16.19 140.27 14.37 141.05 12.5 141.84 C8 144 8 144 5 147 C5 147.33 5 147.66 5 148 C7.25 147.79 9.5 147.59 11.81 147.38 C19 147 19 147 22 149 C21.34 150.32 20.68 151.64 20 153 C19.67 154.32 19.34 155.64 19 157 C22.96 157 26.92 157 31 157 C31.66 158.32 32.32 159.64 33 161 C31.68 162.65 30.36 164.3 29 166 C30.65 166.66 32.3 167.32 34 168 C36 170 36 170 36 175 C29 176 29 176 25 175 C24.34 176.65 23.68 178.3 23 180 C17.29 178.86 15.2 176.87 11 173 C10.5 173.82 10.5 173.82 8 178 C4 177 4 177 0.25 170.94 C-0.29 169.96 -0.29 169.96 -3 165 C-3.5 165.33 -3.5 165.33 -6 167 C-7.32 166.67 -8.64 166.34 -10 166 C-11.78 162.73 -13.45 159.39 -15 156 C-25.99 160.39 -33.3 169.37 -41 178 C-42.32 179.32 -43.64 180.64 -45 182 C-42.34 181.88 -39.68 181.75 -36.94 181.62 C-30.18 181.59 -25.19 182.3 -19 185 C-12.29 187.87 -9.05 188.29 -2 188 C2.25 189.19 2.25 189.19 7 191 C23 197.04 30.69 195.61 46.38 189.21 C61.88 182.95 75.94 178.38 92.25 184.25 C96.99 186.52 100.95 188.69 105 192 C105 192.33 105 192.66 105 193 C103.37 192.94 101.74 192.88 100.06 192.82 C80.42 192.42 67.13 196.5 50 206 C41.95 210.31 35.21 213.85 26 215 C34.62 223.62 46.45 226.19 58 229 C60.64 229.66 63.28 230.32 66 231 C60.99 236.01 52.74 236.01 46.06 236.38 C28.86 235.46 16.98 228.99 4 218 C-9.27 208.13 -25.9 207.8 -42 209 C-58.96 213.58 -73.16 220 -82.94 235.06 C-101.83 270.42 -101.83 270.42 -103 288 C-101.63 287.2 -100.27 286.41 -98.86 285.59 C-78.04 273.54 -63.4 267.69 -39.14 268.32 C-21.61 267.53 -8.38 256.76 5.19 246.6 C9 244 9 244 12 244 C10 249 10 249 6 256 C6.99 256.33 7.98 256.66 9 257 C9.66 258.32 10.32 259.64 11 261 C11.99 260.5 11.99 260.5 17 258 C18.65 258.33 20.3 258.66 22 259 C22.33 260.32 22.66 261.64 23 263 C25.64 263.33 28.28 263.66 31 264 C31.66 264.66 32.32 265.32 33 266 C32.67 267.65 32.34 269.3 32 271 C31.01 271.5 31.01 271.5 26 274 C26 275.65 26 277.3 26 279 C25.67 279.33 25.34 279.66 25 280 C21.33 279.71 17.66 279.38 14 279 C14.33 281.31 14.66 283.62 15 286 C8.57 287.29 5 285.38 -1 283 C-1.33 284.32 -1.66 285.64 -2 287 C-9 286 -9 286 -13.12 284.38 C-18.58 282.44 -21.61 283.85 -26.94 285.88 C-33.55 288.19 -40.13 289.64 -47 291 C-45.02 291.66 -43.04 292.32 -41 293 C-40.67 294.65 -40.34 296.3 -40 298 C-37.73 298.31 -35.46 298.62 -33.12 298.94 C-26 300 -26 300 -24 301 C-24.33 302.32 -24.66 303.64 -25 305 C-25.99 305.33 -26.98 305.66 -28 306 C-28 306.99 -28 307.98 -28 309 C-26.6 309.1 -25.19 309.21 -23.75 309.31 C-19 310 -19 310 -15 313 C-15.66 314.32 -16.32 315.64 -17 317 C-17 321 -17 321 -13 326 C-13.66 327.32 -14.32 328.64 -15 330 C-21 330 -21 330 -26 327 C-26.33 328.65 -26.66 330.3 -27 332 C-28.32 332.33 -29.64 332.66 -31 333 C-32.15 331.35 -32.15 331.35 -38 323 C-38.5 323.66 -38.5 323.66 -41 327 C-42.65 326.67 -44.3 326.34 -46 326 C-48.65 321.59 -49.99 318.06 -51 313 C-51.99 313.66 -52.98 314.32 -54 315 C-55.65 314.67 -57.3 314.34 -59 314 C-59.78 311.57 -60.57 309.13 -61.38 306.62 C-64 299 -64 299 -66 297 C-74.81 301.77 -81.75 307.11 -89 314 C-90.98 315.65 -92.96 317.3 -95 319 C-113.5 340.37 -117.36 359.3 -117.38 386.94 C-117.4 388.75 -117.42 390.57 -117.45 392.44 C-117.48 406.25 -115.99 418.38 -109.31 430.75 C-108.62 432.07 -107.94 433.4 -107.23 434.76 C-106.49 436.16 -105.76 437.56 -105 439 C-98.2 452.36 -93.49 464.01 -92.56 479.19 C-91.65 490.23 -87.97 500.03 -80 508 C-73.97 506.93 -68.14 505.22 -62.25 503.56 C-51.94 500.81 -41.58 499.3 -31 498 C-31.23 496.85 -31.47 495.7 -31.71 494.51 C-32.11 486.98 -30.38 480.1 -28.69 472.81 C-26.84 464.66 -25.08 456.63 -24.08 448.32 C-22.48 438.95 -16.84 434.97 -10 429 C-4.11 421.64 -3 417.51 -3 408 C-4.2 409.88 -5.39 411.75 -6.62 413.69 C-11 420 -11 420 -17 425 C-16.67 423.68 -16.34 422.36 -16 421 C-17.13 422.01 -18.27 423.02 -19.44 424.06 C-34.43 437 -34.43 437 -41 437 C-41 435.68 -41 434.36 -41 433 C-42.53 433.66 -44.05 434.32 -45.62 435 C-55.62 438.14 -64.94 437.77 -75 435 C-74 433 -74 433 -69 431 C-69.65 430.89 -69.65 430.89 -72.94 430.31 C-81.83 428.01 -87.96 423.87 -94 417 C-94.66 415.85 -94.66 415.85 -98 410 C-96.54 410.16 -95.07 410.33 -93.56 410.5 C-81.37 411.43 -70 411.43 -58 409 C-58 408.34 -58 407.68 -58 407 C-59.32 406.34 -60.64 405.68 -62 405 C-59.59 404.15 -57.17 403.31 -54.69 402.44 C-37.13 395.82 -25.71 384.19 -14 370 C-7.79 362.5 -1.33 356.98 7.06 352 C12 349 12 349 16 345.44 C27.09 335.91 41.71 333.49 55.51 329.79 C73.27 324.84 89.48 316.94 105 307 C105.33 306.34 105.66 305.68 106 305 C104.68 305 103.36 305 102 305 C102 304.34 102 303.68 102 303 C104.29 301.89 106.58 300.77 108.94 299.62 C116 296 116 296 117 294 C115.35 293.67 113.7 293.34 112 293 C112 292.34 112 291.68 112 291 C113.34 290.3 114.68 289.6 116.06 288.88 C123.87 284.33 128.52 279.87 133 272 C128.71 269.36 124.42 266.72 120 264 C123.66 256.69 130.18 253.4 137.38 249.94 C144.45 245.73 147.8 241.76 152.58 235.26 C159.22 226.33 166.26 223.79 177 222 C177.66 220.68 178.32 219.36 179 218 C182.64 213.98 186.31 209.98 190 206 C190.83 205.01 190.83 205.01 195 200 C200 201 200 201 204 206 C207.2 212.41 206.11 218.96 206 226 C207.32 225.01 208.64 224.02 210 223 C211.32 223.33 212.64 223.66 214 224 C217 230 217 230 217 236 C214.24 241.06 211.21 245.72 207.81 250.38 C202.34 259.37 201.29 267.74 203 278 C204.28 283.23 205.62 288.43 207.04 293.62 C208 298 208 298 207 302 C206.01 301.34 205.02 300.68 204 300 C204.33 301.94 204.66 303.88 205 305.88 C205.82 311.74 206.18 317.1 206 323 C203 319 203 319 203 317 C202.34 317 201.68 317 201 317 C201.33 317.99 201.66 318.98 202 320 C202.64 331.18 200.55 341.2 198 352 C197.34 351.34 196.68 350.68 196 350 C196 349.01 196 348.02 196 347 C195.34 347 194.68 347 194 347 C193.67 349.31 193.34 351.62 193 354 C190.54 361.09 187.34 366.88 183 373 C182.34 371.68 181.68 370.36 181 369 C177.93 375.13 176.04 381 174.06 387.56 C173.39 389.77 172.72 391.98 172.04 394.25 C171.36 396.48 170.69 398.71 170 401 C169.27 403.31 168.54 405.62 167.79 408 C162.93 424.29 165.08 440.56 168 457 C171 458 171 458 176.06 458.25 C192.67 460.35 204.78 473.64 215 486 C220.87 494.45 224.84 503.07 228.68 512.54 C231.34 518.8 234.35 524.85 237.38 530.94 C252.3 561.73 271 606.99 271 642 C271.66 642 272.32 642 273 642 C273.66 640.02 274.32 638.04 275 636 C276.51 632.69 278.05 629.4 279.62 626.12 C280.44 624.42 281.26 622.71 282.1 620.95 C282.73 619.64 283.35 618.34 284 617 C281.03 617.33 278.06 617.66 275 618 C276.42 615 277.83 612 279.25 609 C280.04 607.33 280.83 605.66 281.64 603.94 C282.03 603.12 282.03 603.12 284 599 C284.61 597.49 285.23 595.99 285.86 594.44 C286.57 593.3 287.27 592.17 288 591 C290.31 590.67 292.62 590.34 295 590 C295.33 588.35 295.66 586.7 296 585 C293 582 293 582 291 581 C292.34 573.89 294.04 566.96 296 560 C296.66 560 297.32 560 298 560 C298.29 561.23 298.58 562.47 298.88 563.74 C303.58 583.14 309.66 600.32 319 618 C315 619 315 619 311 618 C311.56 619.26 311.56 619.26 314.38 625.62 C316.49 630.4 318.34 635.03 320 640 C320.66 640 321.32 640 322 640 C322.66 638.35 323.32 636.7 324 635 C325.98 631.02 328 627.06 330.03 623.11 C331.94 619.13 333.52 615.15 335 611 C333.68 611.66 332.36 612.32 331 613 C329.02 613 327.04 613 325 613 C327 608 327 608 328.81 604.41 C338.56 585.03 345.25 564.14 350 543 C352.77 547.15 353.51 551.36 354.75 556.19 C358.98 571.93 364.91 586.33 372 601 C380.55 589.38 386.46 575.63 391 562 C390.67 561.67 390.34 561.34 390 561 C389.01 561.33 388.02 561.66 387 562 C384.36 562 381.72 562 379 562 C380.79 556.62 382.89 552.38 385.62 547.44 C398.03 524.05 404.43 498.5 411 473 C413.42 477.84 414.39 482.48 415.62 487.75 C418.72 500.42 422.7 512.69 427 525 C443.03 500.95 449.72 466.67 457 439 C457.33 439 457.66 439 458 439 C458.27 440.14 458.27 440.14 459.65 445.93 C463.82 463.12 468.33 479.96 474.15 496.68 C475.56 500.74 476.82 504.86 478 509 C478.66 509 479.32 509 480 509 C480.66 507.35 481.32 505.7 482 504 C483.47 500.7 484.95 497.41 486.44 494.12 C489.01 488.44 491.54 482.74 494 477 C492.8 477.52 491.61 478.03 490.38 478.56 C486 480 486 480 480 479 C482 474 482 474 485.69 466.69 C498.59 440.88 506.61 413.82 514 386 C514.33 386 514.66 386 515 386 C515.39 387.67 515.78 389.35 516.18 391.07 C522.17 415.98 529.36 439.91 540.95 462.83 C543 467 543 467 543 469 C547.77 464.23 549.77 458.22 552.56 452.12 C553.72 449.61 554.88 447.1 556.07 444.51 C557.78 440.7 559.45 436.88 561 433 C559.27 433.33 557.53 433.66 555.75 434 C549.38 434.94 543.43 435.15 537 435 C538.91 430.23 541.13 426.46 543.88 422.12 C570.17 379.22 582.82 332.61 594 284 C594.66 284.33 595.32 284.66 596 285 C597.01 288.74 597.91 292.51 598.76 296.29 C599.3 298.66 599.85 301.03 600.41 303.47 C601.53 308.44 602.65 313.41 603.77 318.39 C607.91 336.4 612.71 353.98 620 371 C620.12 374.66 620.14 378.34 620 382 C610.23 372.23 606.64 351.17 603 338 C602.67 337.67 602.34 337.34 602 337 C601.56 338.69 601.13 340.38 600.68 342.12 C592.37 373.78 580.89 402.3 559 427 C562.63 426.01 566.26 425.02 570 424 C567.73 431.18 564.95 438.07 562 445 C562.66 445 563.32 445 564 445 C567 451 567 451 567 453 C568.34 452.32 569.68 451.64 571.06 450.94 C576 449 576 449 583 450 C586.73 454.97 586.55 456.89 586 463 C583.83 469.83 582.68 472.46 577 477 C575 478 575 478 568 478 C566.68 477.34 565.36 476.68 564 476 C562.64 478.02 561.28 480.04 559.88 482.12 C552.66 492.24 544.35 501.1 534 508 C540.3 506.82 545.34 504.98 551 502 C551.66 502 552.32 502 553 502 C547.16 531.21 525.36 560.23 508.97 584.55 C506.9 587.65 504.92 590.81 503 594 C508.07 597.38 513.05 596.31 519 596 C523.37 594.8 527.72 593.49 532 592 C533.32 591.67 534.64 591.34 536 591 C534.79 597.05 532.31 601.63 529.5 607.12 C524.08 617.75 524.08 617.75 523 621 C546.75 618.1 562.58 607.61 579.12 590.81 C582 588 582 588 584 588 C585.26 589.77 586.52 591.55 587.81 593.38 C592 599 592 599 597 601 C607.17 597.61 613.11 588.47 619 580 C619.33 580 619.66 580 620 580 C620 618.61 620 657.22 620 697 C607.46 698.32 594.92 699.64 582 701 C546.92 707.17 512.91 716.11 478.65 725.76 C424.84 740.91 370.38 754.74 314 754 C315.91 762.4 317.18 767.2 324.61 771.94 C330.66 774.62 336.73 776.88 343 779 C345.06 779.72 347.12 780.44 349.24 781.18 C377.09 790.31 405.99 794.21 434.94 798.06 C460.96 801.52 486.31 805.41 511.31 813.69 C529.16 819.53 545.01 821.81 563.75 822.44 C583.17 823.17 602.71 824.27 620 834 C620 835.65 620 837.3 620 839 C618.89 838.53 617.77 838.06 616.62 837.57 C598.39 830.13 580.94 828.15 561.31 827.56 C539.8 826.73 521.05 822.61 500.62 815.94 C477.19 808.54 452.91 805.72 428.64 802.53 C393.81 797.92 359.33 792.42 327 778 C326.34 778 325.68 778 325 778 C335.44 795.84 345.91 804.09 364.31 813.06 C375.47 818.6 383.27 826.16 392 835 C392.66 835.33 393.32 835.66 394 836 C394 836.66 394 837.32 394 838 C394.66 838 395.32 838 396 838 C398.35 840.65 400.68 843.32 403 846 C406.5 849.58 410.03 853.13 413.57 856.67 C414.57 857.67 415.57 858.66 416.6 859.69 C419.77 862.86 422.95 866.02 426.12 869.19 C428.27 871.32 430.41 873.46 432.55 875.6 C436.47 879.51 440.4 883.43 444.32 887.34 C447.55 890.55 450.78 893.78 454 897 C444.79 897 441.1 891.07 434.78 884.8 C431.08 881.1 427.41 877.36 423.73 873.62 C420.96 870.81 418.19 868.01 415.41 865.21 C411.07 860.82 406.74 856.43 402.42 852.03 C398.23 847.75 394.01 843.5 389.8 839.25 C388.52 837.94 387.25 836.63 385.93 835.28 C378.16 827.48 370.81 822.02 361 817 C360.15 816.56 360.15 816.56 355.83 814.35 C354.32 813.59 352.81 812.84 351.25 812.06 C331.11 801.48 322.32 784.48 312 765 C314.04 783.4 317.36 801.93 327 818 C330.01 819.58 333.08 821.04 336.19 822.44 C346.22 827.48 349.31 831.96 354 842 C359.23 847.23 360.82 847.83 367.69 849.38 C375.51 851.42 380.67 853.81 387 859 C388.2 859.96 389.4 860.93 390.63 861.92 C394.77 865.26 398.89 868.63 403 872 C410.35 877.94 417.74 883.82 425.25 889.56 C431 894 431 894 434 897 C422.22 897.22 410.44 897.39 398.66 897.49 C394.65 897.54 390.65 897.6 386.64 897.68 C380.88 897.79 375.12 897.84 369.35 897.88 C367.57 897.93 365.78 897.97 363.94 898.02 C355.27 898.02 351.27 897.93 344.09 892.68 C342.74 891.14 341.39 889.59 340 888 C316.93 869.92 292.65 853.25 267.62 838 C259.63 833.1 252.28 827.92 245 822 C243.54 820.82 242.07 819.65 240.56 818.44 C232.77 810.92 230.29 804.68 229 794 C226.76 776.07 218.38 765.47 205 754 C195.82 745.45 191.24 737.97 190.62 725.19 C190.81 712.77 193.77 701.79 198.38 690.31 C210.2 660.84 217.49 628.19 205 598 C187.89 560.4 187.89 560.4 176 546 C174.68 544.35 173.36 542.7 172 541 C165.02 535.89 159.79 532.55 151 533 C144.81 536.05 139.69 539.67 134.44 544.12 C121.16 555.08 107.18 563.9 92 572 C97.31 576.25 102.47 578.88 108.56 581.88 C110.61 582.88 112.65 583.89 114.75 584.93 C118.98 587.01 123.2 589.08 127.43 591.14 C145.98 600.65 159.54 614.07 166 634 C168.46 644.42 169.34 654.27 169 665 C164 660 164 660 160.94 655.94 C145.24 636.26 126.85 624.95 102 620 C62.74 617.26 35.96 632.44 6 656 C2.92 658.4 -0.17 660.79 -3.25 663.19 C-7.34 666.37 -11.43 669.55 -15.5 672.75 C-39.59 691.6 -63.55 705.73 -95 704 C-98.2 703.41 -101.39 702.75 -104.56 702 C-128.66 696.37 -146.89 702.75 -167.62 714.88 C-174.58 719.37 -181.31 724.12 -188 729 C-193.99 733.35 -199.99 737.68 -206 742 C-207.66 743.2 -209.32 744.39 -211.03 745.62 C-245.28 770 -245.28 770 -264 770 C-265.65 768.68 -267.3 767.36 -269 766 C-269 747.21 -252.14 730.05 -240 717 C-238.87 715.7 -237.73 714.4 -236.56 713.06 C-233.77 709.88 -230.9 706.77 -228 703.69 C-223.3 698.34 -219.45 693.22 -216 687 C-216.33 685.68 -216.66 684.36 -217 683 C-239.06 675.65 -266.08 691.61 -285.12 700.88 C-326.55 722.1 -363.58 751.73 -394 787 C-396.97 790.36 -399.97 793.69 -403 797 C-403.33 797 -403.66 797 -404 797 C-404 789.45 -401.18 787.43 -396.09 782.2 C-393.94 779.97 -391.86 777.68 -389.83 775.33 C-385 769.87 -379.9 764.73 -374.75 759.56 C-372.81 757.6 -370.86 755.65 -368.86 753.63 C-363.44 748.42 -357.87 743.68 -352 739 C-349.98 737.25 -347.96 735.49 -345.88 733.69 C-315.58 708.11 -268.02 676.42 -227 676.62 C-225.41 676.62 -223.82 676.61 -222.19 676.6 C-217.35 677.06 -214.46 678.54 -211 682 C-211 696.19 -222.73 705.33 -232 715 C-234.36 717.64 -236.7 720.3 -239 723 C-240.59 724.84 -242.18 726.67 -243.81 728.56 C-264 753.61 -264 753.61 -264 764 C-250.79 766.64 -237.24 757.04 -226.49 750.08 C-216.68 743.45 -207.14 736.47 -197.63 729.42 C-171.52 710.13 -146.86 692.54 -113 695 C-108.13 695.88 -103.34 696.96 -98.52 698.09 C-75.89 702.63 -56.68 694.11 -37.81 682.62 C-28.4 676.24 -19.55 669.25 -10.69 662.12 C-2.92 655.9 4.98 649.89 13 644 C14.39 642.98 15.79 641.95 17.23 640.89 C43.54 621.91 71.07 610.14 104.12 615.25 C121.63 618.46 136.53 625.35 150 637 C151.61 638.38 153.22 639.76 154.88 641.19 C159 645 159 645 163 650 C162.28 634.29 156.48 620.67 145.56 609.44 C132.66 599.14 118.61 592.18 103.74 585.27 C97.4 582.29 92.42 579.51 87 575 C87.33 572.69 87.66 570.38 88 568 C91.98 565.26 91.98 565.26 97.19 562.69 C110.2 555.94 121.33 547.58 132.79 538.49 C141.56 531.69 147.72 527.21 159 528 C173.68 531.95 182.01 543.87 190 556 C201.52 576.31 210.51 597.5 219.05 619.21 C225.09 634.34 232.95 645.91 245.18 656.84 C254.11 664.98 258.95 673.84 264.28 684.64 C267.31 690.61 270.79 695.79 275 701 C276.05 702.36 277.1 703.72 278.19 705.12 C283.3 710.32 288.92 713.99 295 718 C292.61 709.94 289.01 702.75 285.25 695.25 C271.46 667.05 264.36 636.43 257.62 605.88 C250.96 576.81 240.69 548.67 227.02 522.17 C224.66 517.3 222.66 512.33 220.62 507.31 C213.48 490.51 201.28 476.03 185.94 466.06 C171.97 461.21 156.81 467.29 143 470.81 C90.25 483.99 37.47 496.68 -16.81 501.38 C-34.64 502.99 -51.86 505.84 -69 511 C-69.99 511 -70.98 511 -72 511 C-72 511.66 -72 512.32 -72 513 C-70.72 513.35 -69.44 513.7 -68.12 514.06 C-57.63 518.03 -51.35 524.78 -44 533 C-34.91 536.63 -24.55 535.25 -14.94 534.31 C-1.97 533.63 10.55 542.39 20.31 550.31 C27 557 27 557 27 560 C25.45 559.71 23.91 559.42 22.31 559.12 C20.23 558.75 18.15 558.38 16 558 C13.96 557.63 11.92 557.26 9.81 556.88 C-6.28 554.81 -19.07 556.73 -34.31 561.75 C-53.49 565.97 -68.4 560.57 -86 553 C-97.29 550.18 -106.53 550.77 -117 556 C-125.68 562.04 -131.36 571.36 -137.5 579.81 C-147.9 592.26 -162.24 598.08 -176.88 604.12 C-194.09 611.31 -203.94 620.97 -215 636 C-215.66 636.33 -216.32 636.66 -217 637 C-215.14 618.22 -212.2 602.24 -199 588 C-196.35 586.02 -193.64 584.12 -190.88 582.31 C-180.11 575.23 -180.11 575.23 -178 571 C-177.63 565.67 -177.3 560.34 -177 555 C-184.41 557.78 -188.49 561.41 -194 567 C-202.8 573.05 -213.09 574.91 -223.44 576.82 C-234.96 579.04 -243.92 583.09 -254 589 C-257.33 590.92 -260.67 592.84 -264 594.75 C-264.88 595.26 -264.88 595.26 -269.35 597.83 C-275.3 601.17 -281.31 604.32 -287.38 607.44 C-297.49 612.65 -307.43 618.1 -317.3 623.75 C-321.15 625.94 -325.01 628.12 -328.88 630.29 C-351.14 642.72 -372.42 656.47 -393.12 671.34 C-396.63 673.74 -400.31 675.89 -404 678 C-404 676.35 -404 674.7 -404 673 C-378.18 651.39 -347.44 634.96 -318.21 618.46 C-314 616 -314 616 -310 613 C-313.3 606.07 -316.6 599.14 -320 592 C-319.34 591.67 -318.68 591.34 -318 591 C-314.65 592.3 -311.32 593.64 -308 595 C-300.96 596.41 -294.16 596.17 -287 596 C-286.34 595.34 -285.68 594.68 -285 594 C-286.4 592.25 -287.81 590.49 -289.25 588.69 C-309.15 562.79 -324.35 532.98 -337 503 C-336.34 502.67 -335.68 502.34 -335 502 C-332.32 503.3 -329.65 504.64 -327 506 C-321 508 -321 508 -317 508 C-318.03 507.3 -319.06 506.6 -320.12 505.88 C-330.61 497.54 -339.49 488.11 -347 477 C-348.98 477.33 -350.96 477.66 -353 478 C-354.4 496.37 -342.52 508.05 -332 522 C-332.33 522.66 -332.66 523.32 -333 524 C-334.98 523.34 -336.96 522.68 -339 522 C-347 522 -347 522 -353 526 C-354.01 527.55 -355.02 529.09 -356.06 530.69 C-359 535 -359 535 -364 536 C-367.67 534.33 -371.33 532.67 -375 531 C-383.45 532.69 -388.98 538.21 -394 545 C-396.79 549.94 -399.39 554.96 -402 560 C-402.66 560.99 -403.32 561.98 -404 563 C-404.16 538.54 -404.29 514.08 -404.36 489.61 C-404.4 478.25 -404.45 466.89 -404.53 455.53 C-404.6 444.56 -404.65 433.59 -404.66 422.62 C-404.68 418.44 -404.7 414.27 -404.74 410.09 C-404.79 404.22 -404.8 398.35 -404.79 392.48 C-404.82 390.77 -404.85 389.06 -404.87 387.3 C-404.8 375.2 -401.87 365.99 -397 355 C-389.12 331.85 -384.23 307.85 -379 284 C-378.34 284.33 -377.68 284.66 -377 285 C-376.21 287.75 -375.53 290.54 -374.9 293.34 C-374.49 295.09 -374.09 296.84 -373.68 298.65 C-373.25 300.54 -372.82 302.43 -372.38 304.38 C-362.16 348.21 -348.8 393.02 -322.12 429.99 C-320 433 -320 433 -320 435 C-329.19 435.44 -336.33 434.02 -345 431 C-329.49 467.25 -329.49 467.25 -326 469 C-325.58 467.68 -325.16 466.35 -324.73 464.99 C-323.18 460.52 -321.4 456.4 -319.38 452.12 C-310.72 432.85 -305 412.49 -300 392 C-296.48 397.27 -295.76 403.82 -294.31 409.94 C-289.73 428.67 -284.01 445.91 -275 463 C-273.49 466 -271.99 469 -270.5 472 C-269.35 474.31 -268.19 476.62 -267 479 C-271.58 479.07 -275.54 479.12 -280 478 C-278.38 481.79 -276.75 485.59 -275.12 489.38 C-274.22 491.49 -273.32 493.6 -272.38 495.77 C-270 501 -270 501 -268 503 C-257.71 480.35 -250.71 457.18 -245 433 C-244.34 433.33 -243.68 433.66 -243 434 C-242.07 437.44 -241.23 440.9 -240.44 444.38 C-233.98 470.87 -224.76 495.48 -211 519 C-211 519.66 -211 520.32 -211 521 C-218 521 -218 521 -225 518 C-222.69 523.28 -220.38 528.56 -218 534 C-208.98 529.49 -205.25 519.05 -202 510 C-196.35 489.44 -196.69 474.82 -202.34 454.21 C-207.32 435.62 -203.09 420.39 -198.19 402.31 C-195.6 390.74 -198.22 382.02 -202 371 C-203.08 367.73 -204.17 364.46 -205.25 361.19 C-206.17 358.46 -207.08 355.73 -208 353 C-208.33 352.01 -208.66 351.02 -209 350 C-210.32 349.34 -211.64 348.68 -213 348 C-216 346.33 -219 344.67 -222 343 C-230.65 338.67 -239.23 341.23 -248 344 C-264.73 344 -275.55 337.72 -288 327 C-288.66 325.68 -289.32 324.36 -290 323 C-285 324 -285 324 -279.75 326.94 C-270.77 331.72 -263.15 332.65 -253 332 C-251.84 331.34 -251.84 331.34 -246 328 C-239 325 -239 325 -234 325 C-234.76 323.1 -235.53 321.2 -236.31 319.25 C-239 312 -239 312 -240.31 306.12 C-243.92 293.04 -250.2 281.76 -261.69 274.31 C-271.23 269.07 -281.3 264.93 -291.29 260.64 C-297 258 -297 258 -300 255 C-283.07 256.5 -255.8 259.71 -243 272 C-238.22 278.5 -234 285 -230 292 C-224.72 278.97 -221.27 267.93 -226.06 254 C-227.03 252.02 -228 250.04 -229 248 C-236 232.35 -236 232.35 -236 230 C-226.72 232.32 -219.56 244.52 -214 252 C-211.28 257.37 -209.66 262.18 -208 268 C-207.34 268.33 -206.68 268.66 -206 269 C-205.88 268.11 -205.88 268.11 -205.25 263.62 C-204.84 261.77 -204.43 259.91 -204 258 C-202.68 257.34 -201.36 256.68 -200 256 C-198.68 257.32 -197.36 258.64 -196 260 C-195.63 259.34 -195.63 259.34 -193.75 256 C-193.3 255.34 -193.3 255.34 -191 252 C-189.68 252 -188.36 252 -187 252 C-186.67 253.32 -186.34 254.64 -186 256 C-184.02 255.01 -182.04 254.02 -180 253 C-178.68 253 -177.36 253 -176 253 C-175 256 -175 256 -176.94 260.19 C-177.62 261.45 -178.3 262.7 -179 264 C-177.68 264.66 -176.36 265.32 -175 266 C-177 270 -177 270 -184 273 C-183.34 274.32 -182.68 275.64 -182 277 C-182.33 278.32 -182.66 279.64 -183 281 C-192.63 283 -192.63 283 -196 283 C-195.67 284.65 -195.34 286.3 -195 288 C-198.63 291.63 -204.1 291.27 -209 292 C-210.88 299.52 -209.95 305.09 -207 312 C-206.34 313.65 -205.68 315.3 -205 317 C-203.68 317.66 -202.36 318.32 -201 319 C-196.65 321.33 -192.31 323.66 -187.97 326 C-184 328 -184 328 -180 329 C-179.34 327.02 -178.68 325.04 -178 323 C-176.31 318.85 -174.59 314.7 -172.88 310.56 C-158.51 275.46 -150.67 245.86 -162.4 208.54 C-164.88 203.06 -168.86 199.31 -173 195 C-173.59 194.37 -173.59 194.37 -176.56 191.19 C-181.81 186.32 -187.17 183.37 -193.69 180.44 C-200.98 177.09 -204.77 173.25 -209.19 166.75 C-210.78 164.52 -212.36 162.29 -214 160 C-214.66 160 -215.32 160 -216 160 C-217.86 162.37 -219.63 164.8 -221.38 167.25 C-224.43 171.55 -227.26 175.26 -231 179 C-232.32 178.67 -233.64 178.34 -235 178 C-235.33 177.01 -235.66 176.02 -236 175 C-236.99 175 -237.98 175 -239 175 C-241.02 177.65 -243.02 180.32 -245 183 C-246.98 184.65 -248.96 186.3 -251 188 C-252.32 187.67 -253.64 187.34 -255 187 C-255 184.36 -255 181.72 -255 179 C-256.18 179.74 -257.35 180.49 -258.56 181.25 C-262.33 183.58 -266.16 185.8 -270 188 C-271.32 187.34 -272.64 186.68 -274 186 C-274.33 184.02 -274.66 182.04 -275 180 C-276.4 180.08 -277.81 180.16 -279.25 180.25 C-284 180 -284 180 -288 176 C-287.67 175.01 -287.67 175.01 -286 170 C-280 167 -280 167 -278 167 C-278.99 165.02 -279.98 163.04 -281 161 C-280.67 159.68 -280.34 158.36 -280 157 C-273.8 156.11 -269.14 156.24 -263 157 C-263.33 156.18 -263.33 156.18 -265 152 C-265 150.68 -265 149.36 -265 148 C-257.77 146.8 -253.82 148.58 -247 151 C-246.01 151 -245.02 151 -244 151 C-243.67 150.01 -243.67 150.01 -242 145 C-237.09 143.36 -233.47 146.01 -228.81 147.94 C-226.98 148.69 -225.15 149.44 -223.27 150.21 C-221.86 150.8 -220.45 151.39 -219 152 C-219.53 150.96 -219.53 150.96 -222.19 145.69 C-229.53 130.01 -232.16 114.23 -232 97 C-233.4 96.73 -234.81 96.46 -236.25 96.19 C-252.22 92.89 -252.22 92.89 -256 91 C-255.67 89.35 -255.34 87.7 -255 86 C-255 85.01 -255 84.02 -255 83 C-256.77 82.24 -258.55 81.47 -260.38 80.69 C-266 78 -266 78 -268 75 C-267.34 74.5 -267.34 74.5 -264 72 C-263.67 71.01 -263.34 70.02 -263 69 C-264.65 68.34 -266.3 67.68 -268 67 C-269.98 65.35 -271.96 63.7 -274 62 C-273.67 61.01 -273.34 60.02 -273 59 C-272.34 58.67 -272.34 58.67 -269 57 C-269.33 56.01 -269.33 56.01 -271 51 C-271 46 -271 46 -270 45 C-265 45 -265 45 -260 49 C-259.01 49.33 -258.02 49.66 -257 50 C-256.34 48.68 -255.68 47.36 -255 46 C-254.01 46.33 -253.02 46.66 -252 47 C-248 56.03 -248 56.03 -248 59 C-247.34 59 -246.68 59 -246 59 C-245.34 57.68 -244.68 56.36 -244 55 C-242.68 55.33 -241.36 55.66 -240 56 C-237.69 60.62 -238.32 66.92 -238 72 C-237.01 71.84 -237.01 71.84 -232 71 C-231.67 72.49 -231.67 72.49 -230 80 C-229.46 78.46 -228.91 76.92 -228.36 75.33 C-228 74.33 -228 74.33 -226.19 69.25 C-225.48 67.25 -224.77 65.26 -224.04 63.2 C-222 58 -222 58 -219 54 C-216.05 59.91 -218.32 68.86 -219 75.19 C-221.65 102.33 -215.07 123.28 -200 146 C-193.83 152.22 -187.29 154.31 -179 157 C-179.08 154.71 -179.16 152.42 -179.25 150.06 C-179.19 128.91 -170.24 111.18 -159.45 93.47 C-152.77 81.3 -152.99 71.27 -156.56 58.06 C-160.46 43.28 -158.41 31.4 -151.31 17.88 C-147.03 11.57 -142.41 5.27 -136 1 C-137 7.03 -138.77 11.89 -141 17.56 C-146.85 32.44 -147.57 43.56 -141.56 58.69 C-138.56 66.3 -136.42 72.8 -136 81 C-113.01 68.19 -103.18 49.59 -96 25 C-95.34 25 -94.68 25 -94 25 C-94 32.59 -94 40.18 -94 48 C-92.78 46.56 -91.57 45.11 -90.31 43.62 C-86 39 -86 39 -81 37 C-80.5 37.5 -80.5 37.5 -78 40 C-78 40.66 -78 41.32 -78 42 C-76.82 40.95 -75.65 39.9 -74.44 38.81 C-66.97 32.4 -66.97 32.4 -63 30 C-61.35 30.33 -59.7 30.66 -58 31 C-58 33.31 -58 35.62 -58 38 C-55.96 36.99 -53.92 35.98 -51.81 34.94 C-45 32 -45 32 -40 33 C-39 38 -39 38 -40 40 C-38.41 40.27 -36.82 40.54 -35.19 40.81 C-30 42 -30 42 -27 45 C-28 50 -28 50 -32 53 C-33.98 53.33 -35.96 53.66 -38 54 C-37.34 56.64 -36.68 59.28 -36 62 C-41.42 65.61 -47.86 62.94 -54 62 C-53.65 63.46 -53.3 64.93 -52.94 66.44 C-52.78 67.19 -52.78 67.19 -52 71 C-52.33 71.33 -52.66 71.66 -53 72 C-59.69 71.69 -64.1 70 -70 67 C-71.32 67.33 -72.64 67.66 -74 68 C-74.66 69.65 -75.32 71.3 -76 73 C-83.45 70.77 -90.07 67.5 -97 64 C-98.32 63.67 -99.64 63.34 -101 63 C-101.33 64.65 -101.66 66.3 -102 68 C-105.45 73.21 -109.09 78.12 -113 83 C-112.5 82.84 -112.5 82.84 -110 82 C-107.69 82 -105.38 82 -103 82 C-102.67 83.65 -102.34 85.3 -102 87 C-96.72 87 -91.44 87 -86 87 C-85 91 -85 91 -87 95 C-86.21 95.06 -86.21 95.06 -82.19 95.38 C-77 96 -77 96 -74 98 C-74.33 99.32 -74.66 100.64 -75 102 C-75 103.32 -75 104.64 -75 106 C-73.35 107.65 -71.7 109.3 -70 111 C-71 115 -71 115 -72 116 C-75.34 115.71 -78.67 115.38 -82 115 C-82.33 116.65 -82.66 118.3 -83 120 C-89 119 -89 119 -94 113 C-94.66 113 -95.32 113 -96 113 C-96.66 114.65 -97.32 116.3 -98 118 C-103 117 -103 117 -106.81 111.94 C-107.34 111.12 -107.34 111.12 -110 107 C-110.5 107.33 -110.5 107.33 -113 109 C-114.32 108.67 -115.64 108.34 -117 108 C-124 95.98 -124 95.98 -124 93 C-138.36 103.33 -145.87 114.94 -151 132 C-153.12 146.98 -150.65 157.94 -143 171 C-139.37 174.71 -135.71 178.38 -132 182 C-128.29 188.39 -125.66 195.11 -123 202 C-113.37 201.12 -113.37 201.12 -110 200 C-109.34 198.68 -108.68 197.36 -108 196 C-107.08 194.97 -106.16 193.94 -105.21 192.88 C-100.4 187.07 -97.33 180.48 -93.88 173.81 C-88.62 165.01 -82.64 160.88 -73.56 156.31 C-71.53 155.28 -69.5 154.24 -67.41 153.18 C-63.19 151.09 -58.96 149.02 -54.72 146.98 C-42.43 141.03 -31.49 134.76 -21 126 C-19.8 125.01 -18.6 124.03 -17.36 123.01 C-6.04 112.88 -0.98 99.69 4.55 85.88 C9.47 74.06 15.78 66.19 27 60 C27.66 60 28.32 60 29 60 C29 59.34 29 58.68 29 58 C27.02 57.34 25.04 56.68 23 56 C9.47 49.47 9.47 49.47 7 47 C7.33 44.69 7.66 42.38 8 40 C6.04 38.95 4.08 37.9 2.06 36.81 C0.06 35.55 -1.94 34.3 -4 33 C-4.33 31.35 -4.66 29.7 -5 28 C-4.34 27.84 -4.34 27.84 -1 27 C-2 23 -2 23 -4.56 19.5 C-7 16 -7 16 -7 12 C-5.02 11.67 -3.04 11.34 -1 11 C-1.33 10.34 -1.66 9.68 -2 9 C-2 3 -2 3 0 0 Z M136 39 C132.88 46.25 130.12 53.4 128 61 C134.2 54.8 135.94 47.5 137 39 C136.67 39 136.34 39 136 39 Z M-146 17 C-151.99 27.69 -155.44 38.78 -153 51 C-152.58 52.1 -152.58 52.1 -150.44 57.69 C-146.13 70.6 -147.09 83.36 -152 96 C-155.42 102.49 -159.03 108.82 -162.79 115.12 C-173.21 134.2 -169.02 154.74 -163.71 174.88 C-161.35 182.56 -158.49 189.22 -154.25 196.06 C-150.54 202.12 -148.84 205.2 -148 212 C-147.82 213.35 -147.64 214.71 -147.46 216.1 C-146.94 220.06 -146.47 224.03 -146 228 C-143.72 223.45 -142.41 218.88 -141 214 C-140.88 222.58 -140.81 231.17 -140.75 239.75 C-140.72 242.16 -140.68 244.57 -140.65 247.05 C-140.53 268.39 -144.15 286.54 -150.81 306.69 C-151.88 309.99 -152.94 313.29 -154 316.6 C-154.26 317.39 -154.26 317.39 -155.55 321.43 C-164.41 349.37 -164.41 349.37 -163 355 C-157.49 342.48 -152.4 329.96 -148 317 C-150.71 349.23 -155.79 378.26 -171 407 C-181.6 427.42 -182.54 442.89 -177 465 C-176.34 466.32 -175.68 467.64 -175 469 C-174.67 469 -174.34 469 -174 469 C-174.16 466.81 -174.33 464.63 -174.5 462.38 C-175.54 444.97 -175.03 432.25 -166 417 C-166.16 418.38 -166.33 419.76 -166.5 421.19 C-168.01 438.73 -165.13 454.29 -160.31 471.06 C-155.38 488.98 -156.06 504.18 -162 522 C-154.21 516.16 -152.01 510.04 -149 501 C-148.56 518.59 -150.12 530.03 -158.98 545.29 C-162.62 551.98 -163.02 558.16 -163.88 565.69 C-165.08 573.54 -166.62 577.14 -172.91 582.04 C-173.66 582.56 -173.66 582.56 -177.5 585.19 C-188.66 593.08 -198.67 600.52 -205 613 C-205 613.66 -205 614.32 -205 615 C-201 613 -201 613 -197.12 609.75 C-189.89 604.46 -182.01 601.57 -173.71 598.32 C-156.04 591.26 -141.4 582.11 -132 565 C-127.13 550.77 -123.86 537.69 -123.94 522.62 C-123.95 520.45 -123.96 518.28 -123.96 516.04 C-123.98 514.38 -123.99 512.71 -124 511 C-123.1 512.22 -122.21 513.44 -121.28 514.7 C-113.96 524.29 -107.83 530.08 -95.75 532.38 C-85.82 534.46 -79.5 538.01 -71.06 543.56 C-57.21 552.27 -42.63 555.5 -26.34 552 C-19.92 550.8 -13.89 550.81 -7.38 550.88 C-5.05 550.89 -2.73 550.91 -0.34 550.93 C0.54 550.94 0.54 550.94 5 551 C-2.68 545.24 -10.21 540.72 -20 542 C-23.02 542.95 -26.02 543.95 -29 545 C-37.99 546.12 -42.43 545.42 -49.88 540.38 C-52.96 537.85 -55.92 535.18 -58.81 532.44 C-64.7 528.21 -67.85 526.98 -74.69 525.38 C-86.98 522.45 -91.17 517.57 -97.75 507 C-104.84 495 -107.96 486.05 -109.68 472.2 C-111.94 461.59 -116.91 455.83 -125 449 C-135.01 437.26 -137.29 424.48 -137.12 409.44 C-137.11 407.29 -137.09 405.14 -137.07 402.93 C-137.05 401.31 -137.02 399.68 -137 398 C-134.48 404.31 -132.97 410.75 -131.32 417.34 C-130 422 -130 422 -127 429 C-126.34 428.67 -125.68 428.34 -125 428 C-125.32 426.41 -125.64 424.83 -125.98 423.2 C-127.23 414.37 -127.37 405.78 -127.38 396.88 C-127.4 395.22 -127.42 393.56 -127.45 391.86 C-127.52 361.38 -116.43 335.52 -95.19 313.81 C-78.92 297.92 -63.15 290.81 -41.15 286.08 C-22.53 281.87 -10.41 274.07 0 258 C-0.33 257.34 -0.66 256.68 -1 256 C-1.72 256.97 -2.44 257.94 -3.19 258.94 C-18.18 274.91 -35.17 277.24 -55.81 278.38 C-74.17 280.23 -87.56 289.09 -101 301 C-102.98 302.65 -104.96 304.3 -107 306 C-109.16 309.81 -109.16 309.81 -111.06 314 C-113.67 319.71 -115.41 322.41 -120 327 C-119.52 322.76 -119.04 318.51 -118.56 314.27 C-118.19 310.83 -117.87 307.39 -117.6 303.95 C-115.72 280.97 -109 263.79 -94 246 C-90.88 241.04 -88.01 236.01 -85.19 230.88 C-75.02 215.32 -56.61 209.51 -40 203 C-25.56 200.11 -9.16 201.22 4 208 C7.62 211.24 7.62 211.24 11 214.88 C18.15 222.28 24.95 228.06 35 231 C35.99 230.67 36.98 230.34 38 230 C37.01 229.54 37.01 229.54 32 227.19 C24.75 222.85 21.45 219.07 17 212 C19.14 212 21.29 212 23.5 212 C32.99 211.36 39.84 207.62 48 203 C59.41 196.76 70.01 191.16 83 189 C83 188.34 83 187.68 83 187 C69.06 187.29 58.8 191.68 46.38 197.69 C29.72 205.17 17.06 204.69 -0.06 198.94 C-15.62 194.15 -28.2 193.8 -44 197 C-48.94 197.1 -53.86 197.06 -58.8 196.97 C-63 197 -63 197 -67 198 C-62.69 182.25 -58.21 176.12 -44 168 C-36.52 163.51 -30.61 159.68 -24.75 153.19 C-17.81 145.61 -11.3 144.25 -1.56 142.25 C6.96 140.47 14.49 137.51 22.4 133.9 C39.68 126.75 56.86 128.29 75 131 C90.69 131.95 100.27 129.68 113 120 C113.33 119.34 113.66 118.68 114 118 C112.35 118.66 110.7 119.32 109 120 C96.31 124.95 87.97 127.68 74.69 123.12 C67.82 120.85 61.19 119.04 54 118 C62.41 114.01 70.78 110.07 79.38 106.5 C100.39 96.85 117.72 79.19 127 58 C127.33 56.02 127.66 54.04 128 52 C124 56 124 56 121.06 59.5 C111.44 70.16 100.73 78.83 89 87 C87.71 87.9 86.43 88.8 85.1 89.73 C73.41 97.75 61.14 102.77 48 107.94 C43.64 109.74 39.46 111.7 35.25 113.81 C27.31 117.31 20.54 118.71 12 120 C12.16 108.88 16.18 99.28 20 89 C20.72 86.88 21.44 84.75 22.19 82.56 C26.78 71.01 38.31 65.5 48.62 59.62 C59.31 53.29 67.36 45.13 73 34 C72.67 33.34 72.34 32.68 72 32 C71.21 32.9 71.21 32.9 67.19 37.44 C57.74 47.67 47.45 54.6 35.41 61.45 C18.34 71.33 12.9 85.79 6.06 103.69 C-0.71 119.85 -9.58 129.4 -24 139 C-25.39 139.93 -26.78 140.85 -28.21 141.8 C-37.8 147.93 -47.37 152.45 -58.06 156.34 C-62 158 -62 158 -64 161 C-55.22 159.31 -46.59 157.47 -38 155 C-39.26 155.56 -40.52 156.11 -41.81 156.69 C-47.22 159.1 -52.61 161.54 -58 164 C-59.51 164.68 -61.02 165.36 -62.57 166.06 C-78.48 173.55 -85.06 183.62 -93.59 198.53 C-98.65 207.34 -103.85 215.93 -109.56 224.33 C-113.61 230.42 -117.29 236.71 -121 243 C-119.95 236.02 -118.6 229.25 -116.81 222.44 C-115 215 -115 215 -116 212 C-116.74 213.4 -117.49 214.81 -118.25 216.25 C-121 221 -121 221 -125 225 C-126.65 225.33 -128.3 225.66 -130 226 C-131.93 219.92 -133.47 213.86 -134.81 207.62 C-137.06 197.96 -140.79 190.1 -146.56 182 C-157.96 165.43 -159.94 143.85 -158.5 124.19 C-155.2 110.58 -146.58 98.77 -135 91 C-133.76 90.25 -132.52 89.5 -131.25 88.73 C-115.95 79.45 -105.95 69.61 -100 52.12 C-99.67 50.76 -99.34 49.4 -99 48 C-101 49 -101 49 -102.62 52.44 C-110.33 67.24 -123.5 79.8 -139 86 C-139 83.36 -139 80.72 -139 78 C-140.85 70.05 -143.13 62.58 -146.25 55.06 C-151.08 42.47 -149.7 31.43 -145 19 C-145.17 18.67 -145.17 18.67 -146 17 Z M28.56 75.38 C24.82 80.24 23.4 84.07 22 90 C26.38 85.62 28.93 80.35 32 75 C32.66 74.01 33.32 73.02 34 72 C32 72 32 72 28.56 75.38 Z M-130 90 C-143.68 99.46 -152.87 109.5 -157 126 C-157.07 129 -157.09 132 -157 135 C-155 133 -155 133 -153.38 127.31 C-148.65 112.76 -141.97 100.64 -129 92 C-129.33 91.34 -129.66 90.68 -130 90 Z M21 93 C14.29 108.86 14.29 108.86 14 117 C24.8 117 32.43 113.31 42 108.69 C51.45 104.13 61.1 100.45 71 97 C70.83 96.67 70.83 96.67 70 95 C66.58 96.19 63.17 97.37 59.75 98.56 C57.66 99.29 55.57 100.01 53.41 100.76 C49.39 102.16 45.38 103.58 41.37 105.02 C40.52 105.33 40.52 105.33 36.19 106.88 C34.65 107.43 33.12 107.98 31.54 108.55 C26.73 110.08 21.96 111.1 17 112 C17.85 109.61 18.69 107.22 19.56 104.75 C22 97 22 97 21 93 Z M-225 112 C-223.88 131.12 -214.01 150.97 -200 164 C-191.78 169.81 -182.88 174.29 -174 179 C-172.02 180.32 -170.04 181.64 -168 183 C-169.13 177.35 -170.53 174.14 -175.12 170.56 C-180.93 167.51 -186.85 165.48 -193.07 163.43 C-206.21 158.64 -210.68 144.32 -216.94 132.69 C-220.05 125.89 -222.15 119.24 -224 112 C-224.33 112 -224.66 112 -225 112 Z M-219 123 C-217 130.62 -213.38 136.7 -209.27 143.33 C-207.37 146.4 -205.58 149.54 -203.81 152.69 C-198.14 161.38 -189.46 163.01 -180 166 C-178.02 166.66 -176.04 167.32 -174 168 C-175 163 -175 163 -177 161 C-181.48 159.44 -186.01 158.04 -190.55 156.63 C-202.78 152.15 -206.83 142.13 -212.81 131.38 C-217 124 -217 124 -219 123 Z M-152 168 C-148.23 175.9 -144.01 182.85 -139 190 C-135.77 196.5 -133.93 202.79 -132.38 209.88 C-130.21 219.69 -130.21 219.69 -128 223 C-122.7 220.35 -121.04 217.02 -118 212 C-117.34 210.02 -116.68 208.04 -116 206 C-118.97 206 -121.94 206 -125 206 C-127.2 201.75 -129.12 197.66 -130.69 193.12 C-133.5 186.88 -137.29 182.95 -142 178 C-143.46 176.14 -144.93 174.29 -146.44 172.38 C-147.61 170.93 -148.79 169.49 -150 168 C-150.66 168 -151.32 168 -152 168 Z M-40 168 C-49.84 173.65 -56.3 178.03 -62 188 C-62.33 189.98 -62.66 191.96 -63 194 C-54.58 195.12 -46.11 195.98 -37.79 194 C-32.54 192.9 -27.79 192.8 -22.44 192.88 C-20.66 192.89 -18.89 192.91 -17.06 192.93 C-15.72 192.95 -14.38 192.98 -13 193 C-22.21 186.09 -31.75 184.64 -43 185 C-47.01 185.6 -51.01 186.25 -55 187 C-49.62 180.69 -43.9 174.82 -38 169 C-38.66 168.67 -39.32 168.34 -40 168 Z M49.31 191.75 C32.18 198.82 22.07 201.3 4 194 C-1 192 -1 192 -9 192 C-9.33 192.66 -9.66 193.32 -10 194 C-5.78 195.36 -1.55 196.68 2.69 198 C5.04 198.74 7.4 199.49 9.82 200.25 C29.48 205.04 44.61 197.48 62 189 C57.2 187.4 53.88 189.85 49.31 191.75 Z M194 209 C188.63 214.43 183.77 220.04 179 226 C175.02 227.06 171.01 228.06 167 229 C159.28 234.14 154.15 240.69 150 249 C146.73 250.82 143.38 252.52 140 254.12 C130.17 258.83 130.17 258.83 128 261 C128 261.99 128 262.98 128 264 C135.91 267.67 143.43 269.86 152 267 C151.67 266.01 151.34 265.02 151 264 C148.69 264 146.38 264 144 264 C141.36 263.34 138.72 262.68 136 262 C135.67 261.34 135.34 260.68 135 260 C137.43 259.69 139.87 259.38 142.38 259.06 C150 258 150 258 152 257 C152.31 258.42 152.62 259.85 152.94 261.31 C154 266 154 266 155 269 C152.88 269.25 150.75 269.5 148.56 269.75 C139.26 272.52 137.12 275.99 132 284 C131.34 284.66 131.34 284.66 128 288 C128 288.66 128 289.32 128 290 C129.65 290 131.3 290 133 290 C129 295 129 295 124.16 298.02 C117.83 302.91 115.74 307.36 112.5 314.62 C112 315.72 112 315.72 109.47 321.29 C107.93 324.84 106.44 328.41 105 332 C104.91 326.14 105.27 320.87 106 315 C100.76 317.1 96.47 319.75 91.69 322.75 C78.42 330.72 65.82 334.86 50.88 338.5 C35.15 342.34 24.49 346.36 12 357 C9.69 357.99 7.38 358.98 5 360 C-3.21 365.56 -8.76 372.39 -15 380 C-22.59 389.06 -30.39 396.61 -41 402 C-42.65 402.99 -44.3 403.98 -46 405 C-45.67 405.99 -45.34 406.98 -45 408 C-54.47 412.87 -63.64 414.9 -74 417 C-74 417.99 -74 418.98 -74 420 C-70.74 423.26 -67.56 423.03 -63.06 423.31 C-56.19 422.96 -50.5 421.19 -44 419 C-43.34 419 -42.68 419 -42 419 C-43.32 420.65 -44.64 422.3 -46 424 C-37.07 422.21 -31.15 415.41 -25 409 C-25 410.98 -25 412.96 -25 415 C-19.21 409.21 -15.86 403.2 -12 396 C-12 395.01 -12 394.02 -12 393 C-11.01 393 -10.02 393 -9 393 C-8.32 391.23 -7.64 389.45 -6.94 387.62 C-4.18 381.41 -1.06 376.42 3 371 C3 379 3 379 2 386 C2.01 393.31 2.13 400.62 2.26 407.93 C1.85 419.01 -0.59 425.77 -8 434 C-11.29 436.72 -14.62 439.4 -18 442 C-19.66 445.32 -19.75 448.96 -20.25 452.62 C-21.7 462.74 -23.81 472.62 -26.11 482.57 C-26.96 487.79 -26.87 491.82 -26 497 C-18.9 497.08 -12.04 496.94 -5 496 C-8 493 -8 493 -14 492 C-14.66 492.33 -15.32 492.66 -16 493 C-9.21 456.22 -9.21 456.22 4 447 C7.53 444.99 11.1 443.03 14.69 441.12 C40.05 427.42 51.72 414.15 61 387 C61.33 384.69 61.66 382.38 62 380 C62.66 380 63.32 380 64 380 C63.34 385.94 62.68 391.88 62 398 C64.31 397.67 66.62 397.34 69 397 C76.31 397 82.8 397.89 90 399 C98 399 98 399 106 397 C106.99 395.35 107.98 393.7 109 392 C109.14 392.77 109.14 392.77 109.88 396.69 C111 402 111 402 113 407 C115.19 417.28 116.15 427.44 116.44 437.94 C116.71 446.37 117.82 453.1 121 461 C121.35 462.71 121.7 464.42 122.06 466.19 C122.37 467.45 122.68 468.7 123 470 C128.14 471.71 132.91 469.37 138 468 C138 467.34 138 466.68 138 466 C136.35 465.34 134.7 464.68 133 464 C123.97 443.42 131.64 414.5 138 394 C141 388 141 388 144 386 C143.67 388.64 143.34 391.28 143 394 C157.9 388.04 166.89 376.05 174 362.12 C176 357 176 357 178 349 C178.99 350.32 179.98 351.64 181 353 C182.95 346.71 184.65 340.45 186 334 C186.66 334.33 187.32 334.66 188 335 C190.5 324.85 189.79 315.31 189 305 C190.32 306.98 191.64 308.96 193 311 C193.66 310.67 194.32 310.34 195 310 C194.5 307.42 194.01 304.84 193.5 302.19 C192 294 192 294 192 291 C192.99 291.99 193.98 292.98 195 294 C196 292 196 292 195.06 288.38 C191.9 272.36 194.64 261.5 203.56 248.19 C205.03 246.15 206.49 244.1 208 242 C212 235 212 235 212 230 C209 230 209 230 205.06 232.06 C201 234 201 234 197 233 C197.66 231.06 198.32 229.12 199 227.12 C200.75 220.89 201.47 216.38 201 210 C200.67 209.67 200.34 209.34 200 209 C198.02 209 196.04 209 194 209 Z M-220 252 C-219.5 253.51 -219.01 255.01 -218.5 256.56 C-215.47 269.55 -217.35 281.94 -219.34 294.93 C-220.84 306.5 -219.42 314.37 -213 324 C-208.43 326.69 -203.75 328.49 -198.81 330.44 C-193 333 -193 333 -188 338 C-186.68 338.66 -185.36 339.32 -184 340 C-183.34 337.69 -182.68 335.38 -182 333 C-182.57 332.75 -182.57 332.75 -185.44 331.46 C-206.9 321.65 -206.9 321.65 -212 311 C-213.93 302.24 -213.84 294.86 -213 286 C-212.85 282.29 -212.75 278.58 -212.69 274.88 C-212.65 273.06 -212.61 271.24 -212.57 269.37 C-213.04 263.5 -214.43 259.27 -217 254 C-217.99 253.34 -218.98 252.68 -220 252 Z M-100 257 C-111.99 275.4 -116.25 294.34 -116 316 C-113 312 -113 312 -110.12 307.44 C-97.64 290.98 -79.31 280.38 -59 277 C-56.04 276.88 -53.08 276.77 -50.12 276.69 C-37.47 276.05 -25.86 273.98 -15 267 C-15.33 266.83 -15.33 266.83 -17 266 C-21.01 267.64 -25.01 269.31 -29 271 C-37.72 272.74 -46.7 271.78 -55.56 271.55 C-67.49 272.27 -76.59 277.02 -86.75 283 C-88.48 284.01 -90.2 285.02 -91.98 286.06 C-92.81 286.55 -92.81 286.55 -97 289 C-105.23 293.62 -105.23 293.62 -108 295 C-106.95 283.49 -104.98 273.84 -101 263 C-100.34 261.02 -99.68 259.04 -99 257 C-99.33 257 -99.66 257 -100 257 Z M594 302 C593.74 303.09 593.74 303.09 592.45 308.61 C585.46 337.85 577.4 366.97 564 394 C563.19 395.7 562.38 397.4 561.54 399.15 C556.63 409.26 551.19 418.62 545 428 C545 428.66 545 429.32 545 430 C556.73 427.65 563.51 415.22 570 406 C587.16 379.04 603.72 341.63 597.56 309.5 C597.3 308.43 597.3 308.43 596 303 C595.34 302.67 594.68 302.34 594 302 Z M-379 303 C-379.71 305.74 -380.39 308.5 -381.06 311.25 C-381.45 312.78 -381.83 314.31 -382.22 315.89 C-386.98 347.16 -367.45 386.02 -350 411 C-338.46 426.27 -338.46 426.27 -331 430 C-330.01 429.67 -329.02 429.34 -328 429 C-329.24 427 -330.48 425 -331.75 422.94 C-351.92 389.14 -364.73 353.35 -374.03 315.26 C-374.96 311.49 -375.97 307.74 -377 304 C-377.66 303.67 -378.32 303.34 -379 303 Z M-206 330 C-204.45 334.66 -200.66 336.83 -197 340 C-188.6 350.5 -184.27 363.07 -181 376 C-180.67 375.83 -180.67 375.83 -179 375 C-174.22 359.5 -172.94 346.99 -176 331 C-176.66 330.67 -177.32 330.34 -178 330 C-183 342.62 -183 342.62 -183 346 C-187 342 -187 342 -192 336 C-196.66 333.41 -200.83 331.29 -206 330 Z M-122 364 C-126.91 376.27 -126.3 389.01 -126 402 C-125.97 403.51 -125.94 405.02 -125.91 406.57 C-125.43 419.29 -122.91 431.22 -118 443 C-126.48 436.22 -131.14 426.38 -134 416 C-134.33 416 -134.66 416 -135 416 C-135 428.11 -131.71 437.67 -124 447 C-122.31 448.49 -120.62 449.97 -118.88 451.5 C-110.69 459.05 -108.91 465.58 -107.56 476.38 C-106.44 485.13 -104.65 491.37 -100 499 C-99.16 500.42 -98.31 501.83 -97.45 503.29 C-86.98 520.3 -86.98 520.3 -76.85 523.18 C-75.46 523.41 -74.06 523.64 -72.62 523.88 C-64.6 525.56 -60.04 528.3 -54 534 C-48.5 539.16 -44.49 542.5 -37 544 C-31 543.31 -31 543.31 -26 542 C-25.67 541.34 -25.34 540.68 -25 540 C-27.31 539.92 -29.62 539.84 -32 539.75 C-42.93 538.73 -45.93 537.32 -53.25 529.12 C-60.11 521.82 -66.62 518.79 -75.75 515.06 C-86.38 509.9 -90.23 502.61 -95 492 C-96.59 485.65 -96.73 479.14 -97.21 472.62 C-98.78 461.43 -103.27 452.08 -108.44 442.12 C-121.71 416.02 -122.77 392.95 -121 364 C-121.33 364 -121.66 364 -122 364 Z M-375 393 C-375.66 393.66 -376.32 394.32 -377 395 C-377 396.98 -377 398.96 -377 401 C-375.68 401.99 -374.36 402.98 -373 404 C-369 403 -369 403 -367 401 C-367 399.02 -367 397.04 -367 395 C-367.66 394.34 -368.32 393.68 -369 393 C-370.98 393 -372.96 393 -375 393 Z M165 398 C159.56 406.92 157.86 411.23 157.88 421.62 C157.87 423.54 157.87 425.45 157.87 427.41 C157.98 432.35 158.36 437.11 159 442 C159.33 442 159.66 442 160 442 C160.1 440.06 160.2 438.11 160.3 436.11 C160.45 433.54 160.6 430.96 160.75 428.31 C160.89 425.77 161.03 423.23 161.17 420.61 C161.97 413.27 163.71 406.99 166 400 C165.67 399.34 165.34 398.68 165 398 Z M80 402 C77 409 77 409 74.75 415.69 C68.6 432.05 59.47 442.22 46 453 C41 458 41 458 40.81 461.94 C42.67 469.84 45.17 478.17 51 484 C58.86 487.93 67.94 484.22 76.15 482.31 C78.45 481.78 80.76 481.25 83.13 480.7 C85.52 480.14 87.91 479.58 90.38 479 C92.79 478.44 95.2 477.88 97.69 477.3 C115.52 473.16 115.52 473.16 119 472 C118.16 465.98 117.31 460.71 114.88 455.12 C112.46 448.52 112.88 443.03 113 436 C112.2 424.33 111.31 412.61 106 402 C97.42 402 88.84 402 80 402 Z M139 405 C133.63 421.11 130.76 440.37 134 457.19 C136.57 462.08 138.84 463.2 144 465 C145.65 465 147.3 465 149 465 C148.67 462.36 148.34 459.72 148 457 C147.81 455.08 147.62 453.17 147.42 451.19 C145.84 435.56 143.36 420.35 140 405 C139.67 405 139.34 405 139 405 Z M-1 455 C-4.35 460.82 -6.31 466.76 -8.19 473.19 C-8.7 474.91 -9.21 476.64 -9.73 478.42 C-11 483 -11 483 -12 488 C-11.29 488.21 -11.29 488.21 -7.69 489.25 C-3 491 -3 491 0 495 C9.93 494.89 24.89 494.55 34 490 C32.18 484.54 30.01 479.67 27.5 474.5 C20.74 460.55 20.74 460.55 22 453 C23.01 451.68 24.02 450.36 25.06 449 C28 445 28 445 28 439 C19.12 439 5.52 449.65 -1 455 Z M559 449 C557.89 451.27 556.77 453.54 555.62 455.88 C548.1 470.88 539.82 485.1 530.49 499.06 C528 503 528 503 528 505 C543.44 498.82 554.4 483.62 563 470 C565.31 471.32 567.62 472.64 570 474 C575 473 575 473 579 469 C581 464 581 464 581 456 C580.84 455.67 580.84 455.67 580 454 C573.79 454 571.29 455.08 566 458 C565.34 456.68 564.68 455.36 564 454 C563.01 452.35 562.02 450.7 561 449 C560.34 449 559.68 449 559 449 Z M-344 448 C-348 455 -348 455 -348 459 C-349.9 457.97 -351.8 456.94 -353.75 455.88 C-355.81 454.93 -357.88 453.98 -360 453 C-360.66 453.33 -360.66 453.33 -364 455 C-364.36 460.81 -364.57 464.86 -361.94 470.12 C-359 473 -359 473 -352 474 C-350.68 473.01 -349.36 472.02 -348 471 C-348 470.34 -348 469.68 -348 469 C-344 473 -344 473 -340.94 477.5 C-332.91 488.72 -323.46 499.77 -311 506 C-313.09 500.77 -315.71 496.61 -318.75 491.88 C-325.5 481.1 -331.35 469.98 -337.1 458.66 C-338.95 455.04 -340.91 451.48 -343 448 C-343.33 448 -343.66 448 -344 448 Z M456 457 C455.59 458.62 455.17 460.24 454.75 461.91 C441.49 512.77 441.49 512.77 428 533 C428.33 533.99 428.66 534.98 429 536 C429.16 535.84 429.16 535.84 430 535 C432.64 534.67 435.28 534.34 438 534 C440 531 440 531 440.19 525.69 C441.19 517.4 443.99 512.29 448 505 C452 510 452 510 455 515 C455.66 515 456.32 515 457 515 C457.04 513.32 457.07 511.64 457.11 509.91 C457.72 489.19 457.72 489.19 459.69 479.62 C461.12 471.3 460.66 464.97 458 457 C457.34 457 456.68 457 456 457 Z M-370 470 C-371.73 474.74 -373.43 479.49 -375.12 484.25 C-375.37 484.92 -375.37 484.92 -376.62 488.34 C-377.86 491.85 -378.94 495.43 -380 499 C-376.18 506.64 -366.78 509.86 -359.12 513 C-358.09 513.33 -357.06 513.66 -356 514 C-355 513 -355 513 -354.69 507.38 C-355.32 492.51 -359.58 481.3 -369 470 C-369.33 470 -369.66 470 -370 470 Z M-321 477 C-321.33 477.99 -321.66 478.98 -322 480 C-321.01 479.67 -320.02 479.34 -319 479 C-319 478.34 -319 477.68 -319 477 C-319.66 477 -320.32 477 -321 477 Z M536 478 C536 478.66 536 479.32 536 480 C536.66 480 537.32 480 538 480 C538 479.34 538 478.68 538 478 C537.34 478 536.68 478 536 478 Z M462 481 C460.16 494.09 459.78 506.79 460 520 C454 519 454 519 451.12 515.44 C450.42 514.3 449.72 513.17 449 512 C444.07 516.93 443.93 520.65 443.19 527.62 C442.8 530.06 442.4 532.49 442 535 C437 538 437 538 431 539 C431.16 539.83 431.16 539.83 432 544 C433.98 543.67 435.96 543.34 438 543 C437.46 545.25 436.93 547.5 436.38 549.81 C435 557 435 557 437 560 C444.78 559.65 448.38 559.41 455 555 C455.66 555.16 455.66 555.16 459 556 C460.79 559.59 460.26 563.08 460 567 C458.68 568.32 457.36 569.64 456 571 C450.75 570.75 450.75 570.75 446 570 C445.84 570.5 445.84 570.5 445 573 C444.34 573.33 444.34 573.33 441 575 C431.69 581.04 426.42 584.63 422 595 C416 600 416 600 411 602 C417 603.5 420.61 600.63 426 598 C417.28 621.5 404.73 642.81 390 663 C390 663.66 390 664.32 390 665 C397.44 668.72 407.56 665.1 415 663 C404.25 688.89 390.37 714.56 372.12 735.94 C367 742 367 742 365 746 C399.05 743.58 432.23 734.12 465.06 725.31 C467.53 724.66 469.99 724 472.53 723.33 C474.84 722.7 477.15 722.07 479.54 721.43 C481.62 720.86 483.71 720.3 485.86 719.72 C491 718 491 718 496 714 C493.59 713.9 491.17 713.79 488.69 713.69 C480.74 713.19 472.78 712.52 466 708 C468 703 468 703 471.62 698.88 C475 695 475 695 475 692 C473.13 691.04 471.26 690.07 469.34 689.08 C466.9 687.81 464.45 686.55 461.94 685.25 C459.51 684 457.09 682.74 454.59 681.45 C450.01 679.06 445.49 676.56 441 674 C439.02 674 437.04 674 435 674 C435.71 673.54 435.71 673.54 439.31 671.19 C444 668 444 668 447 665 C451 667 451 667 456 670 C464.41 668.32 468.6 663.48 474 657 C474.99 656.01 475.98 655.02 477 654 C477.55 654.89 477.55 654.89 480.31 659.38 C484 665 484 665 487 667 C484.64 656.95 481.93 647.58 478 638 C477.11 635.77 476.23 633.54 475.31 631.25 C473 626 473 626 471 625 C470.84 625.99 470.84 625.99 470 631 C469.11 629.41 468.23 627.82 467.31 626.19 C464 621 464 621 459 618 C457.02 618 455.04 618 453 618 C449 622 449 622 448 624 C446.76 622.25 445.52 620.49 444.25 618.69 C440 613 440 613 436 610 C429 611 429 611 424 613 C424.37 612.47 424.37 612.47 426.23 609.78 C427.21 608.37 428.18 606.96 429.19 605.5 C430.15 604.11 431.11 602.72 432.11 601.28 C434.84 597.24 437.44 593.15 440 589 C440.16 591.64 440.16 591.64 441 605 C455.71 597.65 466.37 587.9 475 574 C476.38 575.42 477.76 576.85 479.19 578.31 C484 583 484 583 489 586 C489.17 574.4 488.24 565.55 483.44 554.88 C482.61 553.02 481.78 551.16 480.93 549.24 C480.3 547.84 479.66 546.44 479 545 C481 545 481 545 488 547 C489.65 547 491.3 547 493 547 C490.55 540.87 487.46 535.21 484.38 529.38 C476.18 513.62 469.36 497.92 464 481 C463.34 481 462.68 481 462 481 Z M-193 491 C-193.29 492.35 -193.58 493.71 -193.88 495.1 C-197.93 513.08 -202.66 529.52 -218 541 C-222.96 542.69 -222.96 542.69 -228.38 544 C-243.99 547.8 -252.36 556.3 -261.06 569.44 C-262.36 571.6 -263.66 573.77 -265 576 C-264.67 576.66 -264.34 577.32 -264 578 C-255 568.25 -255 568.25 -255 566 C-254.34 565.67 -254.34 565.67 -251 564 C-249.76 562.89 -248.53 561.77 -247.25 560.62 C-240.11 554.54 -234.07 552.18 -224.75 551.62 C-215.46 550.76 -211.62 549.62 -205 543 C-204.24 541.14 -203.47 539.29 -202.69 537.38 C-200 531 -200 531 -195.81 525.25 C-189.02 515.9 -189.34 507.35 -191 496.44 C-191.16 495.54 -191.16 495.54 -192 491 C-192.33 491 -192.66 491 -193 491 Z M-241 498 C-241.5 498.66 -241.5 498.66 -244 502 C-243.34 503.65 -242.68 505.3 -242 507 C-240.68 507.33 -239.36 507.66 -238 508 C-236.68 506.68 -235.36 505.36 -234 504 C-234.33 502.35 -234.66 500.7 -235 499 C-235.99 498.84 -235.99 498.84 -241 498 Z M-271 524 C-270.01 525.98 -269.02 527.96 -268 530 C-267.34 529.34 -266.68 528.68 -266 528 C-266 527.01 -266 526.02 -266 525 C-267.65 524.67 -269.3 524.34 -271 524 Z M-287 541 C-287.33 542.32 -287.66 543.64 -288 545 C-287.01 546.65 -286.02 548.3 -285 550 C-280 551 -280 551 -276 549 C-275 547 -275 547 -275 541 C-280.39 536.95 -281.61 536.95 -287 541 Z M-11 538 C-11 538.66 -11 539.32 -11 540 C-8.42 541.37 -5.84 542.72 -3.25 544.06 C-1.81 544.82 -0.37 545.57 1.11 546.35 C5 548 5 548 9 547 C2.45 543.27 -3.76 540.14 -11 538 Z M425 541 C424.67 542.32 424.34 543.64 424 545 C424.99 545 425.98 545 427 545 C427 543.68 427 542.36 427 541 C426.34 541 425.68 541 425 541 Z M431 559 C430.38 560.19 429.77 561.37 429.13 562.59 C423.6 573.17 417.88 583.61 412 594 C411.34 595.32 410.68 596.64 410 598 C415 596 415 596 421 591 C421.66 589.45 422.32 587.91 423 586.31 C427.27 578.75 432.79 575.81 440 571 C441.32 569.68 442.64 568.36 444 567 C448 566.88 452 566.87 456 567 C456.33 566.67 456.66 566.34 457 566 C457 563.69 457 561.38 457 559 C453 560 453 560 451 562 C448.69 562 446.38 562 444 562 C441 562.31 438 562.64 435 563 C434.34 563 433.68 563 433 563 C432.34 561.68 431.68 560.36 431 559 Z M382 607 C380.35 608.65 378.7 610.3 377 612 C371.69 612.31 371.69 612.31 367 612 C368.78 617.5 370.72 622.68 373 628 C373.66 628 374.32 628 375 628 C376.37 625.26 377.72 622.51 379.06 619.75 C379.82 618.22 380.57 616.69 381.35 615.11 C383 611 383 611 382 607 Z M551 640 C550.34 640.66 549.68 641.32 549 642 C549 643.65 549 645.3 549 647 C549.66 647.66 550.32 648.32 551 649 C552.65 649 554.3 649 556 649 C556.66 648.34 557.32 647.68 558 647 C558 645.35 558 643.7 558 642 C557.34 641.34 556.68 640.68 556 640 C554.35 640 552.7 640 551 640 Z M276 649 C275.01 649.99 274.02 650.98 273 652 C273.33 652.99 273.66 653.98 274 655 C274.66 655 275.32 655 276 655 C276.33 653.02 276.66 651.04 277 649 C276.67 649 276.34 649 276 649 Z M319 651 C318.34 651 317.68 651 317 651 C319.88 659.75 319.88 659.75 321 662 C321.66 662 322.32 662 323 662 C327 653.38 327 653.38 327 650 C324.31 650 321.65 650.56 319 651 Z M498 671 C497.01 671.99 496.02 672.98 495 674 C495 675.65 495 677.3 495 679 C496.32 679.99 497.64 680.98 499 682 C504 680 504 680 505 679 C505 677.35 505 675.7 505 674 C504.01 673.01 503.02 672.02 502 671 C500.68 671 499.36 671 498 671 Z M349 691 C348.34 691.66 347.68 692.32 347 693 C347 700 347 700 349 703 C350.65 703.33 352.3 703.66 354 704 C355.65 702.68 357.3 701.36 359 700 C359 698.02 359 696.04 359 694 C358.01 693.01 357.02 692.02 356 691 C353.69 691 351.38 691 349 691 Z M198 705 C193.02 727.8 193.02 727.8 198 739 C202.62 745.71 208.08 750.98 214.06 756.44 C225.62 767.11 231.25 776.78 232.88 792.44 C234.37 805.88 239.48 812.51 250 821 C260.8 828.65 272.01 835.65 283.25 842.62 C293.1 848.75 302.62 855.18 312 862 C313.5 863.07 315 864.14 316.55 865.25 C325.9 871.93 334.99 878.87 344 886 C344.66 886.33 345.32 886.66 346 887 C343.07 879.67 337.93 874.09 333 868 C332.45 867.32 332.45 867.32 329.66 863.88 C327.44 861.14 325.22 858.41 322.99 855.68 C320.62 852.76 318.27 849.82 315.94 846.88 C310.76 840.47 305.37 834.25 300 828 C275.17 798.93 275.17 798.93 276.06 781 C276.23 768.53 273.96 763.45 265.81 753.94 C253.35 741.93 237.7 733.47 223 724.5 C216.65 720.42 211.47 716.16 206 711 C203.36 708.97 200.7 706.95 198 705 Z " fill="#000000" transform="translate(404,127)"/>
<path d="M0 0 C1.65 0 3.3 0 5 0 C4.67 1.65 4.34 3.3 4 5 C2.68 5 1.36 5 0 5 C0 3.35 0 1.7 0 0 Z " fill="#000000" transform="translate(970,173)"/>
<path d="M0 0 C1.65 0 3.3 0 5 0 C5.99 1.65 6.98 3.3 8 5 C7.34 6.32 6.68 7.64 6 9 C3.69 8.67 1.38 8.34 -1 8 C-1.33 6.35 -1.66 4.7 -2 3 C-1.34 2.01 -0.68 1.02 0 0 Z " fill="#000000" transform="translate(559,211)"/>
<path d="" fill="#000000" transform="translate(0,0)"/>
<path d="M0 0 C0.33 0.33 0.66 0.66 1 1 C0.67 3.31 0.34 5.62 0 8 C-1.32 8.33 -2.64 8.66 -4 9 C-5.32 8.01 -6.64 7.02 -8 6 C-8 4.35 -8 2.7 -8 1 C-5 -1 -5 -1 0 0 Z " fill="#000000" transform="translate(123,231)"/>
<path d="M0 0 C1.65 0 3.3 0 5 0 C7 2 7 2 7 7 C6.34 7.66 5.68 8.32 5 9 C3.35 9 1.7 9 0 9 C-0.66 8.34 -1.32 7.68 -2 7 C-2 2 -2 2 0 0 Z " fill="#000000" transform="translate(607,252)"/>
<path d="M0 0 C2 1 2 1 2 1 Z " fill="#000000" transform="translate(368,280)"/>
<path d="M0 0 C1.98 0 3.96 0 6 0 C6.99 0.99 7.98 1.98 9 3 C9 4.98 9 6.96 9 9 C8.01 9.99 7.02 10.98 6 12 C3.69 11.67 1.38 11.34 -1 11 C-3 8 -3 8 -2 2 C-1.34 1.34 -0.68 0.68 0 0 Z " fill="#000000" transform="translate(55,281)"/>
<path d="M0 0 C1.65 0 3.3 0 5 0 C7 3 7 3 6 9 C2 10 2 10 -2 8 C-2 2 -2 2 0 0 Z " fill="#000000" transform="translate(951,287)"/>
<path d="M0 0 C1.65 0.33 3.3 0.66 5 1 C5 2.65 5 4.3 5 6 C3.35 6.33 1.7 6.66 0 7 C-0.66 6.34 -1.32 5.68 -2 5 C-1 1 -1 1 0 0 Z " fill="#000000" transform="translate(670,297)"/>
<path d="M0 0 C0.99 0.17 0.99 0.17 6 1 C8 4 8 4 7 10 C5 11 5 11 -1 11 C-1.66 10.34 -2.32 9.68 -3 9 C-3 7.02 -3 5.04 -3 3 C-2.01 2.01 -1.02 1.02 0 0 Z " fill="#000000" transform="translate(209,337)"/>
<path d="M0 0 C1.65 0.33 3.3 0.66 5 1 C5.33 2.65 5.66 4.3 6 6 C5.67 6.33 5.34 6.66 5 7 C3.35 7 1.7 7 0 7 C-0.33 6.67 -0.66 6.34 -1 6 C-1 1 -1 1 0 0 Z " fill="#000000" transform="translate(750,340)"/>
<path d="M0 0 C1.98 0 3.96 0 6 0 C8 5 8 5 7 8 C4.69 8.33 2.38 8.66 0 9 C-0.66 8.01 -1.32 7.02 -2 6 C-1 1 -1 1 0 0 Z " fill="#000000" transform="translate(867,343)"/>
<path d="M0 0 C0.99 0.17 0.99 0.17 6 1 C6.33 2.98 6.66 4.96 7 7 C6.01 7.99 5.02 8.98 4 10 C-1 9 -1 9 -3 7 C-2 2 -2 2 0 0 Z " fill="#000000" transform="translate(93,352)"/>
<path d="" fill="#000000" transform="translate(0,0)"/>
<path d="M0 0 C1.98 0 3.96 0 6 0 C6 0.66 6 1.32 6 2 C3.37 3.73 0.7 5.39 -2 7 C-1 1 -1 1 0 0 Z " fill="#000000" transform="translate(573,359)"/>
<path d="M0 0 C1.69 5.08 -1.54 8.85 -3.81 13.5 C-4.82 15.57 -5.83 17.64 -6.87 19.77 C-9.64 25.28 -12.51 30.71 -15.44 36.12 C-22.5 49.52 -24.9 62.61 -27.07 77.5 C-28 83 -28 83 -30 88 C-30.33 88 -30.66 88 -31 88 C-31.58 50.86 -22.09 29.38 0 0 Z " fill="#000000" transform="translate(303,361)"/>
<path d="" fill="#000000" transform="translate(0,0)"/>
<path d="M0 0 C0.99 0.99 1.98 1.98 3 3 C3 4.98 3 6.96 3 9 C2.01 9.99 1.02 10.98 0 12 C-2.31 11.67 -4.62 11.34 -7 11 C-8 9 -8 9 -8 2 C-5 0 -5 0 0 0 Z " fill="#000000" transform="translate(715,395)"/>
<path d="M0 0 C1.32 0.66 2.64 1.32 4 2 C4 3.65 4 5.3 4 7 C3.67 7.33 3.34 7.66 3 8 C1.35 8 -0.3 8 -2 8 C-2.33 7.67 -2.66 7.34 -3 7 C-3 5.35 -3 3.7 -3 2 C-2.01 1.34 -1.02 0.68 0 0 Z " fill="#000000" transform="translate(949,416)"/>
<path d="M0 0 C1.98 0 3.96 0 6 0 C6.99 1.32 7.98 2.64 9 4 C8 9 8 9 5 12 C4.01 11.83 4.01 11.83 -1 11 C-3 8 -3 8 -3 3 C-2.01 2.01 -1.02 1.02 0 0 Z " fill="#000000" transform="translate(104,423)"/>
<path d="" fill="#000000" transform="translate(0,0)"/>
<path d="M0 0 C1.98 0 3.96 0 6 0 C6.99 0.99 7.98 1.98 9 3 C8.67 5.31 8.34 7.62 8 10 C5 12 5 12 -1 11 C-1.66 10.34 -2.32 9.68 -3 9 C-3 7.02 -3 5.04 -3 3 C-2.01 2.01 -1.02 1.02 0 0 Z " fill="#000000" transform="translate(798,434)"/>
<path d="M0 0 C1 1 1 1 1 6 C0.67 6.33 0.34 6.66 0 7 C-1.65 7 -3.3 7 -5 7 C-5.33 6.67 -5.66 6.34 -6 6 C-6 4.02 -6 2.04 -6 0 C-4 -1 -4 -1 0 0 Z " fill="#000000" transform="translate(81,471)"/>
<path d="M0 0 C1.98 0 3.96 0 6 0 C8 2 8 2 8 7 C7.34 7.66 6.68 8.32 6 9 C3.69 8.67 1.38 8.34 -1 8 C-1 1 -1 1 0 0 Z " fill="#000000" transform="translate(317,470)"/>
<path d="M0 0 C0.33 0 0.66 0 1 0 C3.59 18.12 1.15 29.74 -5.57 46.63 C-15.08 71.61 -9.03 90.81 1.31 114.62 C4.9 123.15 5.11 129.63 5.06 138.81 C5.05 141.09 5.04 143.36 5.04 145.71 C5.02 147.45 5.01 149.2 5 151 C4.67 151 4.34 151 4 151 C3.7 149.41 3.39 147.81 3.08 146.17 C-0.14 129.89 -4.9 116.65 -12.91 102.18 C-21.06 85.87 -19.9 69.26 -15.44 51.94 C-12.61 43.89 -9.37 36.08 -6.02 28.23 C-2.78 19.83 -1.76 11.93 -1 3 C-0.67 2.01 -0.34 1.02 0 0 Z " fill="#000000" transform="translate(265,471)"/>
<path d="M0 0 C4 1 4 1 5 2 C5 3.65 5 5.3 5 7 C3.35 7.66 1.7 8.32 0 9 C-0.66 8.34 -1.32 7.68 -2 7 C-2 2 -2 2 0 0 Z " fill="#000000" transform="translate(678,479)"/>
<path d="M0 0 C1.98 0 3.96 0 6 0 C6.99 1.65 7.98 3.3 9 5 C8.34 6.65 7.68 8.3 7 10 C5.02 10.33 3.04 10.66 1 11 C0.01 10.01 -0.98 9.02 -2 8 C-1 1 -1 1 0 0 Z " fill="#000000" transform="translate(349,490)"/>
<path d="M0 0 C2.31 0.33 4.62 0.66 7 1 C9 4 9 4 8 10 C7.34 10.66 6.68 11.32 6 12 C3.69 12 1.38 12 -1 12 C-1.66 11.34 -2.32 10.68 -3 10 C-3 7.69 -3 5.38 -3 3 C-2.01 2.01 -1.02 1.02 0 0 Z " fill="#000000" transform="translate(876,490)"/>
<path d="" fill="#000000" transform="translate(0,0)"/>
<path d="M0 0 C1.65 0.33 3.3 0.66 5 1 C5.33 2.65 5.66 4.3 6 6 C5.34 6.66 4.68 7.32 4 8 C2.35 7.67 0.7 7.34 -1 7 C-1.33 5.35 -1.66 3.7 -2 2 C-1.34 1.34 -0.68 0.68 0 0 Z " fill="#000000" transform="translate(165,509)"/>
<path d="" fill="#000000" transform="translate(0,0)"/>
<path d="" fill="#000000" transform="translate(0,0)"/>
<path d="M0 0 C12.85 10.8 12.85 10.8 13.72 17.88 C13.71 20.29 13.69 22.69 13.68 25.17 C13.68 26.53 13.68 26.53 13.68 33.42 C13.65 36.39 13.62 39.36 13.59 42.34 C13.57 45.38 13.57 48.42 13.56 51.46 C13.54 59.46 13.48 67.46 13.41 75.46 C13.35 83.62 13.32 91.78 13.29 99.95 C13.23 115.97 13.13 131.98 13 148 C9 143 9 143 4.75 136.12 C0.24 129.04 -4.39 123.8 -12 120 C-18 121 -18 121 -22.06 123.12 C-26 125 -26 125 -31 124 C-33.73 120.72 -36.4 117.39 -39 114 C-43.91 110.32 -45.99 110.6 -52 111 C-53.15 111.33 -53.15 111.33 -59 113 C-54.21 105.23 -49.03 97.87 -43.6 90.55 C-41.45 87.61 -39.4 84.59 -37.38 81.56 C-36.59 80.39 -35.81 79.21 -35 78 C-34.67 78 -34.34 78 -34 78 C-34.33 86.25 -34.66 94.5 -35 103 C-17.71 95.14 -5.07 88.76 3.44 70.88 C6.51 61.29 6.18 54.63 3 45 C-1.73 36.61 -8.35 30.72 -15.48 24.39 C-18.85 21.15 -21.42 17.89 -24 14 C-19 15 -19 15 -11.62 17.5 C-4 20 -4 20 3 21 C2.5 18.28 2.01 15.55 1.5 12.75 C0.71 8.4 0 4.43 0 0 Z " fill="#000000" transform="translate(1011,538)"/>
<path d="M0 0 C5 1 5 1 6 2 C6 3.65 6 5.3 6 7 C5.67 7.33 5.34 7.66 5 8 C3.35 8 1.7 8 0 8 C-0.66 7.34 -1.32 6.68 -2 6 C-1 1 -1 1 0 0 Z " fill="#000000" transform="translate(792,542)"/>
<path d="" fill="#000000" transform="translate(0,0)"/>
<path d="M0 0 C5 1 5 1 7 3 C6.67 4.98 6.34 6.96 6 9 C4.02 9.33 2.04 9.66 0 10 C-0.66 9.34 -1.32 8.68 -2 8 C-2 2 -2 2 0 0 Z " fill="#000000" transform="translate(136,549)"/>
<path d="M0 0 C1.65 0 3.3 0 5 0 C6 1 6 1 6 7 C5.67 7.33 5.34 7.66 5 8 C3.35 8 1.7 8 0 8 C-0.66 7.34 -1.32 6.68 -2 6 C-1 1 -1 1 0 0 Z " fill="#000000" transform="translate(630,553)"/>
<path d="M0 0 C6 2 6 2 7 4 C7 5.98 7 7.96 7 10 C6.17 10.5 6.17 10.5 2 13 C0.02 12.34 -1.96 11.68 -4 11 C-4.33 9.02 -4.66 7.04 -5 5 C-3.35 3.35 -1.7 1.7 0 0 Z " fill="#000000" transform="translate(727,561)"/>
<path d="" fill="#000000" transform="translate(0,0)"/>
<path d="M0 0 C6.38 6.38 11.74 12.79 12.31 22.06 C12.21 23.36 12.11 24.66 12 26 C14 29 14 29 18 31 C19.27 34.74 19.27 34.74 20.25 39.31 C20.42 40.06 20.42 40.06 21.27 43.86 C22 48 22 48 22 53 C18.09 51.05 17.06 45.3 15.5 41.5 C14.62 39.34 13.73 37.18 12.82 34.96 C11.89 32.66 10.96 30.37 10 28 C9.05 25.67 8.1 23.35 7.12 20.95 C0 3.4 0 3.4 0 0 Z " fill="#000000" transform="translate(270,581)"/>
<path d="M0 0 C2.86 3.58 5.6 7.26 8.25 11 C13.7 17.88 17.42 21.28 26 23 C30.17 18.83 33.54 14.74 37 10 C41 12 41 12 43.56 15.06 C49.45 21.8 56.69 26.96 63.69 32.5 C64.4 33.08 64.4 33.08 68 36 C68 36.33 68 36.66 68 37 C62.95 37.24 59.25 37.09 54.44 35.44 C48.2 33.42 43.5 34.35 37.56 36.93 C35.99 37.76 34.41 38.59 32.79 39.44 C31.07 40.33 29.35 41.23 27.58 42.15 C26.69 42.62 26.69 42.62 22.19 45 C18.64 46.86 15.09 48.71 11.54 50.56 C9.98 51.39 8.41 52.22 6.79 53.07 C3 55 3 55 0 56 C0 37.52 0 19.04 0 0 Z " fill="#000000" transform="translate(0,705)"/>
<path d="M0 0 C-4.33 2.89 -8.92 3.74 -13.94 5.12 C-38.29 12.14 -59.42 22.29 -80 37 C-104.17 53.94 -124.92 61.96 -153.99 65.79 C-184.03 69.76 -205.88 78.6 -230 97 C-232.08 98.59 -234.17 100.18 -236.31 101.81 C-238.52 103.52 -240.73 105.24 -243 107 C-253.59 115.11 -264.18 123.2 -275 131 C-275.33 131.33 -275.66 131.66 -276 132 C-279.68 132.09 -283.36 132.11 -287.04 132.1 C-289.29 132.09 -291.54 132.09 -293.86 132.09 C-296.24 132.08 -298.61 132.07 -301.06 132.06 C-303.44 132.06 -305.82 132.05 -308.28 132.05 C-314.18 132.04 -320.09 132.02 -326 132 C-318.76 126.57 -310.25 123.17 -302.13 119.23 C-281.96 109 -263.38 96.36 -244.79 83.55 C-213.64 62.28 -184.92 53.35 -147.78 48.32 C-119.67 44.38 -96.64 33.74 -72.38 19.31 C-50.15 6.37 -25.83 -0.57 0 0 Z " fill="#000000" transform="translate(480,892)"/>
</svg>
