<svg viewBox="0 0 800 800" xmlns="http://www.w3.org/2000/svg">
    <rect width="800" height="800" fill="white"/>
    
    <defs>
        <path id="leaf" d="M 0 0 Q -10 -5 -5 -15 Q -20 -15 -10 -25 Q -5 -35 5 -25 Q 15 -35 20 -25 Q 30 -15 15 -15 Q 20 -5 10 0 Z" fill="black"/>
    </defs>

    <!-- Stars and Snowflakes -->
    <g id="stars" fill="black">
        <circle cx="65" cy="50" r="4"/>
        <circle cx="120" cy="40" r="3"/>
        <circle cx="135" cy="90" r="5"/>
        <circle cx="280" cy="35" r="3"/>
        <circle cx="330" cy="55" r="5"/>
        <circle cx="450" cy="165" r="4"/>
        <circle cx="475" cy="200" r="3"/>
        <circle cx="525" cy="235" r="3"/>
        <circle cx="555" cy="310" r="4"/>
        <circle cx="530" cy="375" r="3"/>
        <circle cx="565" cy="440" r="5"/>
        <circle cx="620" cy="345" r="4"/>
        <circle cx="680" cy="270" r="4"/>
        <circle cx="740" cy="230" r="4"/>
        <circle cx="740" cy="325" r="3"/>
        <circle cx="685" cy="385" r="5"/>
        <circle cx="620" cy="425" r="3"/>
        <circle cx="755" cy="135" r="2"/>
        <circle cx="200" cy="80" r="3"/>
        <circle cx="380" cy="60" r="4"/>
        <circle cx="580" cy="140" r="3"/>
        <circle cx="700" cy="300" r="4"/>
        <circle cx="100" cy="200" r="3"/>
        <circle cx="250" cy="250" r="4"/>
        
        <!-- Starbursts -->
        <path d="M 490 45 Q 490 55 480 55 Q 490 55 490 65 Q 490 55 500 55 Q 490 55 490 45 Z"/>
        <path d="M 725 45 Q 725 55 715 55 Q 725 55 725 65 Q 725 55 735 55 Q 725 55 725 45 Z"/>
        <path d="M 510 85 Q 510 90 505 90 Q 510 90 510 95 Q 510 90 515 90 Q 510 90 510 85 Z"/>
    </g>

    <!-- Moon -->
    <path id="moon" d="M 620 90 A 65 65 0 0 0 680 210 A 75 75 0 0 1 620 90 Z" fill="white" stroke="black" stroke-width="4" stroke-linejoin="round"/>

    <!-- Background Trees Left -->
    <g id="bg-trees-left">
        <path d="M -10 320 L 20 440 L 5 440 L 40 520 L 20 520 L 60 600 L 80 520 L 105 600 L 120 450 L 140 550 L 160 480 L 180 580 L 180 600 L -10 600 Z" fill="black"/>
        <path d="M -10 320 L 20 440 L 5 440 L 40 520 Q 25 510 15 530 Q 5 510 -10 530 Z" fill="white" stroke="black" stroke-width="3" stroke-linejoin="round"/>
        <path d="M 80 520 L 65 570 Q 75 560 85 575 Q 95 560 105 580 Z" fill="white" stroke="black" stroke-width="3" stroke-linejoin="round"/>
        <path d="M 120 450 L 100 520 Q 115 510 125 530 Q 135 510 145 540 Z" fill="white" stroke="black" stroke-width="3" stroke-linejoin="round"/>
    </g>

    <!-- Background Trees Right -->
    <g id="bg-trees-right">
        <path d="M 520 680 L 540 540 L 555 580 L 585 525 L 605 580 L 635 470 L 660 550 L 675 445 L 710 540 L 750 400 L 780 460 L 810 320 L 810 680 Z" fill="black"/>
        <path d="M 675 445 L 650 520 Q 665 510 675 525 Q 690 510 705 530 Z" fill="white" stroke="black" stroke-width="3" stroke-linejoin="round"/>
        <path d="M 750 400 L 715 490 Q 735 480 745 500 Q 765 480 780 510 Z" fill="white" stroke="black" stroke-width="3" stroke-linejoin="round"/>
        <path d="M 810 320 L 760 430 L 775 430 L 740 500 Q 760 490 770 510 Q 790 490 810 520 Z" fill="white" stroke="black" stroke-width="3" stroke-linejoin="round"/>
        <path d="M 635 470 L 615 530 Q 625 520 635 535 Q 645 520 655 540 Z" fill="white" stroke="black" stroke-width="3" stroke-linejoin="round"/>
    </g>

    <!-- Foreground Mask (Hides bottom of background trees) -->
    <rect x="0" y="450" width="800" height="350" fill="white"/>

    <!-- Foreground Cliff & Snow Details -->
    <g id="cliff">
        <!-- Deep Crevasse Shadow -->
        <path d="M 450 470 C 480 470, 510 500, 520 550 C 520 580, 500 610, 480 620 C 520 650, 550 700, 580 810 L 680 810 C 620 700, 600 650, 560 600 C 580 550, 550 480, 450 470 Z" fill="black"/>
        
        <!-- Main Cliff Edge -->
        <path d="M -10 620 Q 150 500 300 480 Q 450 460 480 480" fill="none" stroke="black" stroke-width="5" stroke-linecap="round"/>
        
        <!-- Right Bank Edge -->
        <path d="M 550 680 C 650 720, 750 680, 810 650" fill="none" stroke="black" stroke-width="5" stroke-linecap="round"/>
        
        <!-- Sweeping Snow Lines (Tapered) -->
        <path d="M -10 680 Q 80 620 140 680 Q 180 720 250 700 Q 180 710 140 670 Q 80 610 -10 670 Z" fill="black"/>
        <path d="M 200 640 Q 250 630 300 650 Q 350 670 400 620 Q 430 580 450 600 Q 430 590 400 630 Q 350 680 300 660 Q 250 640 200 650 Z" fill="black"/>
        <path d="M 120 810 Q 180 720 280 700 Q 350 680 450 750 Q 350 690 280 710 Q 180 730 130 810 Z" fill="black"/>
        <path d="M 600 750 Q 700 780 810 720 L 810 730 Q 700 790 610 760 Z" fill="black"/>
    </g>

    <!-- Gnarly Tree -->
    <g id="tree">
        <!-- Main Silhouette -->
        <path d="M 100 550 C 140 530, 160 480, 160 400 C 150 350, 120 320, 80 300 C 100 280, 130 290, 150 320 C 150 270, 120 200, 90 150 C 120 150, 150 190, 170 240 C 180 170, 190 110, 240 90 C 220 120, 210 170, 200 230 C 250 190, 330 140, 410 110 C 370 150, 310 180, 240 220 C 290 220, 370 240, 420 270 C 370 270, 310 250, 240 250 C 290 280, 340 310, 370 340 C 330 330, 290 310, 230 310 C 220 390, 250 470, 310 510 C 270 510, 230 490, 210 470 C 190 510, 170 540, 130 560 Z" fill="black"/>
        
        <!-- Wood Grain / Highlights -->
        <path d="M 160 480 C 170 430, 170 380, 180 330 C 190 280, 200 230, 210 180" stroke="white" stroke-width="5" fill="none" stroke-linecap="round"/>
        <path d="M 180 460 C 190 410, 200 360, 200 310 C 210 260, 230 230, 270 210" stroke="white" stroke-width="5" fill="none" stroke-linecap="round"/>
        <path d="M 190 490 C 210 460, 220 430, 220 380 C 220 330, 240 300, 280 280" stroke="white" stroke-width="4" fill="none" stroke-linecap="round"/>
        <path d="M 150 360 C 140 330, 120 310, 90 290" stroke="white" stroke-width="4" fill="none" stroke-linecap="round"/>
        <path d="M 170 260 C 160 220, 140 180, 110 150" stroke="white" stroke-width="4" fill="none" stroke-linecap="round"/>
        <path d="M 200 200 C 205 160, 215 120, 230 95" stroke="white" stroke-width="4" fill="none" stroke-linecap="round"/>
        <path d="M 230 220 C 270 190, 320 160, 370 130" stroke="white" stroke-width="4" fill="none" stroke-linecap="round"/>
        <path d="M 240 250 C 290 250, 340 260, 380 280" stroke="white" stroke-width="4" fill="none" stroke-linecap="round"/>
        
        <!-- Leaves -->
        <use href="#leaf" transform="translate(100, 150) rotate(-30) scale(1.2)"/>
        <use href="#leaf" transform="translate(250, 100) rotate(20) scale(1.2)"/>
        <use href="#leaf" transform="translate(420, 120) rotate(60) scale(1.2)"/>
        <use href="#leaf" transform="translate(430, 280) rotate(100) scale(1.2)"/>
        <use href="#leaf" transform="translate(380, 350) rotate(130) scale(1.2)"/>
        <use href="#leaf" transform="translate(80, 300) rotate(-70) scale(1.2)"/>
        <use href="#leaf" transform="translate(160, 200) rotate(-10) scale(1)"/>
        <use href="#leaf" transform="translate(320, 190) rotate(40) scale(1)"/>
        <use href="#leaf" transform="translate(300, 290) rotate(80) scale(1)"/>
        <use href="#leaf" transform="translate(200, 120) rotate(10) scale(1.3)"/>
        <use href="#leaf" transform="translate(360, 160) rotate(45) scale(1.1)"/>
    </g>

    <!-- Howling Wolf -->
    <g id="wolf">
        <!-- Background Legs (Shadows) -->
        <path d="M 435 400 L 415 470 L 400 470 L 420 400 Z" fill="black"/>
        <path d="M 335 390 L 305 475 L 290 475 L 320 390 Z" fill="black"/>
        
        <!-- Main Body (Foreground) -->
        <path d="M 485 260 C 475 265, 465 270, 460 270 L 475 280 L 455 285 C 460 300, 470 320, 450 340 C 460 360, 450 380, 440 390 L 440 470 L 420 470 L 425 400 C 390 410, 360 400, 340 390 L 330 475 L 310 475 L 325 390 C 310 380, 290 390, 280 400 C 260 420, 240 430, 240 430 L 250 440 L 245 450 L 260 445 L 270 455 L 290 410 C 300 390, 320 370, 340 360 C 360 340, 380 330, 390 320 C 380 300, 390 280, 400 270 L 410 250 L 420 270 L 435 245 L 445 265 C 460 260, 475 255, 485 260 Z" fill="white" stroke="black" stroke-width="4" stroke-linejoin="round"/>
        
        <!-- Fur Accents & Details -->
        <path d="M 390 320 L 375 310 L 385 330 Z" fill="black"/>
        <path d="M 450 340 L 465 330 L 455 350 Z" fill="black"/>
        <path d="M 290 410 L 270 420 L 285 425 Z" fill="black"/>
        
        <!-- Eye -->
        <path d="M 455 265 Q 460 262 465 265 Q 460 268 455 265 Z" fill="black"/>
        
        <!-- Nose Tip -->
        <circle cx="483" cy="259" r="2" fill="black"/>
    </g>
</svg>